<?xml version="1.0" standalone="no"?>
<!DOCTYPE svg PUBLIC "-//W3C//DTD SVG 1.1//EN" "http://www.w3.org/Graphics/SVG/1.1/DTD/svg11.dtd" >
<svg xmlns="http://www.w3.org/2000/svg">
<metadata></metadata>
<defs>
<font id="benguiat_bk_btbold" horiz-adv-x="1024" >
<font-face units-per-em="2048" ascent="1638" descent="-410" />
<missing-glyph horiz-adv-x="674" />
<glyph horiz-adv-x="2048" />
<glyph horiz-adv-x="2048" />
<glyph unicode="&#xd;" horiz-adv-x="674" />
<glyph unicode=" "  horiz-adv-x="674" />
<glyph unicode="&#x09;" horiz-adv-x="674" />
<glyph unicode="&#xa0;" horiz-adv-x="674" />
<glyph unicode="!" horiz-adv-x="721" d="M98 1364h523q-63 -155 -92 -308.5t-29 -326.5q0 -39 3.5 -110.5t10.5 -163.5q-48 11 -83 16.5t-60 5.5q-71 0 -124.5 -13t-103.5 -42q22 135 31.5 235.5t9.5 182.5q0 117 -20.5 244.5t-65.5 279.5zM102 184q0 95 62 153t164 58t164.5 -58t62.5 -153q0 -94 -62.5 -152.5 t-164.5 -58.5t-164 58t-62 153z" />
<glyph unicode="&#x22;" horiz-adv-x="729" d="M68 1341q0 55 33 89t87 34t87.5 -34t33.5 -89q0 -7 -0.5 -14t-3.5 -23l-92 -466h-49l-92 466q-3 16 -3.5 23t-0.5 14zM420 1341q0 55 33.5 89t87.5 34t87.5 -34t33.5 -89q-1 -7 -1.5 -14t-3.5 -23l-92 -466h-49l-92 467q-3 15 -3.5 22t-0.5 14z" />
<glyph unicode="#" horiz-adv-x="1575" d="M-6 350l100 271h254l74 213h-258l98 270h258l129 366h289l-129 -366h227l129 366h289l-129 -366h256l-100 -270h-252l-76 -213h258l-100 -271h-254l-131 -366h-289l131 366h-227l-131 -366h-289l131 366h-258zM629 616h239l78 220h-239z" />
<glyph unicode="$" horiz-adv-x="1346" d="M127 586h41q101 -187 207 -266.5t250 -79.5q114 0 187 52.5t73 133.5q0 62 -52.5 97.5t-194.5 60.5q-13 2 -42 7q-200 33 -274 95q-54 45 -82.5 108t-28.5 138q0 154 101 253.5t267 108.5l1 86q0 40 -11.5 57.5t-40.5 28.5v43h303v-43q-29 -11 -40 -28.5t-11 -57.5v-84 q46 -2 114.5 -15t94.5 -13t49.5 6t48.5 18l56 -370l-43 -7q-59 123 -150 183.5t-217 60.5q-89 0 -139.5 -34t-50.5 -93q0 -100 246 -150q44 -9 68 -14q189 -39 281.5 -127t92.5 -231q0 -169 -123 -285t-328 -135v-106q0 -40 10.5 -56.5t40.5 -27.5v-45h-303v45q30 11 41 28 t11 56l-1 102q-51 5 -131.5 20t-111.5 15q-21 0 -42 -10t-52 -35z" />
<glyph unicode="%" horiz-adv-x="2030" d="M78 999q0 168 119.5 282t296.5 114q176 0 295.5 -113.5t119.5 -282.5q0 -167 -119.5 -280t-295.5 -113t-296 113t-120 280zM344 999q0 -140 37.5 -210t112.5 -70q74 0 110.5 69.5t36.5 210.5q0 142 -36.5 211.5t-110.5 69.5q-75 0 -112.5 -70t-37.5 -211zM397 10 q59 16 107 88l4 6l774 1164q9 13 15 27t6 22q0 10 -7.5 18t-31.5 21v39h372v-39q-60 -14 -110 -88l-4 -6l-774 -1165q-10 -14 -15.5 -27.5t-5.5 -20.5q0 -9 7.5 -17t35.5 -22v-39h-373v39zM1120 365q0 168 120 281.5t296 113.5q177 0 296.5 -113.5t119.5 -281.5t-119.5 -281 t-296.5 -113q-175 0 -295.5 113t-120.5 281zM1386 365q0 -141 37.5 -211t112.5 -70q74 0 110.5 69.5t36.5 211.5q0 141 -36.5 210.5t-110.5 69.5q-75 0 -112.5 -70t-37.5 -210z" />
<glyph unicode="&#x26;" horiz-adv-x="1778" d="M45 432q0 154 84.5 266t232.5 156q-72 54 -104.5 109.5t-32.5 126.5q0 135 126.5 220t336.5 85q206 0 326.5 -76t120.5 -203q0 -15 -5.5 -39.5t-17.5 -68.5q72 -50 144.5 -73.5t150.5 -23.5q65 0 103 26.5t38 70.5q0 31 -17.5 49t-47.5 18q-27 0 -46 -10.5t-38 -36.5 l-35 35q45 64 99.5 96.5t117.5 32.5q83 0 138 -63.5t55 -163.5q0 -127 -74.5 -208t-192.5 -81q-41 0 -88.5 15.5t-105.5 47.5q12 -35 18 -73t6 -78q0 -17 -0.5 -34.5t-2.5 -54.5q110 -91 232 -304q12 -21 19 -33q35 -59 62.5 -80t64.5 -25v-57h-528l-9 18q-51 106 -77 140 q-114 -97 -233 -142t-263 -45q-252 0 -404.5 127t-152.5 334zM381 563q0 -148 119 -263.5t282 -115.5q70 0 122.5 24t96.5 77q-119 135 -394 344q-99 77 -148 116q-40 -46 -59 -90.5t-19 -91.5zM649 1141q0 -46 32 -91t97 -92q60 27 88.5 65.5t28.5 92.5q0 63 -37 101 t-96 38q-48 0 -80.5 -32.5t-32.5 -81.5zM918 881q52 -31 109 -73.5t163 -133.5q1 8 1.5 16.5t0.5 24.5q0 84 -30.5 145.5t-94.5 106.5q-29 -40 -64 -60t-85 -26z" />
<glyph unicode="'" horiz-adv-x="379" d="M70 1341q0 55 33 89t85 34q54 0 87.5 -34t33.5 -89q0 -7 -0.5 -14t-3.5 -23l-92 -466h-47l-92 466q-3 16 -3.5 23t-0.5 14z" />
<glyph unicode="(" horiz-adv-x="778" d="M113 516q0 246 90 458.5t284 420.5l162 -152q-91 -37 -162 -246.5t-71 -480.5q0 -270 71 -480t162 -247l-162 -149q-194 208 -284 419t-90 457z" />
<glyph unicode=")" horiz-adv-x="778" d="M129 -211q91 36 161 246.5t70 480.5q0 271 -70 481t-161 246l162 152q194 -208 284.5 -420.5t90.5 -458.5t-90.5 -457t-284.5 -419z" />
<glyph unicode="*" d="M119 803q0 43 31 70.5t83 31.5q10 1 28 2q138 10 218 51q-87 46 -228 52q-17 1 -26 2q-48 3 -77 31t-29 71q0 49 33 85t79 36q54 0 122 -99t143 -148q-5 89 -50 183t-45 121q0 46 30.5 74.5t80.5 28.5t80.5 -29t30.5 -76q0 -23 -44.5 -118t-52.5 -183q75 45 144 145.5 t131 100.5q40 0 72 -36.5t32 -82.5q0 -50 -30.5 -74t-118.5 -30q-78 -7 -124 -18.5t-87 -32.5q41 -24 89 -35.5t126 -16.5q84 -6 114.5 -30.5t30.5 -77.5q0 -48 -32.5 -83.5t-77.5 -35.5q-56 0 -125 102.5t-140 146.5q3 -86 49 -182t46 -122q0 -44 -31.5 -72.5t-81.5 -28.5 t-79.5 28t-29.5 75q0 25 46 121t51 179q-77 -46 -144.5 -145.5t-132.5 -99.5q-41 0 -72.5 37.5t-31.5 81.5z" />
<glyph unicode="+" horiz-adv-x="1706" d="M254 475v273h459v473h280v-473h459v-273h-459v-475h-280v475h-459z" />
<glyph unicode="," horiz-adv-x="674" d="M53 -233q31 32 51.5 61t30.5 53l109 281v78h374l-247 -473h-318z" />
<glyph unicode="-" horiz-adv-x="797" d="M41 375l152 287l28 -31h404q30 0 57.5 10t51.5 28l22 -20l-152 -287l-29 31h-403q-30 0 -57 -9.5t-52 -28.5z" />
<glyph unicode="." horiz-adv-x="674" d="M111 184q0 95 61.5 153t163.5 58t164.5 -58t62.5 -153q0 -94 -62.5 -152.5t-164.5 -58.5t-163.5 58t-61.5 153z" />
<glyph unicode="/" horiz-adv-x="551" d="M-84 -190l453 1585h264l-451 -1585h-266z" />
<glyph unicode="0" horiz-adv-x="1346" d="M51 682q0 318 173.5 515.5t449.5 197.5t448 -197.5t172 -515.5t-172 -514.5t-448 -196.5t-449.5 197t-173.5 514zM455 682q0 -279 53 -410t166 -131q112 0 164.5 130t52.5 411q0 278 -53 409.5t-164 131.5q-112 0 -165.5 -132.5t-53.5 -408.5z" />
<glyph unicode="1" horiz-adv-x="1346" d="M160 1096v69q204 20 390.5 77t364.5 153v-1145q0 -94 26.5 -123.5t101.5 -36.5l176 -14v-76h-1039v76l156 6q93 4 129.5 44.5t36.5 164.5v653q0 97 -31.5 125.5t-175.5 28.5q-56 0 -83.5 -0.5t-51.5 -1.5z" />
<glyph unicode="2" horiz-adv-x="1346" d="M25 0q344 247 537.5 502.5t193.5 458.5q0 116 -63.5 186t-168.5 70q-141 0 -227 -86.5t-96 -239.5l-41 -8l-101 354q153 79 302 118.5t292 39.5q243 0 389 -108.5t146 -287.5q0 -153 -105 -298.5t-424 -401.5h347q85 0 134 26t70 83l50 -11l-173 -434q-15 20 -36 28.5 t-58 8.5h-968z" />
<glyph unicode="3" horiz-adv-x="1346" d="M53 127l164 344l43 -21q-5 -25 -7.5 -45.5t-2.5 -37.5q0 -108 77.5 -173t207.5 -65q137 0 229 77.5t92 190.5q0 125 -110 205t-285 80q-37 0 -78 -4.5t-86 -13.5l502 426h-455q-44 0 -74 -20.5t-63 -76.5l-45 11l137 391q16 -16 33 -22.5t45 -6.5h717l69 -162l-364 -286 q201 -20 318.5 -136.5t117.5 -294.5q0 -224 -179 -370t-464 -146q-152 0 -284.5 38.5t-254.5 117.5z" />
<glyph unicode="4" horiz-adv-x="1346" d="M23 339.5v18.5q0 98 101 257l7 12q139 216 188.5 327.5t49.5 192.5q0 37 -13 56.5t-47 35.5q116 90 193 165.5t133 149.5q26 -43 38.5 -92t12.5 -112q0 -243 -324 -662q-84 -110 -129 -170h412v469q142 43 239 135.5t154 239.5h26q-12 -72 -19 -137.5t-7 -128.5v-35v-543 h95q47 0 80 15.5t55 48.5l41 -2l-78 -297l-35 8q-2 28 -18 41.5t-48 13.5h-92v-162q0 -43 29.5 -72.5t83.5 -39.5v-72h-621v72q55 10 85 39.5t30 72.5v162h-549q-21 0 -39 -5t-32 -15q-2 7 -2 13.5z" />
<glyph unicode="5" horiz-adv-x="1346" d="M53 133l187 332l38 -16q-7 -24 -10.5 -45.5t-3.5 -41.5q0 -102 84 -167.5t219 -65.5q140 0 232 73t92 181t-97 174t-259 66q-74 0 -161 -21t-220 -72q66 176 96.5 335t30.5 325q0 23 -2.5 79t-6.5 126q25 -15 47.5 -22t45.5 -7h669q19 0 49.5 12t63.5 33l-88 -375h-39 q-9 32 -24 43t-50 11h-522q0 -50 -5 -95t-16 -88q69 16 135.5 23.5t133.5 7.5q283 0 437.5 -116t154.5 -328q0 -226 -188.5 -375.5t-481.5 -149.5q-139 0 -272.5 40.5t-268.5 123.5z" />
<glyph unicode="6" horiz-adv-x="1346" d="M49 666q0 326 209 526.5t553 200.5q84 0 178 -12.5t205 -39.5l-74 -374l-43 8v12q0 109 -70.5 172.5t-191.5 63.5q-164 0 -270.5 -127t-112.5 -334q79 78 176.5 117t216.5 39q209 0 343.5 -124.5t134.5 -316.5q0 -219 -168 -361.5t-435 -142.5q-293 0 -472 191t-179 502z M473 438q0 -133 62 -219t155 -86q94 0 155.5 84t61.5 215q0 136 -61.5 222.5t-155.5 86.5q-95 0 -156 -84.5t-61 -218.5z" />
<glyph unicode="7" horiz-adv-x="1346" d="M139 973l121 448h10q12 -29 33.5 -42t56.5 -13h695q49 0 79.5 16t51.5 52h12q0 -2 1 -7q3 -50 3 -75q0 -123 -32 -239t-119 -282q-11 -21 -34 -64q-200 -378 -200 -681q0 -35 0.5 -52.5t1.5 -33.5h-495q23 193 124 369t295 362q17 16 49 45q181 169 195 281h-655 q-55 0 -84.5 -21t-57.5 -75z" />
<glyph unicode="8" horiz-adv-x="1346" d="M39 383q0 137 94.5 229.5t265.5 122.5q-141 37 -217 118t-76 196q0 156 153 251t415 95q261 0 413 -94.5t152 -251.5q0 -115 -75.5 -196t-217.5 -118q172 -30 267.5 -123t95.5 -229q0 -186 -173 -299t-462 -113q-290 0 -462.5 113t-172.5 299zM436 395q0 -124 64.5 -195 t175.5 -71q113 0 177.5 73.5t64.5 203.5q0 115 -67.5 186.5t-174.5 71.5q-110 0 -175 -72.5t-65 -196.5zM483 1024q0 -100 51.5 -156.5t143.5 -56.5q91 0 143.5 57t52.5 156t-52.5 156t-143.5 57t-143 -56.5t-52 -156.5z" />
<glyph unicode="9" horiz-adv-x="1346" d="M45 889q0 220 168.5 363t433.5 143q294 0 472.5 -191t178.5 -502q0 -326 -208.5 -527.5t-552.5 -201.5q-85 0 -178.5 12.5t-204.5 39.5l75 374l41 -8v-12q0 -109 71 -172.5t191 -63.5q165 0 271.5 128t111.5 335q-79 -79 -177 -118t-216 -39q-208 0 -342.5 124 t-134.5 316zM440 934q0 -136 61.5 -222.5t155.5 -86.5q96 0 156.5 84.5t60.5 218.5q0 133 -61.5 219t-155.5 86t-155.5 -84t-61.5 -215z" />
<glyph unicode=":" horiz-adv-x="721" d="M133 182q0 95 62.5 153t164.5 58t165 -58t63 -153q0 -94 -63 -152.5t-165 -58.5t-164.5 58.5t-62.5 152.5zM133 842q0 94 62.5 152.5t164.5 58.5t165 -58.5t63 -152.5q0 -95 -63 -153t-165 -58t-164.5 58t-62.5 153z" />
<glyph unicode=";" horiz-adv-x="721" d="M59 -233q32 33 52.5 61.5t29.5 52.5l109 281v78h375l-248 -473h-318zM207 842q0 94 62.5 152.5t164.5 58.5t163.5 -58t61.5 -153t-61.5 -153t-163.5 -58t-164.5 58t-62.5 153z" />
<glyph unicode="&#x3c;" horiz-adv-x="1706" d="M264 471v281l1178 487v-301l-801 -328l801 -327v-299z" />
<glyph unicode="=" horiz-adv-x="1706" d="M254 240v272h1198v-272h-1198zM254 711v272h1198v-272h-1198z" />
<glyph unicode="&#x3e;" horiz-adv-x="1706" d="M264 -16v299l801 327l-801 328v301l1178 -487v-281z" />
<glyph unicode="?" horiz-adv-x="1233" d="M80 1312q27 -10 44.5 -15t29.5 -5q17 0 78 23q216 78 413 78q221 0 350 -96t129 -257q0 -130 -79.5 -215.5t-335.5 -191.5q-87 -36 -124.5 -69t-37.5 -72q0 -6 0.5 -12t2.5 -19q-28 3 -50 4.5t-39 1.5q-58 0 -110 -13t-105 -40q-6 36 -8 53.5t-2 28.5q0 101 202 242l10 7 q144 101 197 168.5t53 139.5q0 83 -59.5 135.5t-153.5 52.5q-144 0 -233.5 -97.5t-89.5 -256.5v-15l-37 -6zM203 184q0 95 62.5 153t164.5 58t163.5 -58t61.5 -153t-61.5 -153t-163.5 -58t-164.5 58.5t-62.5 152.5z" />
<glyph unicode="@" horiz-adv-x="2019" d="M125 532q0 180 66 342t192 289q143 144 337 222.5t408 78.5q346 0 558 -191.5t212 -504.5q0 -157 -48 -283t-148 -229q-66 -69 -145.5 -105t-165.5 -36q-101 0 -163.5 52.5t-64.5 137.5q-58 -94 -128.5 -141t-151.5 -47q-152 0 -241 93t-89 253q0 116 44 219t128 184 q76 75 167.5 115.5t182.5 40.5q99 0 154 -43t65 -129l45 149h234l-176 -628q-7 -24 -11 -46t-4 -40q0 -44 18.5 -69.5t49.5 -25.5q27 0 83.5 32.5t102.5 78.5q90 89 135.5 206.5t45.5 258.5q0 108 -28 202.5t-81 161.5q-85 113 -236 179.5t-321 66.5q-146 0 -281.5 -48.5 t-244.5 -139.5q-147 -123 -223 -296t-76 -386q0 -328 199 -517.5t544 -189.5q161 0 309 48t326 159l45 -65q-150 -114 -321 -172t-355 -58q-435 0 -691.5 222.5t-256.5 598.5zM819 348q0 -69 28.5 -105t82.5 -36q44 0 85 41t87 133q56 113 91.5 244t35.5 209q0 49 -23 74.5 t-67 25.5q-52 0 -94.5 -32.5t-83.5 -104.5q-64 -109 -103 -236.5t-39 -212.5z" />
<glyph unicode="A" horiz-adv-x="1380" d="M-98 0v57q70 14 113 60.5t98 195.5l315 869q6 15 9 30t3 29q0 23 -13 39t-42 29v57h623v-57q-26 -10 -41 -26.5t-15 -35.5q0 -12 2.5 -26t10.5 -40l311 -919q44 -129 77 -165.5t85 -39.5v-57h-699v57q56 10 80.5 37t24.5 78q0 133 -134.5 233t-340.5 113l-80 -225 q-15 -44 -23 -79.5t-8 -59.5q0 -48 27 -72.5t80 -24.5v-57h-463zM424 668q87 -10 159 -34t134 -65l-150 492z" />
<glyph unicode="B" horiz-adv-x="1479" d="M94 0v57q57 10 78 46.5t21 164.5v830q0 130 -21 165.5t-78 45.5v57h920q180 0 254.5 -49.5t74.5 -163.5q0 -87 -64 -155.5t-243 -159.5q192 -45 304 -168t112 -287q0 -193 -138 -288t-417 -95h-803zM614 217q0 -58 25 -70t98 -12q138 0 216.5 76t78.5 207 q0 102 -52 185.5t-155 146.5q-34 -17 -76.5 -31.5t-134.5 -38.5v-463zM614 842q172 62 250 125t78 139q0 58 -43.5 86.5t-132.5 28.5q-95 0 -123.5 -15.5t-28.5 -72.5v-291z" />
<glyph unicode="C" horiz-adv-x="1464" d="M59 752q0 319 181 481t536 162q80 0 187.5 -10.5t134.5 -10.5q28 0 62.5 8t80.5 25l115 -549l-70 -12q-103 197 -197 276.5t-217 79.5q-165 0 -266.5 -122.5t-101.5 -323.5q0 -259 139.5 -432.5t349.5 -173.5q137 0 237 72.5t163 217.5l53 -14l-156 -446q-29 9 -58 13.5 t-56 4.5q-40 0 -148 -15.5t-176 -15.5q-355 0 -574 218t-219 567z" />
<glyph unicode="D" horiz-adv-x="1608" d="M94 0v57q57 10 78 46.5t21 164.5v830q0 128 -21 164.5t-78 46.5v57h639q154 0 277.5 -35t224.5 -106q153 -108 237 -273t84 -356q0 -134 -50.5 -249t-147.5 -200q-90 -78 -201.5 -112.5t-292.5 -34.5h-770zM614 279q0 -93 26 -115.5t103 -22.5q174 0 270.5 124.5 t96.5 346.5q0 255 -113.5 430t-269.5 175q-62 0 -87.5 -35.5t-25.5 -139.5v-723v-40z" />
<glyph unicode="E" horiz-adv-x="1403" d="M94 0v57q57 10 78 46.5t21 164.5v830q0 128 -21 164.5t-78 46.5v57h942q43 0 72 10t45 31l115 -471l-54 -8q-61 148 -177 223.5t-281 75.5q-82 0 -112 -30.5t-30 -131.5v-141h115q108 0 145 32.5t48 124.5h41l88 -522l-41 -10q-41 131 -106 182t-185 51h-105v-450 q0 -117 37.5 -156t141.5 -39q167 0 296 100t232 308l53 -10l-174 -558q-19 12 -41.5 17.5t-66.5 5.5h-998z" />
<glyph unicode="F" horiz-adv-x="1251" d="M94 0v57q57 10 78 46.5t21 164.5v830q0 128 -21 164.5t-78 46.5v57h942q43 0 72 10t45 31l115 -471l-54 -8q-53 139 -174 220t-276 81q-85 0 -117.5 -28.5t-32.5 -135.5v-141h115q108 0 145 32.5t48 124.5h41l88 -534l-41 -4q-41 134 -105.5 186.5t-185.5 52.5h-105v-514 q0 -122 23.5 -160t85.5 -51v-57h-629z" />
<glyph unicode="G" horiz-adv-x="1593" d="M59 748q0 305 177 475t495 170q97 0 215.5 -20.5t145.5 -20.5t59 11t78 38l63 -451h-49q-82 139 -176.5 204t-214.5 65q-180 0 -283.5 -124t-103.5 -339q0 -264 114.5 -440.5t278.5 -176.5q84 0 117 39t33 172v199q0 122 -25 161t-90 52v55h647v-55q-65 -13 -90 -52 t-25 -161v-287q0 -122 24.5 -160t90.5 -51v-51h-301q-101 0 -224 -6t-145 -6q-377 0 -594 204t-217 556z" />
<glyph unicode="H" horiz-adv-x="1575" d="M94 0v57q57 10 78 46.5t21 164.5v830q0 128 -21 164.5t-78 46.5v57h619v-57q-57 -10 -78 -46.5t-21 -164.5v-107h347v107q0 128 -21 164.5t-78 46.5v57h619v-57q-57 -10 -78 -46.5t-21 -164.5v-830q0 -128 21 -164.5t78 -46.5v-57h-619v57q57 10 78 46.5t21 164.5v582 h-347v-582q0 -128 21 -164.5t78 -46.5v-57h-619z" />
<glyph unicode="I" horiz-adv-x="807" d="M94 0v57q57 10 78 46.5t21 164.5v830q0 128 -21 164.5t-78 46.5v57h619v-57q-57 -10 -78 -46.5t-21 -164.5v-830q0 -128 21 -164.5t78 -46.5v-57h-619z" />
<glyph unicode="J" horiz-adv-x="1241" d="M-12 178l209 404l53 -19q-12 -38 -17.5 -73.5t-5.5 -71.5q0 -131 62 -209t160 -78t144 59.5t46 186.5v721q0 127 -27 165t-102 46v57h651v-57q-57 -10 -77.5 -46.5t-20.5 -164.5v-674q0 -139 -26 -203.5t-89 -118.5q-74 -63 -192.5 -97t-266.5 -34q-161 0 -281 49.5 t-220 157.5z" />
<glyph unicode="K" horiz-adv-x="1460" d="M94 0v57q57 10 78 46.5t21 164.5v830q0 128 -21 164.5t-78 46.5v57h619v-57q-57 -10 -78 -46.5t-21 -164.5v-234l82 84q35 36 95 95q149 148 149 198q0 26 -16.5 43t-49.5 25v57h578v-57q-87 -5 -193.5 -62t-207.5 -153l-90 -84q108 -90 200.5 -241t167.5 -361 q15 -42 38 -116q66 -211 173 -235v-57h-627v57q32 6 45 24t13 54q0 101 -79 272.5t-208 333.5l-70 -51v-422q0 -128 21 -164.5t78 -46.5v-57h-619z" />
<glyph unicode="L" horiz-adv-x="1309" d="M94 0v57q57 10 78 46.5t21 164.5v830q0 128 -21 164.5t-78 46.5v57h629v-57q-62 -13 -85.5 -51.5t-23.5 -159.5v-729q0 -152 36 -192t128 -40q144 0 258.5 103.5t200.5 310.5l47 -16l-156 -558q-17 13 -36 18t-58 5h-940z" />
<glyph unicode="M" horiz-adv-x="1745" d="M94 0v57q57 10 78 46.5t21 164.5v830q0 128 -21 164.5t-78 46.5v57h668v-57q-20 -8 -30.5 -21t-10.5 -31q0 -9 6 -27.5t18 -45.5l129 -295l152 295l2 3q27 50 27 68q0 19 -10.5 32.5t-30.5 21.5v57h637v-57q-57 -10 -78 -46.5t-21 -164.5v-830q0 -128 21 -164.5t78 -46.5 v-57h-647v57q72 6 99 48.5t27 189.5v752l-385 -766l-378 772v-758q0 -144 27.5 -188t101.5 -50v-57h-402z" />
<glyph unicode="N" horiz-adv-x="1485" d="M94 0v57q57 10 78 46.5t21 164.5v830q0 128 -21 164.5t-78 46.5v57h768v-57q-23 -10 -35 -24.5t-12 -31.5q0 -13 10.5 -33.5t26.5 -37.5l264 -293v209q0 128 -20.5 164.5t-77.5 46.5v57h373v-57q-57 -10 -78 -46.5t-21 -164.5v-830q0 -128 21 -164.5t78 -46.5v-57h-402 v57q73 3 100 34.5t27 131.5v47l-749 840v-815q0 -144 27.5 -188t101.5 -50v-57h-402z" />
<glyph unicode="O" horiz-adv-x="1575" d="M51 682q0 304 211.5 508.5t523.5 204.5t524 -204.5t212 -508.5t-211.5 -507.5t-524.5 -203.5q-312 0 -523.5 203.5t-211.5 507.5zM494 786q0 -290 87.5 -464.5t231.5 -174.5q126 0 197 114t71 319q0 289 -87.5 464t-229.5 175q-127 0 -198.5 -114.5t-71.5 -318.5z" />
<glyph unicode="P" horiz-adv-x="1354" d="M94 0v57q57 10 78 46.5t21 164.5v830q0 128 -21 164.5t-78 46.5v57h873q231 0 323 -53t92 -176q0 -174 -192 -304.5t-576 -216.5v-321q0 -157 30.5 -193.5t115.5 -44.5v-57h-666zM614 780q182 73 256 140.5t74 156.5q0 75 -46.5 111.5t-141.5 36.5q-84 0 -113 -22 t-29 -103v-320z" />
<glyph unicode="Q" horiz-adv-x="1575" d="M51 682q0 304 211.5 508.5t523.5 204.5t524 -204.5t212 -508.5q0 -168 -67 -306t-206 -255q26 -47 63 -69.5t89 -22.5q72 0 106.5 28.5t34.5 87.5q0 8 -1 16t-3 17l39 10q17 -32 25 -68t8 -81q0 -149 -69 -235.5t-187 -86.5q-101 0 -177 65.5t-157 223.5 q-64 -18 -123 -26.5t-117 -8.5q-122 0 -241 40.5t-215 113.5q-133 101 -203 244t-70 313zM494 784q0 -102 14 -198t43 -189q62 37 127.5 55.5t132.5 18.5q69 0 127 -21.5t115 -68.5q16 46 24 94t8 105q0 283 -89.5 461t-231.5 178q-127 0 -198.5 -114.5t-71.5 -320.5z M572 352q45 -99 105.5 -143.5t147.5 -44.5q24 0 44 1t40 3q-52 92 -122.5 143t-143.5 51q-13 0 -29.5 -2t-41.5 -8z" />
<glyph unicode="R" horiz-adv-x="1485" d="M94 0v57q57 10 78 46.5t21 164.5v830q0 128 -21 164.5t-78 46.5v57h961q151 0 224 -53.5t73 -165.5q0 -98 -62 -177.5t-215 -170.5q83 -92 157.5 -221t151.5 -319l4 -10q73 -180 154 -192v-57h-637v57q40 18 55 36t15 48q0 83 -80.5 236.5t-202.5 277.5l-78 -24v-363 q0 -128 21 -164.5t78 -46.5v-57h-619zM614 786q153 34 236.5 111t83.5 184q0 78 -43 114t-135 36q-82 0 -112 -18.5t-30 -94.5v-332z" />
<glyph unicode="S" horiz-adv-x="1341" d="M63 555l56 2q32 -202 152.5 -311t312.5 -109q130 0 201 48t71 134q0 123 -227 195l-39 12l-164 54q-176 57 -258 150.5t-82 238.5q0 194 140 310t380 116q87 0 224.5 -20.5t187.5 -20.5q19 0 42 7.5t54 24.5l43 -434l-57 -8q-71 138 -171.5 213.5t-213.5 75.5 q-85 0 -138 -40.5t-53 -102.5q0 -53 36 -86t145 -68l172 -53q247 -79 333 -169t86 -245q0 -223 -180 -360.5t-477 -137.5q-119 0 -260.5 24.5t-165.5 24.5q-28 0 -54.5 -9.5t-60.5 -33.5z" />
<glyph unicode="T" horiz-adv-x="1290" d="M-18 915l94 474q19 -13 39 -18t53 -5h952q33 0 53 5t39 18l97 -474l-58 -10q-46 149 -138 223t-230 74h-27v-907q0 -144 27 -189t100 -49v-57h-678v57q74 6 101.5 50.5t27.5 187.5v907h-26q-139 0 -231 -74t-138 -223z" />
<glyph unicode="U" horiz-adv-x="1403" d="M31 1309v57h686v-57q-82 -11 -115 -73t-37 -235l-10 -423q-1 -30 -1.5 -61.5t-0.5 -84.5q0 -147 67 -219t205 -72q147 0 212 84.5t65 278.5q0 34 -0.5 51.5t-1.5 33.5l-19 345q-11 217 -49 290.5t-127 84.5v57h486v-57q-72 -8 -112 -55t-40 -124q0 -28 0.5 -47t1.5 -38 l21 -320q0 -6 1 -20q11 -168 11 -238q0 -252 -147.5 -374t-452.5 -122q-290 0 -416.5 101.5t-126.5 335.5q0 16 2 82q1 46 2 75l21 518v29q0 121 -26.5 157t-98.5 40z" />
<glyph unicode="V" horiz-adv-x="1290" d="M-35 1309v57h649v-57q-41 -13 -62.5 -37.5t-21.5 -61.5q0 -16 11 -61t28 -100l193 -598l201 604q21 67 31 105.5t10 53.5q0 41 -23 63t-74 32v57h447v-57q-106 -24 -176 -227q-13 -37 -21 -58l-289 -811q-14 -39 -20 -59.5t-6 -32.5q0 -23 15 -41t38 -23v-57h-530v57 q30 6 46.5 24t16.5 46q0 17 -19 72q-9 26 -14 41l-286 870q-36 112 -66 150.5t-78 48.5z" />
<glyph unicode="W" horiz-adv-x="1882" d="M-4 1309v57h618v-57q-49 -16 -67.5 -39t-18.5 -68q0 -26 13 -95q2 -12 4 -20l139 -739l143 743q3 15 10 44q13 52 13 75q0 40 -23 62.5t-79 36.5v57h587v-57q-44 -14 -64 -37t-20 -62q0 -14 5 -49t14 -74l164 -739l153 744q6 30 9 58.5t3 49.5q0 49 -29 76.5t-85 32.5v57 h418v-57q-106 -24 -144 -211q-3 -11 -4 -17l-184 -868q-3 -15 -9 -41q-8 -37 -8 -47q0 -27 15 -45t41 -23v-57h-615v57q31 6 43.5 22t12.5 48q0 17 -4.5 46.5t-12.5 66.5l-106 510l-105 -538l-3 -17q-13 -67 -13 -74q0 -30 10 -45t33 -19v-57h-596v57q28 5 42.5 22.5 t14.5 47.5q0 17 -11 71q-6 26 -9 41l-164 871q-19 105 -47 146t-84 53z" />
<glyph unicode="X" horiz-adv-x="1337" d="M-59 0v57q56 13 99 52t112 155l276 465l-213 358q-59 101 -107 153t-98 69v57h692v-57q-37 -7 -57 -28t-20 -54q0 -14 11.5 -40t33.5 -61l118 -182l148 225q13 21 20 40t7 34q0 26 -13.5 39.5t-54.5 26.5v57h444v-57q-75 -22 -131.5 -69.5t-111.5 -137.5l-205 -326 l272 -468q2 -4 5 -9q129 -226 243 -242v-57h-735v57q40 10 60 31.5t20 56.5q0 23 -11 52.5t-32 64.5l-183 301l-192 -325q-18 -31 -27.5 -58.5t-9.5 -50.5q0 -30 21.5 -49t60.5 -23v-57h-442z" />
<glyph unicode="Y" horiz-adv-x="1171" d="M-104 1309v57h725l-1 -57q-46 -3 -70 -24.5t-24 -61.5q0 -22 11 -52t32 -65l148 -248l127 219q32 56 46.5 93t14.5 61q0 36 -21 54.5t-67 23.5v57h463v-57q-63 -22 -114 -69.5t-111 -143.5l-273 -437v-364q0 -144 28 -188t101 -50v-57h-678l1 57q72 6 99 48.5t27 189.5 v362l-294 510q-42 74 -79.5 103.5t-90.5 38.5z" />
<glyph unicode="Z" horiz-adv-x="1346" d="M23 0v29l712 1204h-71q-188 0 -314.5 -78t-212.5 -246l-57 11l106 471q21 -13 43 -19t54 -6h14h965v-29l-707 -1190h92q201 0 355.5 96.5t257.5 286.5l55 -6l-189 -549q-18 13 -43.5 19t-68.5 6h-991z" />
<glyph unicode="[" horiz-adv-x="778" d="M184 -332v1698h529v-180h-244v-1338h244v-180h-529z" />
<glyph unicode="\" horiz-adv-x="551" d="M-59 1395h264l452 -1585h-266z" />
<glyph unicode="]" horiz-adv-x="778" d="M59 -152h246v1338h-246v180h529v-1698h-529v180z" />
<glyph unicode="^" horiz-adv-x="2048" d="M412 897l467 565h288l465 -565h-131l-479 315l-477 -315h-133z" />
<glyph unicode="_" d="M0 -201h1024v-282h-1024v282z" />
<glyph unicode="`" d="M180 1448q0 46 32 77t79 31q35 0 69 -19.5t86 -74.5l279 -297h-115l-325 164q-57 29 -81 56t-24 63z" />
<glyph unicode="a" horiz-adv-x="1223" d="M20 244q0 170 161 279.5t501 168.5v62q0 77 -41.5 114t-128.5 37q-124 0 -216 -69t-130 -191h-49l39 367q5 -2 15 -5q55 -18 73 -18q14 0 144 32t249 32q95 0 177.5 -15.5t131.5 -42.5q68 -36 95.5 -91t27.5 -185v-445q0 -113 29.5 -155.5t105.5 -67.5v-51h-444 q-20 23 -33.5 54t-22.5 77q-57 -81 -147 -120.5t-215 -39.5q-150 0 -236 73.5t-86 199.5zM403 301q0 -50 28.5 -81.5t72.5 -31.5q85 0 131.5 77t46.5 220v78q-143 -39 -211 -102.5t-68 -159.5z" />
<glyph unicode="b" horiz-adv-x="1360" d="M45 0v51q61 4 85 33.5t24 134.5v918q0 126 -17.5 156.5t-64.5 35.5v53l460 64v-422h66q184 0 283.5 -19.5t177.5 -64.5q116 -68 184 -190t68 -263q0 -129 -58 -237t-163 -174q-66 -41 -151 -58.5t-251 -17.5h-643zM532 346q0 -129 29 -167t105 -38q102 0 164.5 96 t62.5 255q0 184 -75 280t-218 96q-11 0 -43 -2q-15 -1 -25 -2v-518z" />
<glyph unicode="c" horiz-adv-x="1139" d="M47 543q0 224 141.5 365t370.5 141q42 0 126 -8.5t126 -8.5q28 0 60 5t73 16l90 -375l-53 -6q-30 107 -96.5 165t-157.5 58q-124 0 -197 -96.5t-73 -261.5q0 -181 89 -287.5t238 -106.5q97 0 169 53t118 158l53 -14l-131 -358q-29 3 -45.5 4.5t-23.5 1.5 q-12 0 -89.5 -8.5t-144.5 -8.5q-137 0 -231 25t-166 80q-115 84 -180.5 209t-65.5 258z" />
<glyph unicode="d" horiz-adv-x="1360" d="M49 487q0 107 41 205t117 174q86 86 194.5 122t319.5 36h106v127q0 111 -17.5 142t-63.5 36l-1 53l461 64v-1296q0 -38 30 -68.5t73 -30.5h6v-51h-643q-150 0 -224.5 12.5t-136.5 40.5q-120 58 -191 175t-71 259zM469 492q0 -160 62 -255.5t163 -95.5q76 0 104.5 38 t28.5 167v518q-10 1 -26 2q-29 2 -39 2q-143 0 -218 -96t-75 -280z" />
<glyph unicode="e" horiz-adv-x="1241" d="M45 530q0 225 172.5 374t441.5 149q204 0 331 -94t206 -304l-725 -172q26 -158 117.5 -247t230.5 -89q112 0 192.5 63t133.5 191l55 -10l-121 -403q-22 1 -42 1.5t-38 0.5q-31 0 -120.5 -10.5t-149.5 -10.5q-301 0 -492.5 159t-191.5 402zM457 684q0 -11 2 -50 q1 -15 2 -24l336 82q-17 100 -59.5 152.5t-106.5 52.5q-73 0 -123.5 -60.5t-50.5 -152.5z" />
<glyph unicode="f" horiz-adv-x="768" d="M47 868v62q129 11 144 146q5 45 10 71q26 136 144.5 212.5t303.5 76.5q61 0 124 -9t128 -26l-70 -281h-51q0 6 1 15.5t1 13.5q0 72 -31.5 113t-86.5 41q-63 0 -91 -48t-28 -155v-101h90q45 0 72.5 7t54.5 22l-53 -176q-20 9 -41 12.5t-62 3.5h-61v-579 q0 -139 24.5 -181.5t89.5 -56.5v-51h-591v51q54 7 76 37t22 131v649h-119z" />
<glyph unicode="g" horiz-adv-x="1319" d="M33 -268l190 262l49 -23q-10 -21 -15 -37.5t-5 -29.5q0 -93 101 -147t276 -54q133 0 215 47.5t82 122.5q0 49 -27 75t-88 36q-26 3 -135.5 6t-188.5 16q-192 30 -316 175t-124 335q0 254 155.5 381t467.5 127h604v-51q-64 -6 -87.5 -34t-23.5 -124v-508q0 -80 8 -107 t43 -70q6 -8 16 -19q83 -98 83 -181q0 -170 -185.5 -279.5t-478.5 -109.5q-182 0 -333 47t-283 144zM449 498q0 -164 58 -257.5t159 -93.5q60 0 89 31.5t29 95.5v617q-10 1 -27 2q-30 2 -38 2q-124 0 -197 -106.5t-73 -290.5z" />
<glyph unicode="h" horiz-adv-x="1356" d="M55 0v51q56 4 77.5 37.5t21.5 130.5v952q0 99 -17.5 125t-64.5 33v53l460 64v-608q87 103 185 151.5t219 48.5q150 0 210 -74.5t60 -275.5v-424q0 -122 24 -162.5t89 -50.5v-51h-610v51q66 10 92 50.5t26 142.5v391q0 103 -23.5 144.5t-80.5 41.5q-92 0 -141.5 -88.5 t-49.5 -255.5v-188q0 -137 24.5 -180.5t90.5 -57.5v-51h-592z" />
<glyph unicode="i" horiz-adv-x="692" d="M66 0v51q55 6 77.5 37t22.5 131v496q0 126 -17.5 156.5t-64.5 36.5v53l461 63v-735q0 -139 24.5 -181.5t89.5 -56.5v-51h-593zM164 1257q0 78 58.5 133.5t142.5 55.5q82 0 142 -56.5t60 -132.5t-58.5 -130t-143.5 -54t-143 54t-58 130z" />
<glyph unicode="j" horiz-adv-x="678" d="M-297 -324l152 279l53 -23q-11 -29 -16 -52t-5 -46q0 -61 39.5 -103t98.5 -42q70 0 102.5 46.5t32.5 149.5v830q0 120 -17.5 153.5t-64.5 39.5v53l461 63v-1114q0 -178 -107.5 -271.5t-310.5 -93.5q-142 0 -241.5 31.5t-176.5 99.5zM156 1257q0 78 59.5 133.5t142.5 55.5 t143 -56.5t60 -132.5t-59 -130t-144 -54q-84 0 -143 54t-59 130z" />
<glyph unicode="k" horiz-adv-x="1280" d="M57 0l1 51q53 7 74.5 36t21.5 132v1006q0 47 -21.5 74t-60.5 30v53l460 64v-844l207 211q34 33 49 58t15 47q0 26 -18 40.5t-50 14.5h-6v51h524v-51q-129 -30 -226 -82.5t-183 -136.5q73 -70 147 -180.5t162 -284.5q11 -22 30 -62q83 -171 158 -176v-51h-639l1 57 q40 2 61.5 23.5t21.5 60.5q0 49 -43.5 131.5t-158.5 245.5l-52 -41v-188q0 -139 25 -181.5t90 -56.5v-51h-590z" />
<glyph unicode="l" horiz-adv-x="692" d="M57 0v51q55 6 77 36t22 132v918q0 126 -17.5 156.5t-64.5 35.5v53l463 64v-1157q0 -142 24 -183t88 -55v-51h-592z" />
<glyph unicode="m" horiz-adv-x="1954" d="M45 995l440 29q18 -36 29.5 -82t17.5 -104q78 101 171.5 150.5t207.5 49.5q104 0 164 -45t88 -145q90 99 182.5 144.5t202.5 45.5q142 0 199 -75t57 -275v-424q0 -124 23.5 -163.5t87.5 -49.5v-51h-594v51q59 10 82.5 49.5t23.5 143.5v391q0 103 -21 144.5t-71 41.5 q-80 0 -124 -89.5t-44 -254.5v-188q0 -143 21.5 -184.5t79.5 -53.5v-51h-582v51q59 10 83 49.5t24 143.5v391q0 101 -22 143.5t-73 42.5q-80 0 -124 -89.5t-44 -254.5v-188q0 -140 22 -182.5t81 -55.5v-51h-576l1 51q53 7 74.5 36t21.5 132v551q0 97 -23.5 132t-84.5 42z " />
<glyph unicode="n" horiz-adv-x="1356" d="M45 995l440 29q18 -36 29.5 -82t17.5 -104q91 104 187.5 152t216.5 48q150 0 210 -74.5t60 -275.5v-424q0 -122 24 -162.5t89 -50.5v-51h-610v51q66 10 92 50.5t26 142.5v391q0 103 -23.5 144.5t-80.5 41.5q-92 0 -141.5 -88.5t-49.5 -255.5v-188q0 -137 24.5 -180.5 t90.5 -57.5v-51h-592v51q56 4 77.5 37.5t21.5 130.5v551q0 97 -23.5 132t-84.5 42z" />
<glyph unicode="o" horiz-adv-x="1337" d="M47 512q0 250 166 395.5t455 145.5q288 0 455 -145.5t167 -395.5t-166.5 -395.5t-455.5 -145.5t-455 145.5t-166 395.5zM463 573q0 -217 56.5 -330.5t164.5 -113.5q86 0 137 88t51 240q0 209 -57 323.5t-160 114.5q-87 0 -139.5 -87t-52.5 -235z" />
<glyph unicode="p" horiz-adv-x="1360" d="M45 973v51h641q303 0 464 -139t161 -400q0 -236 -143 -365.5t-404 -129.5q-53 0 -111 4.5t-120 13.5l-1 -143q0 -145 29 -187t107 -49v-51h-611v51q53 7 75 36t22 132v1077q0 38 -30 68.5t-73 30.5h-6zM532 346q0 -126 29.5 -168.5t100.5 -42.5q103 0 167 100t64 267 q0 184 -75 280.5t-218 96.5q-10 0 -44 -3q-15 -1 -24 -2v-528z" />
<glyph unicode="q" horiz-adv-x="1360" d="M49 487q0 253 157.5 395t438.5 142h670v-51q-61 -4 -85 -33.5t-24 -134.5v-1077q0 -36 29 -66.5t69 -32.5l1 -51h-613v51q78 7 106.5 49t28.5 187v143q-62 -9 -120 -13.5t-111 -4.5q-262 0 -404.5 130t-142.5 367zM469 502q0 -167 61 -264t164 -97q76 0 104.5 38 t28.5 167v528q-9 1 -26 2q-29 3 -39 3q-143 0 -218 -96.5t-75 -280.5z" />
<glyph unicode="r" horiz-adv-x="895" d="M45 995l440 29q18 -36 29.5 -82t17.5 -104q73 102 151 151t167 49q25 0 84 -7q4 -1 6 -1l-74 -282q-50 26 -88.5 38.5t-70.5 12.5q-97 0 -136 -69.5t-39 -291.5v-149q0 -139 25 -181.5t90 -56.5v-51h-592v51q55 6 77 36t22 132v551q0 97 -23.5 132t-84.5 42z" />
<glyph unicode="s" horiz-adv-x="1085" d="M49 397h55q33 -135 124.5 -207.5t230.5 -72.5q98 0 156.5 35.5t58.5 95.5q0 90 -207 138q-55 13 -86 22q-160 40 -234.5 113.5t-74.5 189.5q0 151 131.5 246.5t347.5 95.5q66 0 159 -16.5t117 -16.5q18 0 41.5 6t59.5 21l26 -314h-53q-47 91 -126 141t-177 50 q-65 0 -107 -27.5t-42 -65.5q0 -63 139 -104q18 -5 28 -8l170 -49q135 -39 198 -112t63 -189q0 -190 -146.5 -294t-417.5 -104q-92 0 -194.5 21.5t-112.5 21.5q-12 0 -36.5 -6t-59.5 -18z" />
<glyph unicode="t" horiz-adv-x="901" d="M35 868v61q63 2 112.5 74.5t49.5 167.5q0 15 -2.5 37t-8.5 62l346 125v-396h168q41 0 67.5 7t53.5 22l-53 -176q-19 9 -41 12.5t-63 3.5h-129v-538q0 -103 25.5 -143t86.5 -40q56 0 105.5 45t87.5 132l49 -15l-119 -293q-94 -25 -165.5 -37t-131.5 -12q-165 0 -242 79 t-77 249v573h-119z" />
<glyph unicode="u" horiz-adv-x="1356" d="M41 944v51l487 29v-664q0 -94 25 -136t80 -42q93 0 141.5 87t48.5 253v248q0 98 -24 132t-86 42v51l489 29v-795q0 -98 24 -131t85 -41v-57h-451q-17 35 -26 74t-11 87q-92 -98 -189.5 -144t-213.5 -46q-148 0 -209 75.5t-61 275.5v448q0 99 -24 133t-85 41z" />
<glyph unicode="v" horiz-adv-x="1038" d="M-39 973v51h584v-51q-34 0 -53 -20t-19 -56q0 -25 17 -70q5 -14 8 -23l137 -425l139 397l1 2q28 81 28 115q0 36 -17 56.5t-48 23.5l-1 51h375v-51q-54 -4 -100 -58.5t-86 -162.5l-189 -492q-5 -14 -15 -40q-26 -68 -26 -93t10 -42.5t31 -33.5v-51h-434v51q21 14 30 29 t9 39q0 22 -41 131q-7 17 -10 26l-185 510q-36 103 -67.5 141.5t-77.5 45.5z" />
<glyph unicode="w" horiz-adv-x="1569" d="M-16 971v53h589v-53q-34 -6 -51.5 -25t-17.5 -49q0 -15 6 -49.5t16 -73.5l95 -377l208 627h158l205 -625l104 363q15 50 22 79.5t7 43.5q0 30 -18.5 51.5t-55.5 34.5v53h359v-53q-50 -15 -88 -67.5t-66 -145.5l-160 -527q-15 -50 -24.5 -92t-9.5 -55q0 -11 7 -18.5 t27 -16.5v-49h-403v49q18 15 24.5 26t6.5 25q0 16 -6.5 42t-18.5 57l-104 274l-97 -266v-2q-36 -99 -36 -119q0 -9 5 -17.5t17 -19.5v-49h-403v49q19 7 26.5 16t7.5 27q0 22 -23 98q-6 20 -9 31l-170 563q-31 105 -58 139t-71 48z" />
<glyph unicode="x" horiz-adv-x="1071" d="M-68 0v51q43 6 99.5 59.5t134.5 163.5l170 238l-170 285q-49 84 -89.5 124t-86.5 52v51h594l-1 -51q-27 -4 -40 -18.5t-13 -41.5q0 -20 44 -93q1 -2 1 -3l50 -82l51 70q34 46 46.5 70.5t12.5 44.5q0 25 -12 36.5t-43 16.5v51h377v-51q-62 -18 -114.5 -58t-106.5 -112 l-140 -180l213 -353q73 -118 110 -159.5t77 -59.5v-51h-584v51q27 14 37 26.5t10 31.5q0 31 -44 101q-10 17 -15 25l-88 146l-109 -162q-8 -12 -23 -33q-36 -51 -36 -77q0 -28 13.5 -41t45.5 -17v-51h-371z" />
<glyph unicode="y" horiz-adv-x="1038" d="M-45 977v47h569v-47q-31 -8 -45 -25.5t-14 -48.5q0 -19 11 -55.5t34 -93.5l129 -324l125 373q9 26 14.5 43.5t5.5 19.5q0 7 1 17.5t1 15.5q0 27 -16.5 44t-54.5 34v47h387v-47q-59 -18 -96 -58.5t-78 -144.5l-367 -905q-71 -177 -155 -250.5t-209 -73.5q-61 0 -117 20.5 t-119 65.5l115 293l57 -18q-4 -18 -6 -34t-2 -30q0 -54 28 -85t76 -31q72 0 121 67t49 168q0 50 -16 113t-55 159l-219 543q-39 97 -72.5 139t-81.5 62z" />
<glyph unicode="z" horiz-adv-x="1085" d="M-4 0l512 889h-131q-78 0 -139.5 -59t-96.5 -166l-55 10l90 373q25 -12 50 -17.5t59 -5.5h34h713l-510 -883h76q165 0 244.5 53.5t138.5 188.5l55 -10l-123 -412q-28 21 -60.5 30t-90.5 9h-17h-749z" />
<glyph unicode="{" d="M178 590v90q148 14 202 78t54 235v176q0 201 89.5 274t332.5 73v-72q-100 -3 -137 -53.5t-37 -208.5v-125q0 -227 -47 -308t-170 -114q123 -35 170 -115t47 -305v-127q0 -158 37 -208.5t137 -54.5v-69q-244 0 -333 72.5t-89 271.5v176q0 172 -54 235.5t-202 78.5z" />
<glyph unicode="|" d="M373 -483v2048h280v-2048h-280z" />
<glyph unicode="}" d="M168 -175q100 4 137 55t37 208v127q0 225 47 305t170 115q-123 33 -170 114t-47 308v125q0 156 -37.5 207.5t-136.5 54.5v72q243 0 332.5 -73.5t89.5 -273.5v-176q0 -171 54 -235t202 -78v-90q-148 -15 -202 -78.5t-54 -235.5v-176q0 -198 -89 -271t-333 -73v69z" />
<glyph unicode="~" horiz-adv-x="1706" d="M178 379v299q119 75 216.5 109t191.5 34q58 0 123 -12t155 -41q22 -7 64 -22q152 -54 235 -54q86 0 175 36.5t192 113.5v-299q-102 -69 -192 -101t-179 -32q-54 0 -111.5 11.5t-154.5 45.5q-124 42 -194.5 56t-137.5 14q-84 0 -176 -38t-207 -120z" />
<glyph unicode="&#xa1;" horiz-adv-x="721" d="M98 2q63 155 92 308.5t29 326.5q0 39 -3.5 110.5t-10.5 163.5q47 -11 82.5 -16.5t62.5 -5.5q70 0 123 13t102 42q-21 -135 -30.5 -235.5t-9.5 -182.5q0 -117 20.5 -244.5t65.5 -279.5h-523zM164 1184q0 94 62.5 152.5t164.5 58.5t164.5 -58.5t62.5 -152.5 q0 -95 -62.5 -153t-164.5 -58t-164.5 58t-62.5 153z" />
<glyph unicode="&#xa2;" horiz-adv-x="1346" d="M172 719q0 198 129 324t340 133v88q0 38 -11.5 56t-41.5 30v45h280v-45q-29 -11 -40 -29t-11 -57v-93q38 -4 68.5 -6t52.5 -2q31 0 59 8t56 25l45 -365l-47 -8q-34 97 -107.5 152t-169.5 55q-120 0 -202.5 -87.5t-82.5 -217.5q0 -158 98.5 -264.5t243.5 -106.5 q84 0 156.5 38t134.5 114l49 -12l-84 -316q-23 27 -48 38t-62 11q-2 0 -55 -7.5t-104 -10.5l-1 -109q0 -38 11 -55t40 -29v-45h-280v45q31 12 42 29t11 55v111q-209 19 -339 160.5t-130 347.5z" />
<glyph unicode="&#xa3;" horiz-adv-x="1346" d="M18 207q0 87 65 144t167 57q62 0 123 -16.5t121 -49.5q-11 134 -72.5 206.5t-165.5 72.5q-56 0 -99.5 -32.5t-72.5 -94.5l-39 12l107 266q16 -6 28 -9t19 -3h69q-19 54 -29 105.5t-10 101.5q0 202 142 315t397 113q211 0 330 -89t119 -245l-242 -174l-41 33 q37 40 54.5 78.5t17.5 82.5q0 65 -43.5 106.5t-112.5 41.5q-90 0 -154.5 -71t-64.5 -171q0 -102 66 -165.5t173 -63.5q86 0 144 30t92 91l43 -13l-102 -274q-28 13 -49.5 19.5t-34.5 6.5h-193q42 -67 62 -127.5t20 -117.5q0 -38 -8.5 -78.5t-26.5 -85.5q39 -18 74.5 -26.5 t71.5 -8.5q89 0 161.5 58t116.5 165l49 -6l-139 -407q-35 -4 -56.5 -5.5t-31.5 -1.5q-70 0 -155.5 26.5t-174.5 76.5q-83 -55 -175 -83t-193 -28q-159 0 -253 65t-94 173zM219 184q0 -33 27 -54t69 -21q49 0 92 26t74 76q-47 31 -86 45t-76 14q-44 0 -72 -24t-28 -62z" />
<glyph unicode="&#xa4;" horiz-adv-x="1241" d="M51 453l199 202q-32 50 -48 107t-16 125q0 64 16 120t48 107l-199 205l135 133l201 -199q51 35 108 51.5t126 16.5t127.5 -16.5t109.5 -51.5l201 199l133 -133l-199 -205q33 -52 48.5 -108.5t15.5 -120.5t-16 -121t-48 -109l199 -202l-133 -136l-201 201 q-52 -35 -110.5 -52t-124.5 -17q-68 0 -126 17t-110 52l-201 -201zM381 885q0 -100 70.5 -171t171.5 -71q99 0 170 71.5t71 170.5q0 98 -71.5 169.5t-169.5 71.5q-100 0 -171 -71t-71 -170z" />
<glyph unicode="&#xa5;" horiz-adv-x="1391" d="M25 1309v57h682l-1 -57q-46 -3 -70 -24.5t-24 -61.5q0 -19 11 -47.5t34 -69.5l156 -266l137 237q33 58 47.5 93.5t14.5 60.5q0 35 -22 54t-66 24v57h442v-57q-63 -22 -111 -66t-114 -149l-72 -115h279v-150h-373l-80 -131h453v-151h-480v-252q0 -144 28 -188t101 -50v-57 h-635l1 57q72 6 99 48.5t27 189.5v252h-448v151h422l-74 131h-348v150h260l-106 188q-40 72 -77.5 102t-92.5 40z" />
<glyph unicode="&#xa6;" d="M373 -350v758h280v-758h-280zM373 674v758h280v-758h-280z" />
<glyph unicode="&#xa7;" d="M35 567q0 85 40.5 151.5t145.5 149.5q-43 46 -63.5 97.5t-20.5 117.5q0 141 99 228.5t260 87.5q62 0 153 -15.5t119 -15.5q26 0 49 5t45 16l10 -338h-32q-51 126 -122 183.5t-173 57.5q-72 0 -118 -36t-46 -91q0 -75 193 -175q84 -43 133 -70q159 -92 220.5 -173 t61.5 -190q0 -84 -41 -151.5t-145 -149.5q43 -45 63.5 -96.5t20.5 -118.5q0 -140 -99 -227.5t-260 -87.5q-62 0 -153 15t-119 15q-26 0 -49 -5t-45 -15l-10 338h32q47 -124 119 -183t176 -59q73 0 118.5 35.5t45.5 89.5q0 76 -189 174q-86 45 -137 74q-159 92 -220.5 172.5 t-61.5 189.5zM238 672q0 -42 31.5 -79.5t97.5 -74.5l350 -199q35 34 52 68.5t17 71.5q0 41 -31 77.5t-98 73.5l-350 199q-36 -34 -52.5 -67.5t-16.5 -69.5z" />
<glyph unicode="&#xa8;" d="M172 1354q0 56 44 98.5t101 42.5q60 0 101 -41t41 -100q0 -63 -40 -104.5t-102 -41.5q-59 0 -102 43t-43 103zM563 1354q0 56 43 98.5t101 42.5q59 0 101 -41.5t42 -99.5q0 -63 -41 -104.5t-102 -41.5q-60 0 -102 42.5t-42 103.5z" />
<glyph unicode="&#xa9;" horiz-adv-x="1683" d="M84 678q0 151 57 289.5t164 246.5q106 108 246 166t293 58q148 0 287.5 -58t244.5 -163q106 -105 164.5 -246.5t58.5 -292.5q0 -150 -57.5 -288.5t-165.5 -248.5q-106 -107 -243.5 -164t-290.5 -57q-154 0 -289 56t-246 165q-108 107 -165.5 245t-57.5 292zM207 678 q0 -129 48 -244.5t138 -204.5q92 -90 206 -137t243 -47q127 0 240.5 47t203.5 137q90 92 139.5 209t49.5 240q0 127 -49 245.5t-138 204.5q-89 88 -206 136.5t-240 48.5q-129 0 -246 -48.5t-205 -138.5q-90 -91 -137 -205.5t-47 -242.5zM393 672q0 190 127.5 315t321.5 125 q87 0 161 -32.5t76 -32.5q20 0 31.5 13t19.5 48h54l6 -336h-57q-34 132 -101 201t-162 69q-103 0 -155.5 -90.5t-52.5 -267.5q0 -181 58.5 -277t168.5 -96q72 0 138 44.5t124 131.5l55 -34q-67 -113 -157.5 -167.5t-208.5 -54.5q-192 0 -319.5 126t-127.5 315z" />
<glyph unicode="&#xaa;" horiz-adv-x="918" d="M16 819q0 120 121 196.5t375 119.5v43q0 53 -31 78.5t-96 25.5q-93 0 -162 -47.5t-98 -132.5h-37l29 256q6 -2 20 -6q34 -11 45 -11q12 0 109.5 22.5t185.5 22.5q73 0 135.5 -11t98.5 -29q50 -26 71 -64t21 -129v-311q0 -81 21.5 -110t78.5 -46v-37h-334q-14 16 -23.5 37 t-17.5 55q-42 -56 -110 -84t-162 -28q-112 0 -176 51t-64 139zM303 860q0 -35 21.5 -57.5t54.5 -22.5q63 0 98 55t35 154v55q-108 -28 -158.5 -72.5t-50.5 -111.5z" />
<glyph unicode="&#xab;" horiz-adv-x="1094" d="M84 512l211 350h268l-229 -350l229 -350h-268zM514 512l211 350h268l-229 -350l229 -350h-268z" />
<glyph unicode="&#xac;" horiz-adv-x="1706" d="M254 602v266h1198v-501h-272v235h-926z" />
<glyph unicode="&#xad;" horiz-adv-x="797" d="M41 375l152 287l28 -31h404q30 0 57.5 10t51.5 28l22 -20l-152 -287l-29 31h-403q-30 0 -57 -9.5t-52 -28.5z" />
<glyph unicode="&#xae;" horiz-adv-x="1683" d="M84 678q0 151 57 289.5t164 246.5q106 108 245.5 166t291.5 58q155 0 299.5 -62.5t251.5 -175.5q98 -104 152 -241t54 -281q0 -119 -37 -232.5t-108 -212.5q-108 -149 -268.5 -231t-345.5 -82q-112 0 -218 32t-198 93q-162 107 -251 272.5t-89 360.5zM207 678 q0 -129 48 -244.5t138 -204.5q93 -91 206 -137.5t241 -46.5t242 47.5t204 136.5q90 92 139.5 209t49.5 240q0 127 -49 245.5t-138 204.5q-89 88 -206 136.5t-240 48.5q-129 0 -246 -48.5t-205 -138.5q-90 -91 -137 -205.5t-47 -242.5zM461 279v59q50 5 69 24t19 64v528 q0 45 -17.5 62.5t-70.5 23.5v62h409q149 0 239.5 -56.5t90.5 -146.5q0 -89 -64.5 -139t-207.5 -72q112 -17 170.5 -78.5t58.5 -160.5v-48q0 -29 9 -44t26 -15q25 0 38 30.5t13 88.5v12h62v-33q0 -89 -49 -135.5t-144 -46.5q-173 0 -187 219q-1 13 -1 19q-7 91 -36.5 131.5 t-90.5 40.5h-11v-242q0 -44 15.5 -61.5t58.5 -26.5v-59h-399zM786 981l1 -252q6 -1 13 -1.5t19 -0.5q72 0 109 43t37 127q0 64 -32 103.5t-85 39.5q-32 0 -47 -14t-15 -45z" />
<glyph unicode="&#xaf;" d="M205 1266v168h614v-168h-614z" />
<glyph unicode="&#xb0;" horiz-adv-x="674" d="M14 1149q0 134 95.5 229t228.5 95q134 0 227.5 -94.5t93.5 -229.5q0 -132 -94.5 -227t-228.5 -95t-228 93.5t-94 228.5zM186 1151q0 -64 44 -109t108 -45q62 0 106.5 46t44.5 108t-45 107t-108 45q-62 0 -106 -44.5t-44 -107.5z" />
<glyph unicode="&#xb1;" horiz-adv-x="1706" d="M254 -41v272h1198v-272h-1198zM254 680v272h459v310h280v-310h459v-272h-459v-309h-280v309h-459z" />
<glyph unicode="&#xb2;" horiz-adv-x="889" d="M16 547q228 148 356 301.5t128 273.5q0 71 -42 112.5t-112 41.5q-93 0 -150 -51.5t-63 -143.5l-29 -4l-65 211q101 48 199 72t194 24q159 0 255.5 -65t96.5 -172q0 -92 -69.5 -180t-278.5 -240h228q56 0 88.5 15.5t46.5 48.5l32 -7l-114 -260q-10 13 -23 18t-39 5h-639z " />
<glyph unicode="&#xb3;" horiz-adv-x="889" d="M35 623l108 206l29 -12q-3 -14 -4.5 -26.5t-1.5 -24.5q0 -64 51 -102.5t135 -38.5q92 0 152.5 46t60.5 113q0 76 -72 124t-188 48q-25 0 -52 -3t-56 -9l329 256h-299q-29 0 -48.5 -12t-41.5 -45l-31 6l91 235q12 -10 22.5 -14t28.5 -4h473l47 -96l-242 -172 q134 -12 211.5 -81.5t77.5 -176.5q0 -135 -118 -222.5t-306 -87.5q-101 0 -188.5 23t-167.5 70z" />
<glyph unicode="&#xb4;" d="M299 1165l279 297q52 55 86 74.5t69 19.5q47 0 79 -31t32 -77q0 -36 -24 -63t-81 -56l-325 -164h-115z" />
<glyph unicode="&#xb5;" horiz-adv-x="1270" d="M-72 -285q0 48 69.5 269t106.5 395l107 506h336l-117 -543q-7 -31 -10.5 -59t-3.5 -52q0 -47 23.5 -73.5t66.5 -26.5q56 0 90.5 51.5t62.5 179.5l115 523h334l-111 -514q-4 -19 -6 -38t-2 -36q0 -43 20.5 -66.5t57.5 -23.5q54 0 104 84l2 3q22 37 34.5 46.5t29.5 9.5 q15 0 25 -11.5t10 -29.5q0 -22 -15 -69.5t-38 -89.5q-48 -87 -111.5 -130t-142.5 -43q-89 0 -138 49.5t-55 145.5q-41 -96 -109.5 -143t-166.5 -47q-99 0 -158.5 48t-69.5 135q-17 -113 -31 -252.5t-18 -164.5q-15 -102 -48 -139t-105 -37q-63 0 -100.5 38.5t-37.5 104.5z " />
<glyph unicode="&#xb6;" d="M10 1130q0 157 106.5 253t282.5 96h615v-142h-101v-1337h-202v1337h-140v-1337h-202v784q-163 8 -261 103t-98 243z" />
<glyph unicode="&#xb7;" horiz-adv-x="674" d="M109 684q0 95 62.5 153t164.5 58t164.5 -58t62.5 -153q0 -94 -62.5 -152.5t-164.5 -58.5t-164.5 58.5t-62.5 152.5z" />
<glyph unicode="&#xb8;" d="M250 -379l47 103q67 -39 128 -58.5t116 -19.5q35 0 57.5 20.5t22.5 54.5q0 41 -23 61.5t-68 20.5q-15 0 -56 -7q-4 0 -7 -1v203h88v-115q24 4 44 6t34 2q78 0 127 -48t49 -124q0 -84 -60 -136t-157 -52q-69 0 -143 18.5t-199 71.5z" />
<glyph unicode="&#xb9;" horiz-adv-x="889" d="M104 1245q136 12 259 46.5t241 92.5v-688q0 -55 17.5 -73.5t66.5 -22.5l117 -8v-45h-686v45l102 4q62 3 86.5 27.5t24.5 97.5v393q0 58 -21 75t-116 17q-37 0 -56 -0.5t-34 -1.5z" />
<glyph unicode="&#xba;" horiz-adv-x="1004" d="M35 1008q0 174 125 276t342 102q216 0 341.5 -102t125.5 -276q0 -175 -125.5 -277t-341.5 -102q-217 0 -342 102t-125 277zM348 1051q0 -153 42.5 -232.5t123.5 -79.5q64 0 102.5 62t38.5 168q0 146 -43 226.5t-120 80.5q-65 0 -104.5 -61t-39.5 -164z" />
<glyph unicode="&#xbb;" horiz-adv-x="1094" d="M82 162l231 350l-231 350h270l211 -350l-211 -350h-270zM512 162l231 350l-231 350h270l211 -350l-211 -350h-270z" />
<glyph unicode="&#xbc;" horiz-adv-x="2013" d="M100 1214v39q129 11 247 42.5t231 84.5v-641q0 -53 16.5 -69t63.5 -19l110 -8v-43h-655v43l97 2q60 3 82.5 25.5t22.5 93.5v364q0 54 -19.5 70t-109.5 16h-86zM494 -29l794 1424h232l-793 -1424h-233zM1180 201q0 54 62 142l5 7q87 121 118.5 184t31.5 109q0 21 -8.5 32 t-28.5 19q69 48 118.5 90.5t86.5 85.5q17 -24 24.5 -51.5t7.5 -62.5q0 -136 -205 -373q-52 -59 -79 -92h258v262q90 25 151 76t97 133h18q-9 -41 -13.5 -78t-4.5 -70v-20v-303h59q31 0 51.5 8t34.5 27l27 -2l-49 -166l-23 6q-2 16 -12 23.5t-29 7.5h-59v-93q0 -23 18.5 -39 t52.5 -22v-41h-391v41q35 6 53.5 22t18.5 39v93h-344q-13 0 -24 -3t-22 -9q0 2 -0.5 6t-0.5 12z" />
<glyph unicode="&#xbd;" horiz-adv-x="2013" d="M100 1214v39q129 11 247 42.5t231 84.5v-641q0 -53 16.5 -69t63.5 -19l110 -8v-43h-655v43l97 2q60 3 82.5 25.5t22.5 93.5v364q0 54 -19.5 70t-109.5 16h-86zM494 -29l794 1424h232l-793 -1424h-233zM1182 0q216 138 337 281t121 258q0 65 -39.5 104t-105.5 39 q-88 0 -142.5 -48.5t-60.5 -133.5l-26 -6l-64 198q97 44 191 66t184 22q152 0 244 -60.5t92 -160.5q0 -85 -66 -166.5t-266 -224.5h217q54 0 85.5 14.5t43.5 44.5l31 -4l-107 -243q-9 10 -23 15t-36 5h-610z" />
<glyph unicode="&#xbe;" horiz-adv-x="2013" d="M33 672l104 192l27 -12q-3 -12 -4.5 -24t-1.5 -23q0 -60 48.5 -96.5t129.5 -36.5q87 0 145 43.5t58 107.5q0 69 -69.5 113.5t-178.5 44.5q-28 0 -54 -2.5t-50 -7.5l317 239h-287q-28 0 -47 -11t-39 -42l-29 4l86 219q10 -8 20 -11t30 -3h450l45 -92l-229 -160 q126 -10 200 -75.5t74 -166.5q0 -125 -113 -206.5t-292 -81.5q-95 0 -178 21.5t-162 66.5zM494 -29l794 1424h232l-793 -1424h-233zM1180 201q0 54 62 142l5 7q87 121 118.5 184t31.5 109q0 21 -8.5 32t-28.5 19q69 48 118.5 90.5t86.5 85.5q17 -24 24.5 -51.5t7.5 -62.5 q0 -136 -205 -373q-52 -59 -79 -92h258v262q90 25 151 76t97 133h18q-9 -41 -13.5 -78t-4.5 -70v-20v-303h59q31 0 51.5 8t34.5 27l27 -2l-49 -166l-23 6q-2 16 -12 23.5t-29 7.5h-59v-93q0 -23 18.5 -39t52.5 -22v-41h-391v41q35 6 53.5 22t18.5 39v93h-344q-13 0 -24 -3 t-22 -9q0 2 -0.5 6t-0.5 12z" />
<glyph unicode="&#xbf;" horiz-adv-x="1233" d="M78 326q0 129 78.5 213.5t337.5 191.5q86 36 124.5 70.5t38.5 75.5q0 4 -0.5 9.5t-2.5 18.5q28 -3 50 -4.5t39 -1.5q57 0 108.5 13t104.5 40q6 -36 8.5 -53.5t2.5 -28.5q0 -101 -203 -242l-11 -8q-141 -99 -194 -166.5t-53 -140.5q0 -83 58.5 -135.5t152.5 -52.5 q144 0 234.5 97.5t90.5 256.5v15l37 6l43 -447q-24 10 -41.5 14.5t-29.5 4.5q-17 0 -79 -23q-215 -78 -413 -78q-221 0 -351 97t-130 258zM547 1182q0 94 62.5 152.5t164.5 58.5t163.5 -58t61.5 -153t-61.5 -153t-163.5 -58t-164.5 58t-62.5 153z" />
<glyph unicode="&#xc0;" horiz-adv-x="1380" d="M-98 0v57q70 14 113 60.5t98 195.5l315 869q6 15 9 30t3 29q0 23 -13 39t-42 29v57h623v-57q-26 -10 -41 -26.5t-15 -35.5q0 -12 2.5 -26t10.5 -40l311 -919q44 -129 77 -165.5t85 -39.5v-57h-699v57q56 10 80.5 37t24.5 78q0 133 -134.5 233t-340.5 113l-80 -225 q-15 -44 -23 -79.5t-8 -59.5q0 -48 27 -72.5t80 -24.5v-57h-463zM358 1839q0 46 32 77t79 31q35 0 69 -19.5t86 -74.5l279 -297h-115l-325 164q-57 29 -81 56t-24 63zM424 668q87 -10 159 -34t134 -65l-150 492z" />
<glyph unicode="&#xc1;" horiz-adv-x="1380" d="M-98 0v57q70 14 113 60.5t98 195.5l315 869q6 15 9 30t3 29q0 23 -13 39t-42 29v57h623v-57q-26 -10 -41 -26.5t-15 -35.5q0 -12 2.5 -26t10.5 -40l311 -919q44 -129 77 -165.5t85 -39.5v-57h-699v57q56 10 80.5 37t24.5 78q0 133 -134.5 233t-340.5 113l-80 -225 q-15 -44 -23 -79.5t-8 -59.5q0 -48 27 -72.5t80 -24.5v-57h-463zM424 668q87 -10 159 -34t134 -65l-150 492zM477 1556l279 297q52 55 86 74.5t69 19.5q47 0 79 -31t32 -77q0 -36 -24 -63t-81 -56l-325 -164h-115z" />
<glyph unicode="&#xc2;" horiz-adv-x="1380" d="M-98 0v57q70 14 113 60.5t98 195.5l315 869q6 15 9 30t3 29q0 23 -13 39t-42 29v57h623v-57q-26 -10 -41 -26.5t-15 -35.5q0 -12 2.5 -26t10.5 -40l311 -919q44 -129 77 -165.5t85 -39.5v-57h-699v57q56 10 80.5 37t24.5 78q0 133 -134.5 233t-340.5 113l-80 -225 q-15 -44 -23 -79.5t-8 -59.5q0 -48 27 -72.5t80 -24.5v-57h-463zM368 1556l230 371h184l230 -371h-101l-221 172l-221 -172h-101zM424 668q87 -10 159 -34t134 -65l-150 492z" />
<glyph unicode="&#xc3;" horiz-adv-x="1380" d="M-98 0v57q70 14 113 60.5t98 195.5l315 869q6 15 9 30t3 29q0 23 -13 39t-42 29v57h623v-57q-26 -10 -41 -26.5t-15 -35.5q0 -12 2.5 -26t10.5 -40l311 -919q44 -129 77 -165.5t85 -39.5v-57h-699v57q56 10 80.5 37t24.5 78q0 133 -134.5 233t-340.5 113l-80 -225 q-15 -44 -23 -79.5t-8 -59.5q0 -48 27 -72.5t80 -24.5v-57h-463zM362 1587q27 135 84 200.5t148 65.5q18 0 36.5 -3t41.5 -9l121 -31q20 -5 29 -6.5t15 -1.5q37 0 58.5 20.5t38.5 71.5h82q-29 -137 -85.5 -200.5t-148.5 -63.5q-16 0 -32.5 2t-30.5 6l-117 33q-24 6 -36.5 8 t-20.5 2q-40 0 -64.5 -23.5t-34.5 -70.5h-84zM424 668q87 -10 159 -34t134 -65l-150 492z" />
<glyph unicode="&#xc4;" horiz-adv-x="1380" d="M-98 0v57q70 14 113 60.5t98 195.5l315 869q6 15 9 30t3 29q0 23 -13 39t-42 29v57h623v-57q-26 -10 -41 -26.5t-15 -35.5q0 -12 2.5 -26t10.5 -40l311 -919q44 -129 77 -165.5t85 -39.5v-57h-699v57q56 10 80.5 37t24.5 78q0 133 -134.5 233t-340.5 113l-80 -225 q-15 -44 -23 -79.5t-8 -59.5q0 -48 27 -72.5t80 -24.5v-57h-463zM350 1745q0 56 44 98.5t101 42.5q60 0 101 -41t41 -100q0 -63 -40 -104.5t-102 -41.5q-59 0 -102 43t-43 103zM424 668q87 -10 159 -34t134 -65l-150 492zM741 1745q0 56 43 98.5t101 42.5q59 0 101 -41.5 t42 -99.5q0 -63 -41 -104.5t-102 -41.5q-60 0 -102 42.5t-42 103.5z" />
<glyph unicode="&#xc5;" horiz-adv-x="1380" d="M-98 0v57q70 14 113 60.5t98 195.5l315 869q6 15 9 30t3 29q0 23 -13 39t-42 29v57h623v-57q-26 -10 -41 -26.5t-15 -35.5q0 -12 2.5 -26t10.5 -40l311 -919q44 -129 77 -165.5t85 -39.5v-57h-699v57q59 13 82 35.5t23 67.5q0 142 -131.5 242.5t-341.5 115.5l-95 -256 q-9 -25 -14.5 -49.5t-5.5 -44.5q0 -51 28.5 -81t75.5 -30h5v-57h-463zM424 668q87 -10 159 -34t134 -65l-150 492zM444 1698q0 111 77 188.5t188 77.5q110 0 188 -78t78 -188q0 -112 -77.5 -189t-188.5 -77t-188 77t-77 189zM588 1698q0 -51 35.5 -87t87.5 -36q50 0 85 36 t35 87q0 50 -35 85.5t-85 35.5q-52 0 -87.5 -35t-35.5 -86z" />
<glyph unicode="&#xc6;" horiz-adv-x="2044" d="M-213 0v55q128 21 272 266q49 84 78 130l428 661q20 30 32.5 67t12.5 64q0 28 -12.5 44.5t-38.5 21.5v57h1118q43 0 72 10t45 31l113 -471l-52 -8q-58 145 -176 222t-284 77q-80 0 -110 -32t-30 -130v-141h115q108 0 145 32.5t48 124.5h41l88 -522l-41 -10 q-41 131 -106 182t-185 51h-105v-450q0 -128 43.5 -161.5t161.5 -33.5q146 0 276.5 106t225.5 302l53 -10l-174 -558q-19 12 -41.5 17.5t-66.5 5.5h-1008v55q62 13 85.5 51t23.5 160v432q-286 -89 -454.5 -239t-168.5 -309q0 -47 21.5 -69.5t68.5 -27.5v-53h-514zM532 743 q67 33 142 61t160 52v375z" />
<glyph unicode="&#xc7;" horiz-adv-x="1464" d="M59 752q0 319 181 481t536 162q80 0 187.5 -10.5t134.5 -10.5q28 0 62.5 8t80.5 25l115 -549l-70 -12q-103 197 -197 276.5t-217 79.5q-165 0 -266.5 -122.5t-101.5 -323.5q0 -259 139.5 -432.5t349.5 -173.5q137 0 237 72.5t163 217.5l53 -14l-156 -446q-29 9 -58 13.5 t-56 4.5q-40 0 -148 -15.5t-176 -15.5q-355 0 -574 218t-219 567zM551 -379l47 103q67 -39 128 -58.5t116 -19.5q35 0 57.5 20.5t22.5 54.5q0 41 -23 61.5t-68 20.5q-15 0 -56 -7q-4 0 -7 -1v203h88v-115q24 4 44 6t34 2q78 0 127 -48t49 -124q0 -84 -60 -136t-157 -52 q-69 0 -143 18.5t-199 71.5z" />
<glyph unicode="&#xc8;" horiz-adv-x="1403" d="M94 0v57q57 10 78 46.5t21 164.5v830q0 128 -21 164.5t-78 46.5v57h942q43 0 72 10t45 31l115 -471l-54 -8q-61 148 -177 223.5t-281 75.5q-82 0 -112 -30.5t-30 -131.5v-141h115q108 0 145 32.5t48 124.5h41l88 -522l-41 -10q-41 131 -106 182t-185 51h-105v-450 q0 -117 37.5 -156t141.5 -39q167 0 296 100t232 308l53 -10l-174 -558q-19 12 -41.5 17.5t-66.5 5.5h-998zM370 1839q0 46 32 77t79 31q35 0 69 -19.5t86 -74.5l279 -297h-115l-325 164q-57 29 -81 56t-24 63z" />
<glyph unicode="&#xc9;" horiz-adv-x="1403" d="M94 0v57q57 10 78 46.5t21 164.5v830q0 128 -21 164.5t-78 46.5v57h942q43 0 72 10t45 31l115 -471l-54 -8q-61 148 -177 223.5t-281 75.5q-82 0 -112 -30.5t-30 -131.5v-141h115q108 0 145 32.5t48 124.5h41l88 -522l-41 -10q-41 131 -106 182t-185 51h-105v-450 q0 -117 37.5 -156t141.5 -39q167 0 296 100t232 308l53 -10l-174 -558q-19 12 -41.5 17.5t-66.5 5.5h-998zM489 1556l279 297q52 55 86 74.5t69 19.5q47 0 79 -31t32 -77q0 -36 -24 -63t-81 -56l-325 -164h-115z" />
<glyph unicode="&#xca;" horiz-adv-x="1403" d="M94 0v57q57 10 78 46.5t21 164.5v830q0 128 -21 164.5t-78 46.5v57h942q43 0 72 10t45 31l115 -471l-54 -8q-61 148 -177 223.5t-281 75.5q-82 0 -112 -30.5t-30 -131.5v-141h115q108 0 145 32.5t48 124.5h41l88 -522l-41 -10q-41 131 -106 182t-185 51h-105v-450 q0 -117 37.5 -156t141.5 -39q167 0 296 100t232 308l53 -10l-174 -558q-19 12 -41.5 17.5t-66.5 5.5h-998zM380 1556l230 371h184l230 -371h-101l-221 172l-221 -172h-101z" />
<glyph unicode="&#xcb;" horiz-adv-x="1403" d="M94 0v57q57 10 78 46.5t21 164.5v830q0 128 -21 164.5t-78 46.5v57h942q43 0 72 10t45 31l115 -471l-54 -8q-61 148 -177 223.5t-281 75.5q-82 0 -112 -30.5t-30 -131.5v-141h115q108 0 145 32.5t48 124.5h41l88 -522l-41 -10q-41 131 -106 182t-185 51h-105v-450 q0 -117 37.5 -156t141.5 -39q167 0 296 100t232 308l53 -10l-174 -558q-19 12 -41.5 17.5t-66.5 5.5h-998zM362 1745q0 56 44 98.5t101 42.5q60 0 101 -41t41 -100q0 -63 -40 -104.5t-102 -41.5q-59 0 -102 43t-43 103zM753 1745q0 56 43 98.5t101 42.5q59 0 101 -41.5 t42 -99.5q0 -63 -41 -104.5t-102 -41.5q-60 0 -102 42.5t-42 103.5z" />
<glyph unicode="&#xcc;" horiz-adv-x="807" d="M71 1839q0 46 32 77t79 31q35 0 69 -19.5t86 -74.5l279 -297h-115l-325 164q-57 29 -81 56t-24 63zM94 0v57q57 10 78 46.5t21 164.5v830q0 128 -21 164.5t-78 46.5v57h619v-57q-57 -10 -78 -46.5t-21 -164.5v-830q0 -128 21 -164.5t78 -46.5v-57h-619z" />
<glyph unicode="&#xcd;" horiz-adv-x="807" d="M94 0v57q57 10 78 46.5t21 164.5v830q0 128 -21 164.5t-78 46.5v57h619v-57q-57 -10 -78 -46.5t-21 -164.5v-830q0 -128 21 -164.5t78 -46.5v-57h-619zM190 1556l279 297q52 55 86 74.5t69 19.5q47 0 79 -31t32 -77q0 -36 -24 -63t-81 -56l-325 -164h-115z" />
<glyph unicode="&#xce;" horiz-adv-x="807" d="M81 1556l230 371h184l230 -371h-101l-221 172l-221 -172h-101zM94 0v57q57 10 78 46.5t21 164.5v830q0 128 -21 164.5t-78 46.5v57h619v-57q-57 -10 -78 -46.5t-21 -164.5v-830q0 -128 21 -164.5t78 -46.5v-57h-619z" />
<glyph unicode="&#xcf;" horiz-adv-x="807" d="M63 1745q0 56 44 98.5t101 42.5q60 0 101 -41t41 -100q0 -63 -40 -104.5t-102 -41.5q-59 0 -102 43t-43 103zM94 0v57q57 10 78 46.5t21 164.5v830q0 128 -21 164.5t-78 46.5v57h619v-57q-57 -10 -78 -46.5t-21 -164.5v-830q0 -128 21 -164.5t78 -46.5v-57h-619z M454 1745q0 56 43 98.5t101 42.5q59 0 101 -41.5t42 -99.5q0 -63 -41 -104.5t-102 -41.5q-60 0 -102 42.5t-42 103.5z" />
<glyph unicode="&#xd0;" horiz-adv-x="1616" d="M10 614v185h191v299q0 128 -21 164.5t-78 46.5v57h639q155 0 279.5 -35t224.5 -106q152 -108 236 -272.5t84 -356.5q0 -135 -50.5 -250t-146.5 -199q-90 -78 -202.5 -112.5t-293.5 -34.5h-770v57q57 10 78 46.5t21 164.5v346h-191zM623 289q0 -100 26 -124t105 -24 q173 0 269.5 124.5t96.5 346.5q0 255 -113.5 430t-269.5 175q-63 0 -88.5 -36t-25.5 -139v-243h247v-185h-247v-295v-30z" />
<glyph unicode="&#xd1;" horiz-adv-x="1485" d="M94 0v57q57 10 78 46.5t21 164.5v830q0 128 -21 164.5t-78 46.5v57h768v-57q-23 -10 -35 -24.5t-12 -31.5q0 -13 10.5 -33.5t26.5 -37.5l264 -293v209q0 128 -20.5 164.5t-77.5 46.5v57h373v-57q-57 -10 -78 -46.5t-21 -164.5v-830q0 -128 21 -164.5t78 -46.5v-57h-402 v57q73 3 100 34.5t27 131.5v47l-749 840v-815q0 -144 27.5 -188t101.5 -50v-57h-402zM415 1587q27 135 84 200.5t148 65.5q18 0 36.5 -3t41.5 -9l121 -31q20 -5 29 -6.5t15 -1.5q37 0 58.5 20.5t38.5 71.5h82q-29 -137 -85.5 -200.5t-148.5 -63.5q-16 0 -32.5 2t-30.5 6 l-117 33q-24 6 -36.5 8t-20.5 2q-40 0 -64.5 -23.5t-34.5 -70.5h-84z" />
<glyph unicode="&#xd2;" horiz-adv-x="1575" d="M51 682q0 304 211.5 508.5t523.5 204.5t524 -204.5t212 -508.5t-211.5 -507.5t-524.5 -203.5q-312 0 -523.5 203.5t-211.5 507.5zM456 1839q0 46 32 77t79 31q35 0 69 -19.5t86 -74.5l279 -297h-115l-325 164q-57 29 -81 56t-24 63zM494 786q0 -290 87.5 -464.5 t231.5 -174.5q126 0 197 114t71 319q0 289 -87.5 464t-229.5 175q-127 0 -198.5 -114.5t-71.5 -318.5z" />
<glyph unicode="&#xd3;" horiz-adv-x="1575" d="M51 682q0 304 211.5 508.5t523.5 204.5t524 -204.5t212 -508.5t-211.5 -507.5t-524.5 -203.5q-312 0 -523.5 203.5t-211.5 507.5zM494 786q0 -290 87.5 -464.5t231.5 -174.5q126 0 197 114t71 319q0 289 -87.5 464t-229.5 175q-127 0 -198.5 -114.5t-71.5 -318.5z M575 1556l279 297q52 55 86 74.5t69 19.5q47 0 79 -31t32 -77q0 -36 -24 -63t-81 -56l-325 -164h-115z" />
<glyph unicode="&#xd4;" horiz-adv-x="1575" d="M51 682q0 304 211.5 508.5t523.5 204.5t524 -204.5t212 -508.5t-211.5 -507.5t-524.5 -203.5q-312 0 -523.5 203.5t-211.5 507.5zM466 1556l230 371h184l230 -371h-101l-221 172l-221 -172h-101zM494 786q0 -290 87.5 -464.5t231.5 -174.5q126 0 197 114t71 319 q0 289 -87.5 464t-229.5 175q-127 0 -198.5 -114.5t-71.5 -318.5z" />
<glyph unicode="&#xd5;" horiz-adv-x="1575" d="M51 682q0 304 211.5 508.5t523.5 204.5t524 -204.5t212 -508.5t-211.5 -507.5t-524.5 -203.5q-312 0 -523.5 203.5t-211.5 507.5zM460 1587q27 135 84 200.5t148 65.5q18 0 36.5 -3t41.5 -9l121 -31q20 -5 29 -6.5t15 -1.5q37 0 58.5 20.5t38.5 71.5h82 q-29 -137 -85.5 -200.5t-148.5 -63.5q-16 0 -32.5 2t-30.5 6l-117 33q-24 6 -36.5 8t-20.5 2q-40 0 -64.5 -23.5t-34.5 -70.5h-84zM494 786q0 -290 87.5 -464.5t231.5 -174.5q126 0 197 114t71 319q0 289 -87.5 464t-229.5 175q-127 0 -198.5 -114.5t-71.5 -318.5z" />
<glyph unicode="&#xd6;" horiz-adv-x="1575" d="M51 682q0 304 211.5 508.5t523.5 204.5t524 -204.5t212 -508.5t-211.5 -507.5t-524.5 -203.5q-312 0 -523.5 203.5t-211.5 507.5zM448 1745q0 56 44 98.5t101 42.5q60 0 101 -41t41 -100q0 -63 -40 -104.5t-102 -41.5q-59 0 -102 43t-43 103zM494 786q0 -290 87.5 -464.5 t231.5 -174.5q126 0 197 114t71 319q0 289 -87.5 464t-229.5 175q-127 0 -198.5 -114.5t-71.5 -318.5zM839 1745q0 56 43 98.5t101 42.5q59 0 101 -41.5t42 -99.5q0 -63 -41 -104.5t-102 -41.5q-60 0 -102 42.5t-42 103.5z" />
<glyph unicode="&#xd7;" horiz-adv-x="1706" d="M256 182l428 428l-428 428l190 193l428 -428l429 428l192 -193l-428 -428l428 -428l-192 -190l-429 428l-428 -428z" />
<glyph unicode="&#xd8;" horiz-adv-x="1575" d="M18 -195l261 359q-118 105 -173 230.5t-55 287.5q0 304 211.5 508.5t523.5 204.5q87 0 169.5 -18.5t166.5 -55.5l156 215h231l-233 -313q122 -104 184 -240.5t62 -300.5q0 -307 -212.5 -509t-535.5 -202q-95 0 -178 21t-164 65l-184 -252h-230zM494 786q0 -67 7.5 -142.5 t22.5 -164.5l443 608q-42 69 -91.5 101.5t-111.5 32.5q-126 0 -198 -115.5t-72 -319.5zM594 301q39 -79 90.5 -117.5t120.5 -38.5q132 0 204 114t72 323q0 95 -10 175.5t-31 151.5z" />
<glyph unicode="&#xd9;" horiz-adv-x="1403" d="M31 1309v57h686v-57q-82 -11 -115 -73t-37 -235l-10 -423q-1 -30 -1.5 -61.5t-0.5 -84.5q0 -147 67 -219t205 -72q147 0 212 84.5t65 278.5q0 34 -0.5 51.5t-1.5 33.5l-19 345q-11 217 -49 290.5t-127 84.5v57h486v-57q-72 -8 -112 -55t-40 -124q0 -28 0.5 -47t1.5 -38 l21 -320q0 -6 1 -20q11 -168 11 -238q0 -252 -147.5 -374t-452.5 -122q-290 0 -416.5 101.5t-126.5 335.5q0 16 2 82q1 46 2 75l21 518v29q0 121 -26.5 157t-98.5 40zM430 1839q0 46 32 77t79 31q35 0 69 -19.5t86 -74.5l279 -297h-115l-325 164q-57 29 -81 56t-24 63z" />
<glyph unicode="&#xda;" horiz-adv-x="1403" d="M31 1309v57h686v-57q-82 -11 -115 -73t-37 -235l-10 -423q-1 -30 -1.5 -61.5t-0.5 -84.5q0 -147 67 -219t205 -72q147 0 212 84.5t65 278.5q0 34 -0.5 51.5t-1.5 33.5l-19 345q-11 217 -49 290.5t-127 84.5v57h486v-57q-72 -8 -112 -55t-40 -124q0 -28 0.5 -47t1.5 -38 l21 -320q0 -6 1 -20q11 -168 11 -238q0 -252 -147.5 -374t-452.5 -122q-290 0 -416.5 101.5t-126.5 335.5q0 16 2 82q1 46 2 75l21 518v29q0 121 -26.5 157t-98.5 40zM549 1556l279 297q52 55 86 74.5t69 19.5q47 0 79 -31t32 -77q0 -36 -24 -63t-81 -56l-325 -164h-115z " />
<glyph unicode="&#xdb;" horiz-adv-x="1403" d="M31 1309v57h686v-57q-82 -11 -115 -73t-37 -235l-10 -423q-1 -30 -1.5 -61.5t-0.5 -84.5q0 -147 67 -219t205 -72q147 0 212 84.5t65 278.5q0 34 -0.5 51.5t-1.5 33.5l-19 345q-11 217 -49 290.5t-127 84.5v57h486v-57q-72 -8 -112 -55t-40 -124q0 -28 0.5 -47t1.5 -38 l21 -320q0 -6 1 -20q11 -168 11 -238q0 -252 -147.5 -374t-452.5 -122q-290 0 -416.5 101.5t-126.5 335.5q0 16 2 82q1 46 2 75l21 518v29q0 121 -26.5 157t-98.5 40zM440 1556l230 371h184l230 -371h-101l-221 172l-221 -172h-101z" />
<glyph unicode="&#xdc;" horiz-adv-x="1403" d="M31 1309v57h686v-57q-82 -11 -115 -73t-37 -235l-10 -423q-1 -30 -1.5 -61.5t-0.5 -84.5q0 -147 67 -219t205 -72q147 0 212 84.5t65 278.5q0 34 -0.5 51.5t-1.5 33.5l-19 345q-11 217 -49 290.5t-127 84.5v57h486v-57q-72 -8 -112 -55t-40 -124q0 -28 0.5 -47t1.5 -38 l21 -320q0 -6 1 -20q11 -168 11 -238q0 -252 -147.5 -374t-452.5 -122q-290 0 -416.5 101.5t-126.5 335.5q0 16 2 82q1 46 2 75l21 518v29q0 121 -26.5 157t-98.5 40zM422 1745q0 56 44 98.5t101 42.5q60 0 101 -41t41 -100q0 -63 -40 -104.5t-102 -41.5q-59 0 -102 43 t-43 103zM813 1745q0 56 43 98.5t101 42.5q59 0 101 -41.5t42 -99.5q0 -63 -41 -104.5t-102 -41.5q-60 0 -102 42.5t-42 103.5z" />
<glyph unicode="&#xdd;" horiz-adv-x="1171" d="M-104 1309v57h725l-1 -57q-46 -3 -70 -24.5t-24 -61.5q0 -22 11 -52t32 -65l148 -248l127 219q32 56 46.5 93t14.5 61q0 36 -21 54.5t-67 23.5v57h463v-57q-63 -22 -114 -69.5t-111 -143.5l-273 -437v-364q0 -144 28 -188t101 -50v-57h-678l1 57q72 6 99 48.5t27 189.5 v362l-294 510q-42 74 -79.5 103.5t-90.5 38.5zM373 1556l279 297q52 55 86 74.5t69 19.5q47 0 79 -31t32 -77q0 -36 -24 -63t-81 -56l-325 -164h-115z" />
<glyph unicode="&#xde;" horiz-adv-x="1354" d="M70 0v57q56 10 77 46.5t21 164.5v830q0 128 -21 164.5t-77 46.5v57h618v-57q-57 -10 -77.5 -46.5t-20.5 -164.5v-23h332q230 0 323.5 -53.5t93.5 -177.5q0 -170 -181 -295.5t-568 -222.5v-31q0 -155 31 -193.5t116 -44.5v-57h-667zM590 489q187 75 258.5 142.5 t71.5 163.5q0 69 -47.5 104t-141.5 35q-82 0 -111.5 -22.5t-29.5 -102.5v-320z" />
<glyph unicode="&#xdf;" horiz-adv-x="1366" d="M-225 -193l35 197l42 -6q5 -35 31 -52.5t74 -17.5q105 0 162 89t57 253v467q-2 1 -6 1q-26 3 -37 3q-31 0 -53.5 -11t-42.5 -38l-53 8l106 187q16 -10 32.5 -15.5t31.5 -5.5h6l22 2v93q0 215 147.5 348t387.5 133q184 0 286.5 -70.5t102.5 -197.5q0 -88 -52 -150 t-190 -133q270 -96 362.5 -189t92.5 -249q0 -215 -149 -348.5t-394 -133.5q-61 0 -112 8.5t-99 26.5l64 270l45 -8q-1 -8 -1.5 -16.5t-0.5 -20.5q0 -47 28 -73.5t78 -26.5q73 0 119.5 58t46.5 151q0 82 -40 157t-116 134q-29 23 -82 58q-116 76 -116 157t89 129q7 4 11 6 q54 29 79.5 68t25.5 92q0 57 -31 89t-86 32q-68 0 -95.5 -57.5t-27.5 -266.5v-59v-502q0 -327 -133 -464.5t-445 -137.5q-48 0 -97.5 8t-104.5 24z" />
<glyph unicode="&#xe0;" horiz-adv-x="1223" d="M20 244q0 170 161 279.5t501 168.5v62q0 77 -41.5 114t-128.5 37q-124 0 -216 -69t-130 -191h-49l39 367q5 -2 15 -5q55 -18 73 -18q14 0 144 32t249 32q95 0 177.5 -15.5t131.5 -42.5q68 -36 95.5 -91t27.5 -185v-445q0 -113 29.5 -155.5t105.5 -67.5v-51h-444 q-20 23 -33.5 54t-22.5 77q-57 -81 -147 -120.5t-215 -39.5q-150 0 -236 73.5t-86 199.5zM280 1448q0 46 32 77t79 31q35 0 69 -19.5t86 -74.5l279 -297h-115l-325 164q-57 29 -81 56t-24 63zM403 301q0 -50 28.5 -81.5t72.5 -31.5q85 0 131.5 77t46.5 220v78 q-143 -39 -211 -102.5t-68 -159.5z" />
<glyph unicode="&#xe1;" horiz-adv-x="1223" d="M20 244q0 170 161 279.5t501 168.5v62q0 77 -41.5 114t-128.5 37q-124 0 -216 -69t-130 -191h-49l39 367q5 -2 15 -5q55 -18 73 -18q14 0 144 32t249 32q95 0 177.5 -15.5t131.5 -42.5q68 -36 95.5 -91t27.5 -185v-445q0 -113 29.5 -155.5t105.5 -67.5v-51h-444 q-20 23 -33.5 54t-22.5 77q-57 -81 -147 -120.5t-215 -39.5q-150 0 -236 73.5t-86 199.5zM399 1165l279 297q52 55 86 74.5t69 19.5q47 0 79 -31t32 -77q0 -36 -24 -63t-81 -56l-325 -164h-115zM403 301q0 -50 28.5 -81.5t72.5 -31.5q85 0 131.5 77t46.5 220v78 q-143 -39 -211 -102.5t-68 -159.5z" />
<glyph unicode="&#xe2;" horiz-adv-x="1223" d="M20 244q0 170 161 279.5t501 168.5v62q0 77 -41.5 114t-128.5 37q-124 0 -216 -69t-130 -191h-49l39 367q5 -2 15 -5q55 -18 73 -18q14 0 144 32t249 32q95 0 177.5 -15.5t131.5 -42.5q68 -36 95.5 -91t27.5 -185v-445q0 -113 29.5 -155.5t105.5 -67.5v-51h-444 q-20 23 -33.5 54t-22.5 77q-57 -81 -147 -120.5t-215 -39.5q-150 0 -236 73.5t-86 199.5zM290 1165l230 371h184l230 -371h-101l-221 172l-221 -172h-101zM403 301q0 -50 28.5 -81.5t72.5 -31.5q85 0 131.5 77t46.5 220v78q-143 -39 -211 -102.5t-68 -159.5z" />
<glyph unicode="&#xe3;" horiz-adv-x="1223" d="M20 244q0 170 161 279.5t501 168.5v62q0 77 -41.5 114t-128.5 37q-124 0 -216 -69t-130 -191h-49l39 367q5 -2 15 -5q55 -18 73 -18q14 0 144 32t249 32q95 0 177.5 -15.5t131.5 -42.5q68 -36 95.5 -91t27.5 -185v-445q0 -113 29.5 -155.5t105.5 -67.5v-51h-444 q-20 23 -33.5 54t-22.5 77q-57 -81 -147 -120.5t-215 -39.5q-150 0 -236 73.5t-86 199.5zM284 1196q27 135 84 200.5t148 65.5q18 0 36.5 -3t41.5 -9l121 -31q20 -5 29 -6.5t15 -1.5q37 0 58.5 20.5t38.5 71.5h82q-29 -137 -85.5 -200.5t-148.5 -63.5q-16 0 -32.5 2t-30.5 6 l-117 33q-24 6 -36.5 8t-20.5 2q-40 0 -64.5 -23.5t-34.5 -70.5h-84zM403 301q0 -50 28.5 -81.5t72.5 -31.5q85 0 131.5 77t46.5 220v78q-143 -39 -211 -102.5t-68 -159.5z" />
<glyph unicode="&#xe4;" horiz-adv-x="1223" d="M20 244q0 170 161 279.5t501 168.5v62q0 77 -41.5 114t-128.5 37q-124 0 -216 -69t-130 -191h-49l39 367q5 -2 15 -5q55 -18 73 -18q14 0 144 32t249 32q95 0 177.5 -15.5t131.5 -42.5q68 -36 95.5 -91t27.5 -185v-445q0 -113 29.5 -155.5t105.5 -67.5v-51h-444 q-20 23 -33.5 54t-22.5 77q-57 -81 -147 -120.5t-215 -39.5q-150 0 -236 73.5t-86 199.5zM272 1354q0 56 44 98.5t101 42.5q60 0 101 -41t41 -100q0 -63 -40 -104.5t-102 -41.5q-59 0 -102 43t-43 103zM403 301q0 -50 28.5 -81.5t72.5 -31.5q85 0 131.5 77t46.5 220v78 q-143 -39 -211 -102.5t-68 -159.5zM663 1354q0 56 43 98.5t101 42.5q59 0 101 -41.5t42 -99.5q0 -63 -41 -104.5t-102 -41.5q-60 0 -102 42.5t-42 103.5z" />
<glyph unicode="&#xe5;" horiz-adv-x="1223" d="M20 244q0 170 161 279.5t501 168.5v62q0 77 -41.5 114t-128.5 37q-124 0 -216 -69t-130 -191h-49l39 367q35 -13 55.5 -18t34.5 -5q7 0 134 32t251 32q248 0 343 -70t95 -264v-445q0 -113 29.5 -155.5t105.5 -67.5v-51h-444q-20 23 -33.5 54t-22.5 77 q-57 -81 -147 -120.5t-215 -39.5q-150 0 -236 73.5t-86 199.5zM334 1384q0 111 77.5 189t188.5 78t188.5 -78t77.5 -189t-77.5 -188.5t-188.5 -77.5t-188.5 77.5t-77.5 188.5zM403 301q0 -50 28.5 -81.5t72.5 -31.5q86 0 132 76.5t46 220.5v78q-143 -39 -211 -102.5 t-68 -159.5zM479 1384q0 -51 34.5 -85.5t86.5 -34.5q51 0 86 35t35 85q0 51 -35.5 87t-85.5 36q-51 0 -86 -35.5t-35 -87.5z" />
<glyph unicode="&#xe6;" horiz-adv-x="1839" d="M20 244q0 170 161 279.5t501 168.5v62q0 77 -41.5 114t-128.5 37q-124 0 -216 -69t-130 -191h-49l39 367q5 -2 14 -5q56 -18 76 -18q12 0 134.5 32t233.5 32q105 0 181 -19.5t149 -62.5q81 42 159.5 62t162.5 20q196 0 322 -95.5t204 -302.5l-725 -172 q26 -158 117.5 -247t230.5 -89q112 0 192.5 63t133.5 191l55 -10l-121 -403q-22 1 -42 1.5t-38 0.5q-31 0 -120.5 -10.5t-149.5 -10.5q-178 0 -307.5 51.5t-265.5 176.5q-76 -120 -172 -174t-236 -54q-151 0 -237.5 74t-86.5 201zM403 301q0 -50 28.5 -81.5t72.5 -31.5 q86 0 132 76.5t46 220.5v78q-143 -39 -211 -102.5t-68 -159.5zM1053 684q0 -11 2 -50q1 -15 2 -24l336 82q-17 100 -59.5 152.5t-106.5 52.5q-73 0 -123.5 -60.5t-50.5 -152.5z" />
<glyph unicode="&#xe7;" horiz-adv-x="1139" d="M47 543q0 224 141.5 365t370.5 141q42 0 126 -8.5t126 -8.5q28 0 60 5t73 16l90 -375l-53 -6q-30 107 -96.5 165t-157.5 58q-124 0 -197 -96.5t-73 -261.5q0 -181 89 -287.5t238 -106.5q97 0 169 53t118 158l53 -14l-131 -358q-29 3 -45.5 4.5t-23.5 1.5 q-12 0 -89.5 -8.5t-144.5 -8.5q-137 0 -231 25t-166 80q-115 84 -180.5 209t-65.5 258zM350 -379l47 103q67 -39 128 -58.5t116 -19.5q35 0 57.5 20.5t22.5 54.5q0 41 -23 61.5t-68 20.5q-15 0 -56 -7q-4 0 -7 -1v203h88v-115q24 4 44 6t34 2q78 0 127 -48t49 -124 q0 -84 -60 -136t-157 -52q-69 0 -143 18.5t-199 71.5z" />
<glyph unicode="&#xe8;" horiz-adv-x="1241" d="M45 530q0 225 172.5 374t441.5 149q204 0 331 -94t206 -304l-725 -172q26 -158 117.5 -247t230.5 -89q112 0 192.5 63t133.5 191l55 -10l-121 -403q-22 1 -42 1.5t-38 0.5q-31 0 -120.5 -10.5t-149.5 -10.5q-301 0 -492.5 159t-191.5 402zM289 1448q0 46 32 77t79 31 q35 0 69 -19.5t86 -74.5l279 -297h-115l-325 164q-57 29 -81 56t-24 63zM457 684q0 -11 2 -50q1 -15 2 -24l336 82q-17 100 -59.5 152.5t-106.5 52.5q-73 0 -123.5 -60.5t-50.5 -152.5z" />
<glyph unicode="&#xe9;" horiz-adv-x="1241" d="M45 530q0 225 172.5 374t441.5 149q204 0 331 -94t206 -304l-725 -172q26 -158 117.5 -247t230.5 -89q112 0 192.5 63t133.5 191l55 -10l-121 -403q-22 1 -42 1.5t-38 0.5q-31 0 -120.5 -10.5t-149.5 -10.5q-301 0 -492.5 159t-191.5 402zM408 1165l279 297 q52 55 86 74.5t69 19.5q47 0 79 -31t32 -77q0 -36 -24 -63t-81 -56l-325 -164h-115zM457 684q0 -11 2 -50q1 -15 2 -24l336 82q-17 100 -59.5 152.5t-106.5 52.5q-73 0 -123.5 -60.5t-50.5 -152.5z" />
<glyph unicode="&#xea;" horiz-adv-x="1241" d="M45 530q0 225 172.5 374t441.5 149q204 0 331 -94t206 -304l-725 -172q26 -158 117.5 -247t230.5 -89q112 0 192.5 63t133.5 191l55 -10l-121 -403q-22 1 -42 1.5t-38 0.5q-31 0 -120.5 -10.5t-149.5 -10.5q-301 0 -492.5 159t-191.5 402zM299 1165l230 371h184l230 -371 h-101l-221 172l-221 -172h-101zM457 684q0 -11 2 -50q1 -15 2 -24l336 82q-17 100 -59.5 152.5t-106.5 52.5q-73 0 -123.5 -60.5t-50.5 -152.5z" />
<glyph unicode="&#xeb;" horiz-adv-x="1241" d="M45 530q0 225 172.5 374t441.5 149q204 0 331 -94t206 -304l-725 -172q26 -158 117.5 -247t230.5 -89q112 0 192.5 63t133.5 191l55 -10l-121 -403q-22 1 -42 1.5t-38 0.5q-31 0 -120.5 -10.5t-149.5 -10.5q-301 0 -492.5 159t-191.5 402zM281 1354q0 56 44 98.5 t101 42.5q60 0 101 -41t41 -100q0 -63 -40 -104.5t-102 -41.5q-59 0 -102 43t-43 103zM457 684q0 -11 2 -50q1 -15 2 -24l336 82q-17 100 -59.5 152.5t-106.5 52.5q-73 0 -123.5 -60.5t-50.5 -152.5zM672 1354q0 56 43 98.5t101 42.5q59 0 101 -41.5t42 -99.5 q0 -63 -41 -104.5t-102 -41.5q-60 0 -102 42.5t-42 103.5z" />
<glyph unicode="&#xec;" horiz-adv-x="692" d="M14 1448q0 46 32 77t79 31q35 0 69 -19.5t86 -74.5l279 -297h-115l-325 164q-57 29 -81 56t-24 63zM66 0v51q55 6 77.5 37t22.5 131v496q0 126 -17.5 156.5t-64.5 36.5v53l461 63v-735q0 -139 24.5 -181.5t89.5 -56.5v-51h-593z" />
<glyph unicode="&#xed;" horiz-adv-x="692" d="M66 0v51q55 6 77.5 37t22.5 131v496q0 126 -17.5 156.5t-64.5 36.5v53l461 63v-735q0 -139 24.5 -181.5t89.5 -56.5v-51h-593zM133 1165l279 297q52 55 86 74.5t69 19.5q47 0 79 -31t32 -77q0 -36 -24 -63t-81 -56l-325 -164h-115z" />
<glyph unicode="&#xee;" horiz-adv-x="692" d="M24 1165l230 371h184l230 -371h-101l-221 172l-221 -172h-101zM66 0v51q55 6 77.5 37t22.5 131v496q0 126 -17.5 156.5t-64.5 36.5v53l461 63v-735q0 -139 24.5 -181.5t89.5 -56.5v-51h-593z" />
<glyph unicode="&#xef;" horiz-adv-x="692" d="M6 1354q0 56 44 98.5t101 42.5q60 0 101 -41t41 -100q0 -63 -40 -104.5t-102 -41.5q-59 0 -102 43t-43 103zM66 0v51q55 6 77.5 37t22.5 131v496q0 126 -17.5 156.5t-64.5 36.5v53l461 63v-735q0 -139 24.5 -181.5t89.5 -56.5v-51h-593zM397 1354q0 56 43 98.5t101 42.5 q59 0 101 -41.5t42 -99.5q0 -63 -41 -104.5t-102 -41.5q-60 0 -102 42.5t-42 103.5z" />
<glyph unicode="&#xf0;" horiz-adv-x="1337" d="M47 479q0 223 163 366.5t411 143.5q21 0 43 -1.5t44 -3.5q-33 46 -72.5 87.5t-86.5 79.5l-305 -111l-41 105l250 92q-61 52 -118 95.5t-114 80.5l228 45q64 -31 123.5 -63.5t119.5 -69.5l322 119l43 -107l-250 -90q252 -179 367.5 -363.5t115.5 -404.5q0 -234 -167 -372 t-455 -138q-287 0 -454 138t-167 372zM463 537q0 -200 56.5 -309t158.5 -109q91 0 142.5 82t51.5 227q0 195 -57.5 303.5t-159.5 108.5q-87 0 -139.5 -82t-52.5 -221z" />
<glyph unicode="&#xf1;" horiz-adv-x="1356" d="M45 995l440 29q18 -36 29.5 -82t17.5 -104q91 104 187.5 152t216.5 48q150 0 210 -74.5t60 -275.5v-424q0 -122 24 -162.5t89 -50.5v-51h-610v51q66 10 92 50.5t26 142.5v391q0 103 -23.5 144.5t-80.5 41.5q-92 0 -141.5 -88.5t-49.5 -255.5v-188q0 -137 24.5 -180.5 t90.5 -57.5v-51h-592v51q56 4 77.5 37.5t21.5 130.5v551q0 97 -23.5 132t-84.5 42zM350 1196q27 135 84 200.5t148 65.5q18 0 36.5 -3t41.5 -9l121 -31q20 -5 29 -6.5t15 -1.5q37 0 58.5 20.5t38.5 71.5h82q-29 -137 -85.5 -200.5t-148.5 -63.5q-16 0 -32.5 2t-30.5 6 l-117 33q-24 6 -36.5 8t-20.5 2q-40 0 -64.5 -23.5t-34.5 -70.5h-84z" />
<glyph unicode="&#xf2;" horiz-adv-x="1337" d="M47 512q0 250 166 395.5t455 145.5q288 0 455 -145.5t167 -395.5t-166.5 -395.5t-455.5 -145.5t-455 145.5t-166 395.5zM338 1448q0 46 32 77t79 31q35 0 69 -19.5t86 -74.5l279 -297h-115l-325 164q-57 29 -81 56t-24 63zM463 573q0 -217 56.5 -330.5t164.5 -113.5 q86 0 137 88t51 240q0 209 -57 323.5t-160 114.5q-87 0 -139.5 -87t-52.5 -235z" />
<glyph unicode="&#xf3;" horiz-adv-x="1337" d="M47 512q0 250 166 395.5t455 145.5q288 0 455 -145.5t167 -395.5t-166.5 -395.5t-455.5 -145.5t-455 145.5t-166 395.5zM457 1165l279 297q52 55 86 74.5t69 19.5q47 0 79 -31t32 -77q0 -36 -24 -63t-81 -56l-325 -164h-115zM463 573q0 -217 56.5 -330.5t164.5 -113.5 q86 0 137 88t51 240q0 209 -57 323.5t-160 114.5q-87 0 -139.5 -87t-52.5 -235z" />
<glyph unicode="&#xf4;" horiz-adv-x="1337" d="M47 512q0 250 166 395.5t455 145.5q288 0 455 -145.5t167 -395.5t-166.5 -395.5t-455.5 -145.5t-455 145.5t-166 395.5zM348 1165l230 371h184l230 -371h-101l-221 172l-221 -172h-101zM463 573q0 -217 56.5 -330.5t164.5 -113.5q86 0 137 88t51 240q0 209 -57 323.5 t-160 114.5q-87 0 -139.5 -87t-52.5 -235z" />
<glyph unicode="&#xf5;" horiz-adv-x="1337" d="M47 512q0 250 166 395.5t455 145.5q288 0 455 -145.5t167 -395.5t-166.5 -395.5t-455.5 -145.5t-455 145.5t-166 395.5zM342 1196q27 135 84 200.5t148 65.5q18 0 36.5 -3t41.5 -9l121 -31q20 -5 29 -6.5t15 -1.5q37 0 58.5 20.5t38.5 71.5h82q-29 -137 -85.5 -200.5 t-148.5 -63.5q-16 0 -32.5 2t-30.5 6l-117 33q-24 6 -36.5 8t-20.5 2q-40 0 -64.5 -23.5t-34.5 -70.5h-84zM463 573q0 -217 56.5 -330.5t164.5 -113.5q86 0 137 88t51 240q0 209 -57 323.5t-160 114.5q-87 0 -139.5 -87t-52.5 -235z" />
<glyph unicode="&#xf6;" horiz-adv-x="1337" d="M47 512q0 250 166 395.5t455 145.5q288 0 455 -145.5t167 -395.5t-166.5 -395.5t-455.5 -145.5t-455 145.5t-166 395.5zM330 1354q0 56 44 98.5t101 42.5q60 0 101 -41t41 -100q0 -63 -40 -104.5t-102 -41.5q-59 0 -102 43t-43 103zM463 573q0 -217 56.5 -330.5 t164.5 -113.5q86 0 137 88t51 240q0 209 -57 323.5t-160 114.5q-87 0 -139.5 -87t-52.5 -235zM721 1354q0 56 43 98.5t101 42.5q59 0 101 -41.5t42 -99.5q0 -63 -41 -104.5t-102 -41.5q-60 0 -102 42.5t-42 103.5z" />
<glyph unicode="&#xf7;" horiz-adv-x="1706" d="M254 475v273h1198v-273h-1198zM670 188q0 77 53.5 130t130.5 53q74 0 128 -54t54 -129q0 -74 -54 -128t-130 -54t-129 53t-53 129zM670 1032q0 77 54 131t130 54q74 0 128 -55t54 -130q0 -74 -54 -128t-130 -54t-129 53t-53 129z" />
<glyph unicode="&#xf8;" horiz-adv-x="1337" d="M33 -199l217 285q-102 78 -152.5 184t-50.5 242q0 250 166 395.5t455 145.5q71 0 140.5 -10.5t137.5 -30.5l129 174h223l-194 -260q93 -76 139.5 -180t46.5 -234q0 -250 -166.5 -395.5t-455.5 -145.5q-82 0 -142.5 8.5t-115.5 26.5l-156 -205h-221zM463 567q0 -40 3 -86 t9 -96l320 432q-35 41 -68 59.5t-72 18.5q-87 0 -139.5 -88t-52.5 -240zM555 195q28 -35 57.5 -50.5t65.5 -15.5q92 0 143 88t51 250q0 36 -7 128q0 8 -1 13z" />
<glyph unicode="&#xf9;" horiz-adv-x="1356" d="M41 944v51l487 29v-664q0 -94 25 -136t80 -42q93 0 141.5 87t48.5 253v248q0 98 -24 132t-86 42v51l489 29v-795q0 -98 24 -131t85 -41v-57h-451q-17 35 -26 74t-11 87q-92 -98 -189.5 -144t-213.5 -46q-148 0 -209 75.5t-61 275.5v448q0 99 -24 133t-85 41zM346 1448 q0 46 32 77t79 31q35 0 69 -19.5t86 -74.5l279 -297h-115l-325 164q-57 29 -81 56t-24 63z" />
<glyph unicode="&#xfa;" horiz-adv-x="1356" d="M41 944v51l487 29v-664q0 -94 25 -136t80 -42q93 0 141.5 87t48.5 253v248q0 98 -24 132t-86 42v51l489 29v-795q0 -98 24 -131t85 -41v-57h-451q-17 35 -26 74t-11 87q-92 -98 -189.5 -144t-213.5 -46q-148 0 -209 75.5t-61 275.5v448q0 99 -24 133t-85 41zM465 1165 l279 297q52 55 86 74.5t69 19.5q47 0 79 -31t32 -77q0 -36 -24 -63t-81 -56l-325 -164h-115z" />
<glyph unicode="&#xfb;" horiz-adv-x="1356" d="M41 944v51l487 29v-664q0 -94 25 -136t80 -42q93 0 141.5 87t48.5 253v248q0 98 -24 132t-86 42v51l489 29v-795q0 -98 24 -131t85 -41v-57h-451q-17 35 -26 74t-11 87q-92 -98 -189.5 -144t-213.5 -46q-148 0 -209 75.5t-61 275.5v448q0 99 -24 133t-85 41zM356 1165 l230 371h184l230 -371h-101l-221 172l-221 -172h-101z" />
<glyph unicode="&#xfc;" horiz-adv-x="1356" d="M41 944v51l487 29v-664q0 -94 25 -136t80 -42q93 0 141.5 87t48.5 253v248q0 98 -24 132t-86 42v51l489 29v-795q0 -98 24 -131t85 -41v-57h-451q-17 35 -26 74t-11 87q-92 -98 -189.5 -144t-213.5 -46q-148 0 -209 75.5t-61 275.5v448q0 99 -24 133t-85 41zM338 1354 q0 56 44 98.5t101 42.5q60 0 101 -41t41 -100q0 -63 -40 -104.5t-102 -41.5q-59 0 -102 43t-43 103zM729 1354q0 56 43 98.5t101 42.5q59 0 101 -41.5t42 -99.5q0 -63 -41 -104.5t-102 -41.5q-60 0 -102 42.5t-42 103.5z" />
<glyph unicode="&#xfd;" horiz-adv-x="1038" d="M-45 977v47h569v-47q-31 -8 -45 -25.5t-14 -48.5q0 -19 11 -55.5t34 -93.5l129 -324l125 373q9 26 14.5 43.5t5.5 19.5q0 7 1 17.5t1 15.5q0 27 -16.5 44t-54.5 34v47h387v-47q-59 -18 -96 -58.5t-78 -144.5l-367 -905q-71 -177 -155 -250.5t-209 -73.5q-61 0 -117 20.5 t-119 65.5l115 293l57 -18q-4 -18 -6 -34t-2 -30q0 -54 28 -85t76 -31q72 0 121 67t49 168q0 50 -16 113t-55 159l-219 543q-39 97 -72.5 139t-81.5 62zM307 1165l279 297q52 55 86 74.5t69 19.5q47 0 79 -31t32 -77q0 -36 -24 -63t-81 -56l-325 -164h-115z" />
<glyph unicode="&#xfe;" horiz-adv-x="1360" d="M57 -422l1 51q40 2 68 32t28 69v67v1340q0 126 -17.5 156.5t-64.5 35.5v53l460 64v-422h154q303 0 464 -139t161 -400q0 -236 -143 -365.5t-404 -129.5q-43 0 -94 4t-138 14v-143q0 -144 28.5 -186t107.5 -50v-51h-611zM532 346q0 -126 29.5 -168.5t100.5 -42.5 q103 0 167 100t64 267q0 184 -75 280.5t-218 96.5q-10 0 -44 -3q-15 -1 -24 -2v-528z" />
<glyph unicode="&#xff;" horiz-adv-x="1038" d="M-45 977v47h569v-47q-31 -8 -45 -25.5t-14 -48.5q0 -19 11 -55.5t34 -93.5l129 -324l125 373q9 26 14.5 43.5t5.5 19.5q0 7 1 17.5t1 15.5q0 27 -16.5 44t-54.5 34v47h387v-47q-59 -18 -96 -58.5t-78 -144.5l-367 -905q-71 -177 -155 -250.5t-209 -73.5q-61 0 -117 20.5 t-119 65.5l115 293l57 -18q-4 -18 -6 -34t-2 -30q0 -54 28 -85t76 -31q72 0 121 67t49 168q0 50 -16 113t-55 159l-219 543q-39 97 -72.5 139t-81.5 62zM180 1354q0 56 44 98.5t101 42.5q60 0 101 -41t41 -100q0 -63 -40 -104.5t-102 -41.5q-59 0 -102 43t-43 103zM571 1354 q0 56 43 98.5t101 42.5q59 0 101 -41.5t42 -99.5q0 -63 -41 -104.5t-102 -41.5q-60 0 -102 42.5t-42 103.5z" />
<glyph unicode="&#x152;" horiz-adv-x="2288" d="M51 682q0 151 55.5 281.5t163.5 232.5q107 100 234 144t311 44q53 0 167.5 -9t176.5 -9h762q43 0 71.5 10t45.5 31l112 -471l-53 -8q-59 146 -176 222.5t-283 76.5q-80 0 -110.5 -32t-30.5 -130v-141h115q109 0 146 32.5t48 124.5h41l88 -522l-41 -10q-41 131 -105.5 182 t-184.5 51h-107v-450q0 -124 41 -161.5t148 -37.5q154 0 289 107t231 305l53 -10l-176 -558q-20 13 -41.5 18t-65.5 5h-817q-62 0 -176.5 -9t-167.5 -9q-162 0 -277 33t-212 108q-135 104 -205 246t-70 313zM494 784q0 -286 88.5 -461.5t230.5 -175.5q127 0 197.5 113.5 t70.5 319.5q0 288 -87.5 463.5t-229.5 175.5q-127 0 -198.5 -114.5t-71.5 -320.5z" />
<glyph unicode="&#x153;" horiz-adv-x="2062" d="M47 512q0 250 166.5 395.5t454.5 145.5q129 0 229.5 -28t189.5 -89q85 61 177.5 89t210.5 28q206 0 332.5 -93t207.5 -305l-725 -172q26 -158 118 -247t230 -89q112 0 193 63t133 191l55 -10l-121 -403q-22 1 -42 1.5t-37 0.5q-28 0 -118 -9.5t-155 -9.5 q-153 0 -257.5 30.5t-190.5 98.5q-83 -64 -190.5 -96.5t-239.5 -32.5q-289 0 -455 145.5t-166 395.5zM463 573q0 -217 56.5 -330.5t164.5 -113.5q86 0 137 88t51 240q0 209 -57 323.5t-160 114.5q-87 0 -139.5 -87t-52.5 -235zM1278 684q0 -23 0.5 -40t1.5 -34l338 82 q-16 99 -59.5 151t-108.5 52q-73 0 -122.5 -59.5t-49.5 -151.5z" />
<glyph unicode="&#x178;" horiz-adv-x="1171" d="M-104 1309v57h725l-1 -57q-46 -3 -70 -24.5t-24 -61.5q0 -22 11 -52t32 -65l148 -248l127 219q32 56 46.5 93t14.5 61q0 36 -21 54.5t-67 23.5v57h463v-57q-63 -22 -114 -69.5t-111 -143.5l-273 -437v-364q0 -144 28 -188t101 -50v-57h-678l1 57q72 6 99 48.5t27 189.5 v362l-294 510q-42 74 -79.5 103.5t-90.5 38.5zM246 1745q0 56 44 98.5t101 42.5q60 0 101 -41t41 -100q0 -63 -40 -104.5t-102 -41.5q-59 0 -102 43t-43 103zM637 1745q0 56 43 98.5t101 42.5q59 0 101 -41.5t42 -99.5q0 -63 -41 -104.5t-102 -41.5q-60 0 -102 42.5 t-42 103.5z" />
<glyph unicode="&#x2c6;" d="M190 1165l230 371h184l230 -371h-101l-221 172l-221 -172h-101z" />
<glyph unicode="&#x2dc;" d="M184 1196q27 135 84 200.5t148 65.5q18 0 36.5 -3t41.5 -9l121 -31q20 -5 29 -6.5t15 -1.5q37 0 58.5 20.5t38.5 71.5h82q-29 -137 -85.5 -200.5t-148.5 -63.5q-16 0 -32.5 2t-30.5 6l-117 33q-24 6 -36.5 8t-20.5 2q-40 0 -64.5 -23.5t-34.5 -70.5h-84z" />
<glyph unicode="&#x2000;" horiz-adv-x="982" />
<glyph unicode="&#x2001;" horiz-adv-x="1964" />
<glyph unicode="&#x2002;" horiz-adv-x="982" />
<glyph unicode="&#x2003;" horiz-adv-x="1964" />
<glyph unicode="&#x2004;" horiz-adv-x="654" />
<glyph unicode="&#x2005;" horiz-adv-x="491" />
<glyph unicode="&#x2006;" horiz-adv-x="327" />
<glyph unicode="&#x2007;" horiz-adv-x="327" />
<glyph unicode="&#x2008;" horiz-adv-x="245" />
<glyph unicode="&#x2009;" horiz-adv-x="392" />
<glyph unicode="&#x200a;" horiz-adv-x="109" />
<glyph unicode="&#x2010;" horiz-adv-x="797" d="M41 375l152 287l28 -31h404q30 0 57.5 10t51.5 28l22 -20l-152 -287l-29 31h-403q-30 0 -57 -9.5t-52 -28.5z" />
<glyph unicode="&#x2011;" horiz-adv-x="797" d="M41 375l152 287l28 -31h404q30 0 57.5 10t51.5 28l22 -20l-152 -287l-29 31h-403q-30 0 -57 -9.5t-52 -28.5z" />
<glyph unicode="&#x2012;" horiz-adv-x="797" d="M41 375l152 287l28 -31h404q30 0 57.5 10t51.5 28l22 -20l-152 -287l-29 31h-403q-30 0 -57 -9.5t-52 -28.5z" />
<glyph unicode="&#x2013;" d="M0 408v227h1024v-227h-1024z" />
<glyph unicode="&#x2014;" horiz-adv-x="2048" d="M0 408v227h2048v-227h-2048z" />
<glyph unicode="&#x2018;" horiz-adv-x="674" d="M84 1366h348q-3 -12 -4.5 -24t-1.5 -29q0 -14 3 -28t9 -28l152 -352h-287z" />
<glyph unicode="&#x2019;" horiz-adv-x="674" d="M84 905l152 352q6 14 9 28t3 28q0 11 -2 24.5t-6 28.5h350l-219 -461h-287z" />
<glyph unicode="&#x201a;" horiz-adv-x="674" d="M84 -221l152 352q6 14 9 28t3 27q0 12 -2 25.5t-6 28.5h350l-219 -461h-287z" />
<glyph unicode="&#x201c;" horiz-adv-x="1118" d="M66 1366h348q-4 -15 -6 -28.5t-2 -24.5q0 -14 3 -28t9 -28l151 -352h-284zM549 1366h348q-4 -15 -6 -28.5t-2 -24.5q0 -12 3.5 -25.5t10.5 -29.5l152 -353h-287z" />
<glyph unicode="&#x201d;" horiz-adv-x="1118" d="M66 905l151 352q6 14 9 28t3 28q0 11 -2 24.5t-6 28.5h348l-219 -461h-284zM549 905l151 352q7 14 10 28t3 28q0 11 -2.5 24.5t-5.5 28.5h350l-221 -461h-285z" />
<glyph unicode="&#x201e;" horiz-adv-x="1118" d="M66 -221l151 352q6 14 9 28t3 27q0 12 -2 25.5t-6 28.5h348l-219 -461h-284zM549 -221l151 352q7 14 10 28t3 27q0 12 -2.5 25.5t-5.5 28.5h350l-221 -461h-285z" />
<glyph unicode="&#x2022;" horiz-adv-x="1208" d="M307 762q0 123 87 209t210 86q122 0 208.5 -86.5t86.5 -208.5t-87.5 -209.5t-209.5 -87.5q-123 0 -209 87t-86 210z" />
<glyph unicode="&#x2026;" horiz-adv-x="2048" d="M115 184q0 95 61.5 153t163.5 58t164.5 -58t62.5 -153q0 -94 -62.5 -152.5t-164.5 -58.5t-163.5 58t-61.5 153zM797 184q0 95 61.5 153t163.5 58t164.5 -58t62.5 -153q0 -94 -62.5 -152.5t-164.5 -58.5t-163.5 58t-61.5 153zM1481 184q0 95 61.5 153t163.5 58t164.5 -58 t62.5 -153q0 -94 -62.5 -152.5t-164.5 -58.5t-163.5 58t-61.5 153z" />
<glyph unicode="&#x202f;" horiz-adv-x="392" />
<glyph unicode="&#x2039;" horiz-adv-x="664" d="M84 512l211 350h268l-229 -350l229 -350h-268z" />
<glyph unicode="&#x203a;" horiz-adv-x="664" d="M82 162l231 350l-231 350h270l211 -350l-211 -350h-270z" />
<glyph unicode="&#x205f;" horiz-adv-x="491" />
<glyph unicode="&#x2122;" horiz-adv-x="1683" d="M207 1262l12 206h461l12 -206h-39q-6 77 -35.5 114.5t-82.5 38.5v-416q0 -21 6 -32.5t19 -14.5l30 -8v-37h-281v37l33 8q12 3 18.5 14.5t6.5 32.5v416q-55 0 -85 -38.5t-36 -114.5h-39zM731 907v37l34 8q17 4 24.5 15t7.5 32v377q0 21 -7.5 32.5t-23.5 14.5l-35 9v36h236 l120 -342l111 342h221v-28l-21 -9q-16 -5 -22 -14t-6 -33v-385q0 -23 6 -32t23 -15l20 -8v-37h-268v37l30 8q17 5 23 15.5t6 31.5v340l-135 -432h-53l-162 447v-355q0 -22 7 -33t22 -14l37 -8v-37h-195z" />
<glyph unicode="&#xe000;" horiz-adv-x="1025" d="M0 0v1025h1025v-1025h-1025z" />
</font>
</defs>
</svg>
