<?xml version="1.0" standalone="no"?>
<!DOCTYPE svg PUBLIC "-//W3C//DTD SVG 1.1//EN" "http://www.w3.org/Graphics/SVG/1.1/DTD/svg11.dtd" >
<svg xmlns="http://www.w3.org/2000/svg">
<metadata></metadata>
<defs>
<font id="dauphinregular" horiz-adv-x="725" >
<font-face units-per-em="2048" ascent="1638" descent="-410" />
<missing-glyph horiz-adv-x="483" />
<glyph horiz-adv-x="2048" />
<glyph horiz-adv-x="2048" />
<glyph unicode="&#xd;" horiz-adv-x="0" />
<glyph unicode=" "  horiz-adv-x="483" />
<glyph unicode="&#x09;" horiz-adv-x="483" />
<glyph unicode="&#xa0;" horiz-adv-x="483" />
<glyph unicode="!" horiz-adv-x="415" d="M51 104q0 44 38.5 77.5t86.5 33.5q44 -2 74 -37.5t30 -81.5q-3 -47 -37.5 -81.5t-78.5 -34.5q-46 0 -79.5 38t-33.5 86zM129 272l43 1112l213 148q-36 -188 -70 -393t-60 -407.5t-46 -419.5z" />
<glyph unicode="&#x22;" horiz-adv-x="403" d="M47 1159q-1 101 49 101q28 0 44 -23t16 -53v-25l-35 -327h-29zM248 1159q0 101 49 101q30 0 46.5 -25t16.5 -55v-21l-44 -327h-27z" />
<glyph unicode="#" horiz-adv-x="960" d="M43 391v97h205l36 247h-192v101h205l51 372h104l-52 -372h237l51 372h104l-52 -372h172v-101h-187l-37 -247h180v-97h-196l-52 -391h-104l56 391h-232l-56 -391h-104l52 391h-189zM352 492h236l36 248h-237z" />
<glyph unicode="$" horiz-adv-x="923" d="M47 196q0 71 41.5 128t79.5 57q32 0 32 -41v-16v-21v-31v-53q4 -18 5 -51q22 -82 68 -120t89.5 -46t53.5 -10v600q-9 0 -63 21t-115.5 63.5t-107.5 116t-46 175.5q3 152 96 248.5t240 110.5v153h64v-149q68 0 170.5 -35.5t117.5 -155.5q0 -53 -26 -101.5t-70 -51.5 q-2 3 -15 7.5t-18 21.5q0 7 2 32q2 26 2 40q0 68 -47 116q-46 48 -116 60v-524q133 -67 207.5 -117.5t125.5 -130.5t51 -195q-2 -104 -52 -190.5t-137 -137.5t-195 -53v-168h-68v164q-40 0 -119 16t-160 79t-90 189zM232 1020q0 -87 58 -158q58 -70 126 -90v492 q-14 0 -58 -19t-84 -73.5t-42 -151.5zM484 0q38 0 86.5 16t94 74.5t52.5 173.5q0 71 -39 136.5t-95.5 108.5t-98.5 50v-559z" />
<glyph unicode="%" horiz-adv-x="1376" d="M41 717q0 85 40 161t109.5 121t153.5 45q78 -2 141.5 -43t101.5 -110q37 -69 41 -147q0 -94 -38 -174t-105 -127t-149 -47t-149 44.5t-106.5 119.5t-39.5 157zM121 748q0 -70 29.5 -135t84.5 -104.5t121 -39.5q52 0 98 39.5t72 101.5q27 64 27 130q-2 63 -30.5 118.5 t-77.5 89t-109 33.5q-91 0 -150 -68.5t-65 -164.5zM520 37l272 1003l64 -16l-280 -1008zM744 316q0 84 40 159t110 121.5t150 46.5q78 0 142 -41.5t103 -110.5t42 -147q0 -93 -37.5 -173.5t-104.5 -127.5t-149 -47t-149 44.5t-106 118t-41 157.5zM819 332q4 -106 73.5 -185 t168.5 -79q89 10 142 86t53 186q-2 63 -30.5 118t-78 88.5t-111.5 33.5q-90 0 -149.5 -71t-62.5 -169q4 0 -5 -8z" />
<glyph unicode="&#x26;" horiz-adv-x="1331" d="M64 340q3 122 85.5 220t214.5 161q-18 46 -28.5 74.5t-21.5 61t-17.5 64t-7.5 60.5q8 75 18 111q27 88 100 136t169 48q70 0 134.5 -29t105.5 -83q40 -54 40 -124q0 -80 -54 -152t-134 -108l-115 -53q121 -227 279 -438q124 149 124 251q0 96 -137 97h-35v75h488v-84 q-58 -4 -83 -8.5t-57 -23.5q-24 -16 -60 -79.5t-83 -144.5t-105 -149q68 -60 102 -81t81 -21q66 3 109.5 49t52.5 127l71 -8q-24 -114 -63 -176.5t-93 -86.5t-132 -26q-136 0 -252 112q-65 -55 -152 -85.5t-176 -30.5q-228 0 -324 176q-38 80 -44 168zM244 420 q4 -82 40.5 -152t101 -115t146.5 -49q94 6 185 64q-186 199 -326 479q-139 -58 -147 -227zM452 1020q6 -94 72 -228q84 18 143.5 87t59.5 157q0 67 -38.5 113.5t-104.5 46.5q-70 0 -96 -47t-36 -129z" />
<glyph unicode="'" horiz-adv-x="403" d="M47 637q78 174 106.5 243t51.5 166.5t23 205.5h52l76 -181l-212 -434h-97z" />
<glyph unicode="(" horiz-adv-x="364" d="M41 528v52q4 131 18.5 254t39.5 237t60 221.5t81 223.5l63 -44q-46 -140 -75 -261t-44 -241q-14 -120 -16 -266q4 -37 4 -112q5 -116 20.5 -227t37.5 -213t48.5 -191t53.5 -157q-50 -34 -82 -50q-32 -14 -94 -30q-26 90 -52.5 220t-44.5 282t-18 302z" />
<glyph unicode=")" horiz-adv-x="387" d="M43 1436q50 36 82 51t94 29q28 -86 55.5 -212t45.5 -274t18 -292q0 -13 -1 -37.5t-1 -36.5q-6 -268 -55 -487t-146 -453l-63 44q70 204 101.5 376t31.5 380q0 158 -17.5 313t-53 305t-91.5 294z" />
<glyph unicode="*" horiz-adv-x="475" d="M41 1044l155 17l52 135l49 -139l135 -9l-116 -96l40 -128l-124 75l-116 -98l32 151z" />
<glyph unicode="+" horiz-adv-x="991" d="M51 400v100h393v393h96v-393h396v-100h-391v-400h-101v400h-393z" />
<glyph unicode="," horiz-adv-x="307" d="M-148 -580q82 146 143 301.5t95.5 320t34.5 322.5l35 8l104 -200q-66 -182 -147 -364t-185 -388h-80z" />
<glyph unicode="-" d="M43 492v132h625v-132h-625z" />
<glyph unicode="." horiz-adv-x="319" d="M43 108q0 48 36.5 81.5t88.5 33.5q46 -3 75 -37t29 -82t-33 -86t-79 -38t-81.5 39t-35.5 89z" />
<glyph unicode="/" horiz-adv-x="727" d="M47 16l581 1240l60 -19l-576 -1249z" />
<glyph unicode="0" horiz-adv-x="1104" d="M43 536q3 102 41 196t105 166t159 113t197 41q146 0 261 -70t179.5 -188t66.5 -258q0 -148 -61 -270.5t-175.5 -195t-266.5 -74.5q-148 0 -263.5 74.5t-179 198t-63.5 267.5zM205 540q0 -110 39 -213t113.5 -170t174.5 -69q12 4 23 4q99 10 166.5 45.5t105.5 91 t54.5 124.5t17.5 155q0 187 -93.5 314.5t-265.5 129.5q-113 0 -186.5 -56.5t-109 -150.5t-39.5 -205z" />
<glyph unicode="1" horiz-adv-x="688" d="M43 4v76h101q48 0 71.5 7t38 37t18.5 99l35 569q0 78 -25.5 101.5t-97.5 26.5l-76 4v76q116 -15 264 -19q152 5 271 19v-80h-90q-62 0 -83.5 -28t-25.5 -96l-28 -532q0 -36 -4 -64q8 -124 84 -124h112v-72q-136 12 -280 12q-142 0 -285 -12z" />
<glyph unicode="2" horiz-adv-x="1052" d="M41 108q35 0 51 -4q20 4 56 4q92 10 171.5 65.5t138 137.5t90.5 170.5t32 159.5q0 96 -46 165q-46 70 -130 70q-86 -6 -138 -68.5t-53 -170.5q2 -16 2 -49h-59q0 184 78.5 303t240.5 125q72 0 128.5 -34.5t88.5 -97t35 -140.5q0 -90 -28.5 -169t-75.5 -149t-108 -139 t-119 -135l608 -64l-27 -88q-208 12 -461 12q-296 0 -460 -20z" />
<glyph unicode="3" horiz-adv-x="692" d="M-20 -289q42 -27 116 -27q88 0 177 48t147.5 138.5t58.5 213.5q0 88 -28.5 140t-126.5 60q-42 0 -85 -21t-75.5 -46t-32.5 -29l-23 76l208 168q154 124 153 299q0 64 -45.5 116t-107.5 52h-9q-74 -2 -118.5 -65.5t-62.5 -133.5t-18 -92l-61 52q0 15 41.5 112.5 t109.5 178.5t154 81q70 0 124 -32t86 -88t38 -124q0 -84 -50 -167.5t-110 -146t-68 -62.5q6 1 21 2.5t35 1.5q83 0 146.5 -50t66.5 -186q0 -149 -78 -277.5t-206.5 -204t-268.5 -75.5q-44 0 -78 6.5t-30 6.5v75z" />
<glyph unicode="4" horiz-adv-x="1091" d="M43 125q167 212 312 436.5t282 478.5l155 -24l-40 -832l288 21l-44 -113l-256 -4l-19 -372l-153 -93q28 214 28 457h-92q-173 0 -432 -37zM180 184h416l37 684z" />
<glyph unicode="5" horiz-adv-x="676" d="M33 -391l14 71q100 0 203 44.5t170.5 124t67.5 179.5q0 126 -59 201t-181 135q-132 68 -165 94t-36 70q9 52 9 76q38 406 44 412h484v-156h-424q-22 -144 -25 -168q7 -77 45 -104q12 -11 98.5 -46.5t161 -79.5t131.5 -122t57 -188q-8 -176 -97.5 -298.5t-224.5 -182 t-273 -62.5z" />
<glyph unicode="6" horiz-adv-x="884" d="M45 410q0 41 2 61q36 306 153 498.5t252.5 282.5t238.5 117t141 27l8 -69q-34 0 -122 -24.5t-202.5 -109.5t-208 -268t-111.5 -477q0 -160 59 -279t173 -122q128 0 173.5 138.5t45.5 338.5q0 304 -219 304q-38 0 -80 -13l4 61q-4 0 46 14q52 13 90 13q100 0 169 -55.5 t103 -144.5t36 -187q0 -131 -48 -253.5t-139 -198.5t-213 -76q-116 0 -195 58t-117.5 154t-38.5 210z" />
<glyph unicode="7" horiz-adv-x="944" d="M47 809l25 207h784l41 -72l-772 -1325l-65 41l667 1208h-543q-42 0 -69.5 -12.5t-67.5 -46.5z" />
<glyph unicode="8" horiz-adv-x="889" d="M47 324q0 76 36.5 147t87.5 126t96 90t49 38q-7 0 -48.5 40t-76.5 106.5t-35 152.5q6 106 47.5 191t114 134.5t166.5 51.5q141 0 220.5 -78.5t79.5 -190.5v-4q0 -104 -41 -175t-96 -112t-71 -53q6 -3 49 -30.5t89.5 -72t84 -113t41.5 -152.5q0 -116 -58 -217.5 t-156 -162.5q-96 -60 -210 -60h-4q-107 2 -187.5 47t-126.5 123q-45 78 -51 174zM168 320q0 -115 64 -194q64 -80 180 -83q8 4 16 4q118 10 199 99.5t81 217.5q-8 82 -53 139t-101 90t-169 91q-4 -2 -37.5 -24t-71.5 -63.5t-69 -110.5t-39 -166zM284 1112q3 0 4 -1.5t1 -2.5 q0 -62 18.5 -107t47.5 -74t69 -53t76 -46q192 98 192 304q-3 100 -56.5 150t-139.5 54q-49 0 -98 -30.5t-80.5 -82t-33.5 -111.5z" />
<glyph unicode="9" horiz-adv-x="848" d="M8 -344q32 0 133.5 29.5t225 116.5t216.5 266.5t93 459.5q0 100 -16.5 194.5t-63.5 162t-131 67.5q-89 0 -146 -73t-81.5 -182t-24.5 -222q2 -126 42 -208q41 -82 149 -99q25 0 67 -8q45 8 61 8v-43q4 0 -46 -13q-50 -14 -105 -16q-9 4 -29 4q-100 10 -166.5 65 t-99.5 139q-32 84 -35 184q0 132 52.5 255.5t150.5 200.5q100 76 230 76q122 -6 195 -70.5t102.5 -169t29.5 -244.5q-8 -300 -120.5 -493.5t-258 -287.5t-263 -126.5t-153.5 -32.5z" />
<glyph unicode=":" horiz-adv-x="356" d="M37 112q3 47 39 82q38 34 84 34q45 -3 76.5 -37.5t31.5 -82.5q0 -49 -34 -84q-34 -36 -82 -36t-81.5 36t-33.5 88zM76 788q3 48 37.5 81.5t82.5 33.5q47 0 77 -34.5t30 -84.5q0 -49 -31.5 -85.5t-79.5 -38.5q-50 0 -83 38t-33 90z" />
<glyph unicode=";" horiz-adv-x="323" d="M-131 -580q40 68 90.5 187t94.5 252t71 262q19 87 19 243l36 8l104 -196q-156 -418 -335 -756h-80zM47 792q4 44 34.5 77.5t86.5 33.5q48 0 78 -34.5t30 -84.5q0 -48 -34 -86t-78 -38q-49 0 -83 40t-34 92z" />
<glyph unicode="&#x3c;" horiz-adv-x="981" d="M47 408v100l881 416v-109l-748 -363l748 -344v-104z" />
<glyph unicode="=" horiz-adv-x="856" d="M41 299v88h760v-88h-760zM41 516v84h760v-84h-760z" />
<glyph unicode="&#x3e;" horiz-adv-x="973" d="M47 4v104l749 344l-749 363v109l877 -416v-100z" />
<glyph unicode="?" horiz-adv-x="583" d="M41 1233q55 117 55 203q21 8 68.5 18t103.5 10q77 0 140.5 -33.5t100 -95t36.5 -139.5q1 -106 -57 -248l-279 -680l-57 35l155 445q78 228 78 356q0 82 -38.5 133t-114.5 51q-84 0 -172 -72zM104 68q0 52 33 90t82 38t83 -36t34 -84q0 -50 -33 -86.5t-84 -36.5 q-46 0 -79 34.5t-36 80.5z" />
<glyph unicode="@" horiz-adv-x="1323" d="M47 668q10 156 100 290.5t230.5 214t294.5 79.5q148 0 285 -66t222 -190t85 -288q-8 -118 -66 -221t-150.5 -166t-199.5 -65q-44 0 -83.5 48t-39.5 96q-21 -36 -51 -68t-71 -53t-91 -23q-8 2 -25 6t-31 6q-78 22 -125 96q-47 72 -51 164q2 12 4 32.5t5 35.5 q19 86 78.5 160t139 118t153.5 44q24 0 48 -6q42 -8 66 -36t50 -84l28 107h152l-124 -451q0 -7 -9 -41q-9 -35 -11 -55q9 -40 29 -45q17 -4 25 -4q53 0 112.5 57t103.5 144q44 86 50 168q4 41 4 57q0 128 -69 227t-183 153.5t-244 54.5q-135 0 -254.5 -67t-195.5 -181 t-90 -248q-2 -14 -2 -46q0 -142 71 -266t194 -201t265 -83q116 0 218 36t170.5 94t88.5 118h107q-96 -184 -254.5 -258t-325.5 -74q-177 0 -322.5 88t-228 244t-82.5 348zM440 452q8 -116 76 -136q25 -4 33 -4q70 0 115 66q46 67 84 177q36 104 36 176q0 52 -28 96.5 t-76 44.5q-58 0 -115.5 -73t-89.5 -158q-31 -113 -35 -189z" />
<glyph unicode="A" horiz-adv-x="1331" d="M24 -8v76q10 0 44 -8q124 6 180 149q282 708 305 995q44 6 68 10t49.5 12t60.5 26q134 -398 178.5 -530t102.5 -282q46 -132 74 -210t53.5 -118t60.5 -40h92v-68q-92 4 -244 4q-84 0 -292 -8v72l108 -4q84 0 84 57q0 5 -2 16t-2 15l-100 300h-408l-104 -272 q-4 -20 -12 -53q0 -59 112 -67q58 8 80 8v-80q-176 16 -244 16q-76 0 -244 -16zM465 532h350l-187 548z" />
<glyph unicode="B" horiz-adv-x="1024" d="M16 4v72h109q98 0 98 104v696q0 231 -55 279q-16 21 -72 21h-80v67q198 -10 207 -10q50 2 136.5 7t136.5 7q97 0 179.5 -34t131.5 -98q49 -65 49 -151q0 -72 -37 -140t-111 -103q-6 -1 -12 -21q10 -20 16 -20q127 -22 184 -116q56 -96 60 -208q0 -115 -43 -200.5 t-128 -133.5t-209 -50q-72 0 -187 22t-189 22q-46 0 -114 -6t-70 -6zM356 180q0 -66 57 -101.5t142 -35.5q75 2 132 32t89.5 89.5t32.5 147.5q-2 98 -45 169.5t-115.5 109t-160.5 37.5h-132v-448zM356 700h115q94 0 159.5 70.5t65.5 173.5q-6 112 -77 163.5t-179 51.5h-84 v-459z" />
<glyph unicode="C" horiz-adv-x="1280" d="M37 628q2 176 91.5 324t241.5 234t326 86q52 0 103.5 -8t132.5 -25t123.5 -24t93.5 -7v-284h-65q-1 6 -9.5 49t-42.5 89t-116.5 81t-219.5 37q-148 0 -262.5 -63t-180 -171t-73.5 -242q0 -156 78 -289t207 -210.5t279 -79.5q8 4 20 4q101 3 168.5 18.5t114.5 52t77 103.5 l72 153l68 -36l-189 -369q-36 -79 -383 -79q-191 4 -340.5 92t-232 238t-82.5 326z" />
<glyph unicode="D" horiz-adv-x="1380" d="M43 -4v80h101q44 0 74 26.5t30 69.5v37v659q0 146 -11.5 208.5t-45 81t-115.5 18.5h-33v76q119 -11 229 -15q60 1 186 8t238 7q157 0 278.5 -49t202.5 -134.5t122 -201t41 -247.5q0 -134 -40 -252.5t-119.5 -210t-201 -143t-279.5 -51.5q-68 0 -160 11.5t-184 22.5 t-160 11q-73 0 -153 -12zM400 284q0 -118 69 -179.5t227 -61.5q124 5 213 50t144.5 119t82 170t28.5 206q0 116 -39 222.5t-112.5 189t-176.5 129.5q-104 47 -228 47h-49l-159 -12v-880z" />
<glyph unicode="E" horiz-adv-x="1057" d="M24 -4v80h120q78 0 103 37t25 119v624q0 124 -10 199.5t-47 103.5q-13 17 -94 17h-97v76q188 -11 432 -15q245 5 437 15l15 -284l-72 -4l-8 76q-6 66 -46 90q-40 25 -110 25h-268v-479l304 8q52 4 77.5 18.5t25.5 65.5v56h69q0 -84 -4 -132q7 -136 13 -231h-74v71 q0 72 -94 72l-309 8v-332q0 -62 8 -100t36 -61t84 -23h212q103 0 139.5 69.5t40.5 166.5h76l-40 -332q-292 16 -432 16q-226 0 -512 -20z" />
<glyph unicode="F" horiz-adv-x="944" d="M47 8v80h121q79 0 104 36t25 120v620v96v6q0 180 -57 202q-32 16 -105 16h-88v76q164 -9 424 -17q261 7 426 17l2 -283l-71 -4l-4 75q-6 116 -156 116h-232v-480l276 4q50 4 74.5 22.5t24.5 65.5v56h69q0 -72 -4 -111q8 -193 17 -281h-78v96q0 72 -94 72l-281 4v-332 q0 -72 27.5 -140t95.5 -68l137 12v-72q-156 12 -313 12q-186 0 -340 -16z" />
<glyph unicode="G" horiz-adv-x="1444" d="M47 620q0 139 53.5 260t152.5 211.5t237 139.5t302 49q142 -5 298 -32.5t186 -39.5v-292h-80v20q0 48 -29 101.5t-119 98t-260 52.5q-167 0 -299 -62t-207 -185t-77 -298q0 -163 89.5 -298t231 -211t283.5 -76q28 0 43 2l96 10t88 14.5t84 27.5v232q0 64 -48 80t-128 16 q-35 0 -57.5 -1.5t-34.5 -2.5v80q70 -6 240 -16q204 9 296 16v-76q-63 -4 -87.5 -14t-24.5 -58v-128q0 -84 84 -84v-48q-80 -51 -244 -91.5t-336 -49.5q-208 0 -375 85t-261.5 234.5t-96.5 333.5z" />
<glyph unicode="H" horiz-adv-x="1515" d="M51 -4v76h97q112 0 112 151v680q0 251 -55 261q-20 4 -70 4h-84v79q151 -17 273 -23q133 6 276 23v-79h-80q-60 0 -80 -13q-29 -14 -36.5 -57t-7.5 -115v-291h712v216q0 252 -51 260q-20 4 -70 4h-84v80q74 -10 289 -19q196 9 264 19v-80h-76q-50 0 -80 -17 q-24 -12 -32 -40q-8 -29 -12 -79q4 -16 4 -49v-619q0 -90 5 -149.5t29 -103t74 -43.5h96v-72q-182 16 -268 16q-90 0 -297 -16v76h101q62 0 85 39t23 113v368h-708v-232q0 -124 22 -210t106 -86h88v-72q-132 16 -284 16q-148 0 -281 -16z" />
<glyph unicode="I" horiz-adv-x="655" d="M43 0v76h92q109 0 109 152v680q0 113 -9 183.5t-43 76.5q-16 4 -71 4h-78v75q45 -4 269 -14q218 9 272 14v-79h-84q-66 0 -91 -40t-28 -116q4 -8 4 -25v-623q0 -130 19.5 -211t95.5 -81h96v-72q-122 16 -276 16q-155 0 -277 -16z" />
<glyph unicode="J" horiz-adv-x="641" d="M-96 -364q86 35 164.5 106.5t127 163.5t48.5 182v815q0 195 -35 237q-25 28 -109 28h-49v75q97 -9 277 -19q170 8 264 19v-79h-96q-101 0 -109 -136q4 -16 4 -47v-829v-76q0 -48 -14 -100q-48 -124 -190.5 -238t-282.5 -170v68z" />
<glyph unicode="K" horiz-adv-x="1243" d="M47 0v76h93q65 0 86 40q22 40 22 112v680q0 246 -56 260q-12 4 -57 4h-67v80q64 -10 252 -19q184 9 252 19v-80h-44q-54 0 -92 -17q-24 -15 -32 -41t-13 -78q5 -16 5 -49v-619q1 0 -5 -24q8 -116 25.5 -194t71.5 -78h116v-72q-122 16 -280 16q-154 0 -277 -16zM424 620 l328 412q28 29 28 76q0 64 -72 64h-65v75q76 -12 209 -18q160 6 256 18v-79h-33q-43 0 -68.5 -8t-46.5 -26q-22 -16 -52 -54l-312 -392q76 -110 150.5 -208.5t154 -194.5t163 -185.5t179.5 -183.5l-94 -47q-98 88 -194.5 180.5t-191.5 190t-179.5 192.5t-159.5 188z" />
<glyph unicode="L" horiz-adv-x="1149" d="M56 4v76h88q66 0 89 38t23 114v676q0 96 -9 154t-38 87q-21 23 -113 23h-40v80q53 -10 288 -19q236 8 284 14v-79h-100q-132 0 -132 -181v-623q0 -91 14 -141.5t41 -74.5t73 -36q80 -22 201 -28q169 8 219 56q38 34 57 100t19 88l84 -31q-43 -102 -88 -293 q-236 12 -520 12q-250 0 -440 -12z" />
<glyph unicode="M" horiz-adv-x="1825" d="M43 4v76h92q41 0 62 11.5t32 44t15 96.5l63 852q0 5 2.5 17.5t2.5 22.5q0 52 -60 52h-84v76q38 -9 164 -19q122 9 168 19q30 -110 59 -191q63 -144 144.5 -329.5t152.5 -343.5q70 -156 72 -160q10 24 40 101t86 226t92 247.5t78 217.5q19 54 60 236q72 -15 188 -23 q98 7 172 19v-80h-92q-44 0 -66 -18t-22 -70l109 -820q6 -56 13.5 -92t31.5 -68t70 -32h80v-72q-190 16 -283 16q-78 0 -252 -16v76h90q113 0 113 100v37l-113 862l-387 -1071h-56l-493 1080l-51 -848q0 -12 -4 -23q9 -137 92 -137h88v-72q-112 12 -236 12q-119 0 -233 -12z " />
<glyph unicode="N" horiz-adv-x="1556" d="M41 4v76h71q70 0 90 38q21 38 21 114v36v789q0 64 -18.5 91.5t-75.5 27.5h-86v76q42 -10 166 -19q121 9 155 14l888 -995l-40 805q0 67 -18 87t-62 20h-71h-61l4 83q116 -12 243 -18q143 6 261 18v-79h-93q-51 0 -69.5 -22.5t-18.5 -74.5l-4 -1108h-47l-960 1098l4 -768 q0 -108 26.5 -164.5t114.5 -56.5h88v-72q-111 16 -256 16q-128 0 -252 -12z" />
<glyph unicode="O" horiz-adv-x="1392" d="M47 647q0 138 50.5 254.5t138.5 200.5t205 130t247 48q178 0 331 -90t243 -243t90 -331q0 -197 -88 -342.5t-236 -221.5q-150 -76 -328 -76q-184 0 -333 90t-233.5 244.5t-86.5 336.5zM200 664q0 -151 62.5 -290.5t176 -225.5t257.5 -88q5 2 8 3l4 1q142 4 252 66.5 t171 185.5q61 122 61 300q0 107 -36 208.5t-102.5 181t-157.5 126.5q-92 48 -196 48q-146 0 -258.5 -67.5t-175 -184t-66.5 -264.5z" />
<glyph unicode="P" horiz-adv-x="964" d="M41 -4v76h88q74 0 92.5 46.5t18.5 133.5l4 729q-6 104 -33 151.5t-86 47.5l-82 -4v67q37 -2 127 -7q90 -4 142 -7q148 8 212 14q36 4 58 4q90 0 166.5 -41.5t122 -113.5t45.5 -156q0 -158 -91 -268t-257 -113q-8 4 -19 4q-56 1 -125 25v72q26 -12 76 -19q16 4 32 4 q134 10 181 77t47 185q0 139 -71 206t-220 67q-12 0 -41.5 -2t-42.5 -2l-4 -904q0 -90 27.5 -141t115.5 -51h117v-76q-117 16 -269 16q-142 0 -331 -20z" />
<glyph unicode="Q" horiz-adv-x="1415" d="M41 643q0 184 85.5 328.5t232.5 226.5t325 86q132 0 255.5 -48t220 -135t152.5 -201t56 -244q0 -105 -24 -202.5t-73 -180.5t-121.5 -148t-168.5 -109q72 -56 128 -94t108.5 -68t101 -55t125.5 -63l-68 -52q-258 100 -592 304q-18 -4 -104 -12q-176 0 -322.5 88t-231 242 t-85.5 337zM200 672q15 -434 304 -560q96 -40 176 -44q20 4 60 4q64 100 75 128q45 -76 84 -108q104 52 166.5 119t93.5 164t37 241q0 152 -62 283t-177 208t-269 77h-4q-111 0 -223.5 -60t-186.5 -176t-74 -276z" />
<glyph unicode="R" horiz-adv-x="1204" d="M28 0v72h116q54 0 75 38t21 122v44v600q0 236 -48 279q-12 17 -61 17h-88v75q44 -5 87.5 -6.5t91 -2t75.5 -1.5q139 0 227 10q32 5 54 5q86 0 161 -39t119.5 -108t44.5 -153q0 -106 -51 -184q-50 -76 -148 -116q210 -422 533 -764l-61 -36q-94 76 -187 173t-179 203.5 t-148 192.5t-126 183h-155v-348q0 -83 31.5 -126t115.5 -46h72v-80q-164 16 -248 16q-46 0 -101 -3t-134 -10t-89 -7zM385 668q14 -2 40.5 -4t39.5 -4q90 2 157.5 31t104.5 83t37 129q0 48 -24 109.5t-82.5 108.5t-153.5 47q-24 0 -73 -2t-46 -2v-496z" />
<glyph unicode="S" horiz-adv-x="788" d="M47 391h88v-84q0 -105 69.5 -184.5t172.5 -79.5q98 0 166.5 63.5t68.5 165.5q-6 162 -196 264l-144 80q-222 128 -221 344q6 102 49.5 174t115 107t161.5 35q50 0 176 -24q23 0 31 -5h36v-247h-80v16q0 40 -12.5 85.5t-50.5 80t-105 34.5q-78 0 -135.5 -52t-60.5 -128 q0 -152 164 -235l125 -61q124 -59 195 -170.5t71 -233.5q0 -105 -38.5 -188.5t-118.5 -133t-202 -51.5q-82 0 -185 34.5t-131 53.5q0 25 2 71t2 70q0 105 -13 199z" />
<glyph unicode="T" horiz-adv-x="1272" d="M41 981v271q227 -16 567 -23q364 7 612 23v-271h-71q0 68 -6 98.5t-32.5 45.5t-86.5 15h-293v-820q0 -104 11.5 -154t50.5 -72t127 -22h76v-72q-237 16 -353 16q-95 0 -319 -16v76h92q86 0 118.5 19.5t37 53t8.5 158.5v838h-365q-64 0 -83.5 -32.5t-23.5 -104.5 q4 -12 4 -31z" />
<glyph unicode="U" horiz-adv-x="1427" d="M47 1176v76q62 -10 246 -19q191 9 260 19v-80h-92q-51 0 -74.5 -22t-29 -58t-5.5 -105v-499q0 -142 47 -235t130.5 -138t195.5 -47q196 0 293.5 115.5t97.5 365.5v354q0 128 -16 183.5t-45 68.5t-91 13h-88v79q64 -10 216 -18q166 6 288 18v-79h-59q-66 0 -83.5 -41 t-17.5 -140v-475q0 -274 -134 -407t-374 -133q-115 3 -204 27.5t-156.5 80.5t-105 155t-37.5 244v429q0 106 -5.5 158t-29.5 81t-78 29h-49z" />
<glyph unicode="V" horiz-adv-x="1368" d="M47 1172v80q69 -15 250 -23q139 6 223 18v-79h-59q-52 0 -77.5 -12t-31.5 -52q6 -38 29 -92l340 -793l287 793q28 80 28 108q0 56 -88 56h-80v76q82 -11 228 -15q150 5 225 15v-80h-45q-44 0 -70 -18.5t-41 -48.5t-53 -118q-36 -84 -116 -281.5t-159.5 -407 t-119.5 -331.5h-76q-41 118 -94 254.5t-113 279.5t-128 299t-106 244q-21 58 -44.5 93t-67.5 35h-41z" />
<glyph unicode="W" horiz-adv-x="1917" d="M56 1176v80q98 -16 247 -23q125 7 229 19v-80h-48q-60 0 -87 -19t-33 -73q4 -42 27 -128l250 -708l248 768q10 32 10 76q0 84 -88 84h-80v80q106 -16 242 -23q135 7 243 23v-80h-71q-45 0 -62 -11.5t-22 -48.5q2 -9 5 -31q3 -23 5 -33l285 -768l236 732q16 66 16 80 q0 44 -24.5 62t-80.5 18h-79v80q56 -10 220 -19q162 9 220 19v-76h-44q-44 0 -68 -29t-38 -74t-26 -86q-31 -96 -64 -193t-91 -266.5t-98.5 -297.5t-78.5 -258h-60q-44 124 -86 250t-87.5 258t-88 242.5t-78.5 185.5q-34 -106 -74 -222t-85 -247.5t-78 -242.5 q-33 -110 -55 -220h-76q-32 130 -74.5 259t-97 270t-106.5 278t-95 261q-20 60 -36.5 87t-42.5 36t-80 9z" />
<glyph unicode="X" horiz-adv-x="1419" d="M28 -8v76q210 0 304 137l296 419l-288 384q-68 94 -125 129t-172 35v80q127 -16 289 -23q170 8 256 18v-79h-80q-76 0 -80 -32q9 -36 33 -69l243 -336l180 289q48 82 48 108q0 44 -80 44h-84v75q112 -12 236 -18q136 6 248 18v-79h-44q-54 0 -81.5 -9t-46 -28t-55.5 -75 t-77 -108l-188 -272l340 -471q95 -129 217 -129h43v-80q-158 20 -280 20q-128 0 -300 -20v80h117q84 0 84 40q0 30 -37 80l-272 359l-240 -363q-22 -38 -28 -67q4 -53 124 -53h80v-76q-132 12 -276 12q-170 0 -304 -16z" />
<glyph unicode="Y" horiz-adv-x="1255" d="M56 1164v79q154 -19 268 -23q98 4 272 23v-79h-92q-68 0 -76 -9q-4 -5 -12 -31q2 -12 28 -67l256 -441l212 380q10 19 23 43t21 44.5t8 36.5q0 52 -108 52h-92v71q134 -19 223 -23q99 5 225 23v-63h-48q-36 0 -65 -26.5t-51 -66.5t-40 -71l-260 -480v-296q0 -44 12 -86 q12 -44 32 -58q32 -20 136 -28q37 4 92 4v-76q-178 20 -312 20q-168 0 -331 -24v76q43 0 63 -4q96 8 132 28q40 27 40 131v313l-292 455q-48 83 -88.5 128t-102.5 45h-73z" />
<glyph unicode="Z" horiz-adv-x="1347" d="M47 -4v68l944 1020h-759q-50 0 -70 -25q-18 -25 -22 -76q4 -10 4 -39h-60v295q172 -11 479 -19q146 2 313.5 11t327.5 16l39 -59l-995 -1040h725q26 0 43 -4q60 4 98 16t62 45q20 26 28 48t12 63.5t4 43.5h72q-6 -54 -17 -144.5t-15 -127.5q-4 -38 -8 -96 q-294 28 -605 28q-278 0 -600 -24z" />
<glyph unicode="[" horiz-adv-x="456" d="M43 1264q52 0 156.5 -2t156.5 -2h44v-56h-60q-58 0 -93 -15t-42 -61q4 -8 4 -20v-1184q0 -62 40.5 -81t114.5 -19h40l4 -56q-82 0 -160 9q-26 -7 -60 -10t-76.5 -4t-64.5 -3q13 100 13 252v860q-2 44 -3 119t-4 141q-3 68 -10 132z" />
<glyph unicode="\" horiz-adv-x="884" d="M47 1264h129l656 -1301h-128z" />
<glyph unicode="]" horiz-adv-x="456" d="M37 -240l4 56h35q77 0 118.5 18t41.5 82v1184v20q0 47 -37 61.5t-95 14.5h-61v56h41q52 0 158 2t158 2q-6 -71 -8 -134.5t-2.5 -131.5t-2.5 -126v-860q1 -152 9 -252q-118 0 -200 16q-74 -8 -159 -8z" />
<glyph unicode="^" horiz-adv-x="600" d="M43 1075l260 233l260 -224l-260 92z" />
<glyph unicode="_" horiz-adv-x="1208" d="M-4 -260h1237v-29h-1237v29z" />
<glyph unicode="`" horiz-adv-x="456" d="M47 1140l121 116l236 -156l-32 -35z" />
<glyph unicode="a" horiz-adv-x="899" d="M43 209q6 128 65 268.5t144.5 259.5t175.5 193t152 74q18 0 41 -8.5t39 -8.5l145 17q-11 -129 -33 -354.5t-28.5 -301t-8.5 -143.5q6 -97 29 -97q58 19 104 27l25 -47q-103 -22 -145 -38t-136 -66q-4 -4 -16 -4q-8 0 -8 24q23 142 29.5 207t6.5 153v105l-176 -285 q-52 -86 -130 -141t-158 -55q-116 6 -117 221zM180 264q10 -124 92 -124q68 2 139 88.5t129 209.5q56 122 88 230q18 54 19 141q0 90 -47 111q-8 6 -22 6q-44 0 -108.5 -57t-128 -152t-106.5 -207t-51 -217q0 -16 -4 -29z" />
<glyph unicode="b" horiz-adv-x="815" d="M47 76l37 608q4 51 11 176.5t11 185.5t12 131t22 171q29 173 53.5 279.5t74.5 276.5h207v-52q-10 -6 -33.5 -18t-38 -25t-22.5 -33q-12 -30 -53.5 -226t-76.5 -433.5t-38 -428.5l-8 -469q0 -72 57.5 -122t133.5 -50q77 4 132.5 68.5t84 162.5t28.5 197q0 158 -38.5 273.5 t-137.5 115.5q-35 0 -59 -7t-49.5 -24t-53.5 -37l-31 52l60 41q99 61 137.5 81.5t85.5 20.5q82 0 132 -62t69.5 -148.5t19.5 -168.5q-2 -100 -32 -210t-89 -208t-147 -158t-201 -60q-80 6 -139.5 28.5t-120.5 71.5z" />
<glyph unicode="c" horiz-adv-x="727" d="M47 336q0 113 21.5 226t72.5 214t137 162q86 62 206 62q78 0 163 -48v-244h-123v60q0 164 -104 164q-108 -2 -160 -153t-55 -343q0 -336 176 -336q92 8 146.5 60t75.5 107t21 73h56q0 -32 -27.5 -116t-105 -160t-215.5 -76q-102 2 -165 50t-90 125t-30 173z" />
<glyph unicode="d" horiz-adv-x="796" d="M43 381q2 124 42.5 254t106.5 224t140 118l31 13q31 14 49 14q22 0 28 -13q0 -2 2 -7.5t2 -10.5q0 -13 -13 -22.5t-39 -19.5q-26 -9 -40 -15q-38 -16 -74 -97t-59 -193q-23 -110 -23 -210q0 -144 34 -240t130 -104q229 0 240 481q0 138 -44 280.5t-114 259.5t-152 188 q-80 71 -150 71q-24 0 -36 -4l-28 53l192 94q94 -76 176 -164.5t149 -200.5t107 -252t40 -306q0 -250 -88 -388q-18 -32 -80.5 -81t-145.5 -84t-166 -35q-75 0 -124 53t-71 144t-22 200z" />
<glyph unicode="e" horiz-adv-x="743" d="M43 391q6 118 26 220.5t61.5 191.5t110.5 143t167 58q84 0 136 -34.5t74.5 -93t22.5 -132.5q-1 -64 -25 -172q-202 -67 -424 -93q-2 1 -8 -71q12 -314 216 -324q62 0 116 35t85.5 94t31.5 123v16l63 -8q0 -42 -25 -124.5t-104 -157t-223 -74.5q-104 0 -172 54 t-98.5 145.5t-30.5 203.5zM196 555q2 -4 3 -6.5t1 -3.5l181 27q64 12 99.5 65t35.5 123q0 80 -20 134t-88 54q-103 -2 -154.5 -141t-57.5 -252z" />
<glyph unicode="f" horiz-adv-x="604" d="M43 903v84h92q56 0 72 33.5t16 103.5q0 188 12.5 314t61.5 242q106 243 261 243h1q8 0 20.5 -1t20.5 -1v-166h-84q-9 0 -12 8.5t-4.5 26t-5.5 28t-15 11.5q-69 -1 -79 -177l-32 -661h236v-83l-244 4l-128 -1465l-103 -27l84 1492z" />
<glyph unicode="g" horiz-adv-x="819" d="M41 209q6 128 59.5 265.5t135.5 257.5t168.5 192t154.5 72q19 0 44 -7.5t38 -7.5l127 15l-16 -609q-6 -291 -63 -509t-166 -338t-267 -120q-85 0 -131 35t-62.5 92t-19.5 141q8 110 8 172l141 -16q-13 -30 -20 -100q8 -86 28 -129l-84 -6q1 -8 6.5 -40.5t34.5 -60.5 t95 -32q94 0 161 72.5t106 191t56 255t17 273.5v168l-156 -260q-48 -83 -120 -135.5t-148 -52.5q-69 4 -98 67t-29 154zM200 297q0 -172 76 -172q43 0 107.5 79t124.5 191t92 201q28 82 28 188q0 118 -48 140q-13 6 -27 6q-44 0 -104.5 -51t-117.5 -139t-94 -203.5 t-37 -239.5z" />
<glyph unicode="h" horiz-adv-x="864" d="M24 -24q12 106 17 208q8 116 13.5 302t13.5 302q12 155 29 276t42 242.5t57 261.5t60 271l20 93h224v-64q-3 -1 -24 -9.5t-48.5 -41.5t-59.5 -111q-32 -76 -56 -198q-24 -128 -37.5 -208t-25 -171t-18.5 -165.5t-16 -203.5l-23 -336q2 2 35 57t70.5 117t79.5 123 q67 100 231 260l207 10v-299q0 -234 -124.5 -444t-330.5 -416l-145 -152l-59 68q116 80 206 184.5t154 228t97.5 259.5t33.5 276q-1 114 -27 152q-6 8 -14 8q-44 0 -146 -126t-193 -302t-111 -324l-12 -88z" />
<glyph unicode="i" horiz-adv-x="465" d="M37 824v73q117 14 350 90l-71 -991l-156 -33q55 327 55 731v14v148zM184 1356q0 52 30 95.5t79 43.5q47 0 83 -37.5t36 -85.5q0 -52 -35 -93t-84 -42q0 1 -1.5 1.5t-2.5 0.5q-42 0 -72 35.5t-33 81.5z" />
<glyph unicode="j" horiz-adv-x="508" d="M-125 -572q118 108 176 178t90.5 158t38.5 216l48 880l-181 -32v75q153 11 353 93l-68 -924q-8 -147 -32 -236.5t-80 -165.5t-169 -170l-135 -108zM232 1360q0 48 40 93.5t88 45.5q46 -4 75.5 -43t29.5 -84q-3 -53 -40.5 -93t-84.5 -40q-42 3 -73.5 38.5t-34.5 82.5z" />
<glyph unicode="k" horiz-adv-x="831" d="M33 -4q12 104 18.5 226.5t14.5 297t16 289.5t26 235q35 254 76.5 434t122.5 435h213v-65q-34 0 -88 -75t-112 -317q-28 -122 -52 -280t-39 -284q-15 -124 -16 -152l-4 -140q46 97 157.5 242t249.5 145q84 0 122 -53q38 -54 42 -129q0 -114 -70 -192t-148 -115.5 t-114 -45.5v4q82 -190 185 -355t235 -320l-84 -33q-303 364 -532 721q79 0 166.5 40.5t144.5 111.5t57 159q0 108 -65 109q-56 0 -143.5 -96.5t-155.5 -237.5q-86 -176 -108 -547q2 -2 3 -4.5t1 -3.5z" />
<glyph unicode="l" horiz-adv-x="528" d="M108 -41q7 96 10.5 190.5t9 266.5t11.5 291q7 119 17 233q15 154 29 269t30.5 219t39.5 218t57 262h224v-60q-10 -6 -34 -25t-58 -86t-67 -205q-24 -100 -42.5 -312t-31.5 -466t-20 -451.5t-7 -218.5l189 37v-88q-187 -6 -357 -74z" />
<glyph unicode="m" horiz-adv-x="1444" d="M28 836v80q152 0 308 75l-52 -631q190 352 437 631h127l-39 -631q94 184 196 340t224 291h159q-32 -188 -52.5 -416t-20.5 -395q0 -13 1 -35.5t1 -32.5v-16l84 25l8 -74l-264 -75l75 904q-76 -84 -149 -188t-135.5 -219.5t-110 -237.5t-73.5 -235h-111l55 860 q-173 -192 -292.5 -418.5t-155.5 -437.5h-127l51 864z" />
<glyph unicode="n" horiz-adv-x="1016" d="M41 828v80q183 0 331 96l-69 -652q64 120 132.5 221t149 198t187.5 210h112l-48 -869l147 19v-71q-153 -6 -299 -93l-32 25q72 260 79 836q-142 -169 -193.5 -234t-108.5 -157.5t-97 -201t-56 -239.5h-124l48 868z" />
<glyph unicode="o" horiz-adv-x="792" d="M43 312q2 190 40.5 339t144.5 247t296 102q76 0 125 -62t71 -156q22 -93 24 -194q0 -168 -42 -305t-138 -220t-252 -83h-40q-78 9 -127 37.5t-75.5 97.5t-26.5 197zM200 404q0 -100 10.5 -173t49.5 -126t117 -58q120 0 171.5 132.5t51.5 320.5v28q0 158 -49 279t-160 121 q-68 -4 -110.5 -95t-60 -210t-20.5 -219z" />
<glyph unicode="p" horiz-adv-x="932" d="M33 832v92q175 12 335 76q-7 -52 -21.5 -155t-21.5 -176t-9 -149q8 -72 8 -108q0 20 39 116.5t102 206t147 189.5q84 82 172 84q62 0 79 -40.5t17 -111.5v-232q0 -127 -26 -239t-79 -201.5t-134 -143.5t-189 -64l-8 48q80 14 124 44q74 58 115.5 209t41.5 323v228 q0 64 -41 69q-35 0 -108.5 -97.5t-143.5 -247.5t-104 -304q-16 -86 -38.5 -199t-38.5 -216t-28 -218l-14 -168l-109 -43q22 172 37.5 356t22.5 312t18.5 383.5t21.5 416.5z" />
<glyph unicode="q" horiz-adv-x="819" d="M41 213q12 155 67.5 297t137 252.5t170 174t160.5 63.5q90 -9 101 -11.5t91 -32.5l-108 -1519l-120 -29l44 1000l-115 -193q-139 -227 -264 -227q-164 10 -164 225zM180 297q4 -78 30 -122t66 -44q89 18 168.5 145.5t129.5 283.5t50 232q0 140 -96 140h-8 q-62 -4 -135 -94.5t-129 -225.5q-58 -136 -72 -260q0 -37 -4 -55z" />
<glyph unicode="r" horiz-adv-x="768" d="M37 815v82q74 2 177.5 28.5t181.5 61.5l-28 -516q3 7 45.5 111t68.5 163t52 109t50 74q47 53 102 53h2q16 0 25 -1.5t12 -2.5v-172q-3 1 -12 2.5t-25 1.5h-1q-101 0 -212 -241q-50 -112 -89 -235t-63 -222.5t-24 -114.5h-107l48 860z" />
<glyph unicode="s" horiz-adv-x="671" d="M43 56l25 308l63 -8q-2 -2 -4.5 -40t-5.5 -76q0 -59 24.5 -104.5t66.5 -69.5t91 -25q80 0 136.5 46.5t56.5 127.5q0 64 -30 106q-32 43 -94 87l-108 80q-118 98 -124 233q0 119 67 195t197 84q37 0 87.5 -11.5t48.5 -11.5v-217h-61v55q0 51 -24.5 90t-69.5 39 q-49 0 -85 -47t-36 -96q7 -122 127 -209l93 -64q132 -90 136 -229q0 -62 -37.5 -135.5t-110 -124.5t-169.5 -51h-4q-94 0 -162 25t-94 43z" />
<glyph unicode="t" horiz-adv-x="647" d="M47 893v88l141 -4l12 199l156 36l-24 -235l217 4l-4 -84l-233 2q-6 -13 -19 -583q0 -90 4.5 -137t25.5 -76t68 -31q3 3 5 3.5t4 0.5q70 6 114.5 67t44.5 164h57q0 -93 -35 -165t-98 -111t-147 -39q-67 0 -117.5 21t-70.5 34q-2 34 -4 98.5t-4 98.5q4 212 40 655z" />
<glyph unicode="u" horiz-adv-x="1007" d="M28 844v76q90 6 157 27t155 69l28 -29q-88 -332 -88 -807q98 106 191 240.5t162 279t98 281.5h133l-53 -856l162 35v-84q-201 0 -345 -96q70 378 76 684q-220 -379 -464 -668h-111l51 884z" />
<glyph unicode="v" horiz-adv-x="1175" d="M47 616l9 371q87 -9 288 -19q218 10 308 19l12 -47q-41 -14 -93.5 -73.5t-99.5 -148t-77 -191t-30 -195.5q10 -236 185 -236q116 0 207.5 80t141.5 207t50 260v344h184q-42 -113 -48 -231q6 -106 48 -228q-16 0 -32 -4q-39 6 -72 29q-50 -243 -211 -391.5t-377 -161.5 h-160q-53 92 -68.5 135t-19.5 129q0 113 59 245.5t129 238.5t81 112h-349l4 -244h-69z" />
<glyph unicode="w" horiz-adv-x="1376" d="M47 928q184 12 377 92q-30 -143 -43 -293.5t-13 -322.5q158 271 388 587h133l-49 -870q220 165 315 407v468h172q-25 -265 -27 -308q2 -26 3 -44t2 -39.5t3.5 -46t4.5 -38.5h-97q-34 -92 -84 -172t-118 -148.5t-151 -122t-183 -89.5l41 856q-22 -32 -118 -176 t-151.5 -243t-91 -207t-40.5 -226h-140l39 892l-163 -40z" />
<glyph unicode="x" horiz-adv-x="1196" d="M41 135q2 92 43 209l37 100l55 -24l-41 -123q-13 -70 -19 -125q8 -82 36 -96q6 -3 13 -4.5t11 -3.5q38 2 78 33t62 67l204 293l-227 331q-35 56 -70 56q-11 0 -63 -29l-76 -43l-33 64q101 44 170 82t135 90l240 -416l100 156q84 124 157 188t147 64q64 0 100 -36 q36 -38 36 -104q0 -73 -23 -148.5t-38 -111.5l-51 33l16 59q16 71 17 115q0 39 -17.5 70t-52.5 31q-78 0 -215 -204l-125 -192l217 -307q30 -39 48 -54t48 -15t48 12l76 53l32 -61q-194 -92 -284 -168l-252 396l-124 -180q-58 -88 -142 -152t-158 -64q-60 0 -86.5 47 t-28.5 112z" />
<glyph unicode="y" horiz-adv-x="1048" d="M33 912q160 14 266 92l176 -525q0 42 34.5 172.5t101.5 239.5t165 109h16q98 -8 151 -102t53 -226q-16 -322 -100 -558t-198 -375t-228 -201t-198 -62h-188q-26 60 -33 192q5 12 5 39q16 183 44 273h140q0 7 -28.5 -125.5t-31.5 -214.5q4 -57 21 -81t67 -24 q80 0 178.5 56t191 175.5t151.5 309.5t59 444v72q0 246 -96 256q-42 0 -81 -44.5t-69 -114t-48 -145.5q-18 -74 -22 -132q0 -26 -4 -52q12 -230 56 -336l-115 -48l-277 892l-155 -28z" />
<glyph unicode="z" horiz-adv-x="1091" d="M43 24v40l758 784h-461q-59 0 -105.5 -20.5t-46.5 -71.5h-72l32 231q120 -9 411 -19q309 9 445 19l16 -51l-752 -807q204 -27 484 -33q88 4 292 12v-92q-146 -8 -444 -16q-261 6 -557 24z" />
<glyph unicode="{" horiz-adv-x="504" d="M41 516l19 8q112 52 112 128v413q0 85 57 138t143 53h64l-32 -13q-48 -16 -74.5 -64t-26.5 -104v-383q-1 -132 -111 -168l-36 -4l32 -12q38 -12 69.5 -51t31.5 -76v-428q0 -60 25.5 -111.5t76.5 -64.5l33 -9h-52q-108 0 -172 64q-40 40 -48 196q4 27 4 60v308 q0 38 -29 70t-67 42z" />
<glyph unicode="|" horiz-adv-x="260" d="M60 -488v1752h132v-1752h-132z" />
<glyph unicode="}" horiz-adv-x="504" d="M47 1256h65q84 0 142 -53t58 -138v-413q0 -86 112 -128l20 -8l-20 -8q-96 -38 -96 -112v-308v-60q0 -155 -44 -200q-68 -60 -172 -60h-52l32 9q52 12 78 64t26 112v428q0 38 31 74.5t70 52.5l31 12l-35 4q-54 0 -83.5 55t-29.5 113v383q0 52 -27.5 102.5t-72.5 65.5z" />
<glyph unicode="~" horiz-adv-x="579" d="M47 1124q22 62 72.5 101t103.5 39q30 0 53.5 -13t54.5 -41t44 -36t33 -10q8 4 16 4q29 10 55 48l53 -16q-24 -68 -73 -108t-103 -40q-28 2 -46 13.5t-47 37t-52 38t-51 12.5q-14 -2 -23 -8.5t-17 -15.5t-16 -21z" />
<glyph unicode="&#xa1;" horiz-adv-x="399" d="M8 -553q104 532 180 1217l76 40l-45 -1112zM116 880q4 48 38 82t78 34q48 0 80 -37t32 -87q0 -47 -38 -79.5t-87 -32.5q-46 3 -75 38q-28 34 -28 82z" />
<glyph unicode="&#xa2;" d="M47 549q0 96 23.5 186.5t65.5 168.5t100 135t128 85v164h52v-152h55q109 0 197 -61l-16 -231h-116v55v61q0 46 -23 76.5t-69 30.5h-16v-795q78 18 130 82t58 146l48 -4v-40q0 -100 -67 -179t-165 -105l-4 -205h-56v193q-12 0 -40 -4q-107 5 -196 84t-89 309zM209 540 q0 -160 41.5 -207t97.5 -53h20v768q-2 -1 -27.5 -15.5t-54 -62.5t-51.5 -154q-23 -108 -26 -276z" />
<glyph unicode="&#xa3;" horiz-adv-x="1321" d="M47 84l3 6l1 2q4 45 44.5 89t98.5 71.5t113 27.5q61 0 133 -32l140 -52q44 61 44 136q0 64 -84 204l-61 105l-327 -13l-4 80l292 -8l-40 88q-52 118 -52 220q6 96 51.5 177t121 130t167.5 53q120 0 203 -58.5t86 -156.5q-1 -102 -93 -176l-40 27q4 14 10 44.5t6 59.5 q0 72 -49 130t-123 58q-84 0 -134 -59t-54 -145q3 -2 4 -5v-3q4 -67 11.5 -107t29.5 -88l88 -181h403v-67h-368q64 -96 63 -172q0 -97 -28.5 -177t-65.5 -116q323 -60 395 -72q12 2 17 3t16 3t15 3l12 3q38 14 66 56t43 84t15 51l60 -27l-80 -180q-62 -144 -196 -143 q-46 0 -114 12.5t-81 18.5l-256 72q-73 -87 -269 -111q-229 0 -233 135zM112 80q0 -71 136 -80q27 10 85.5 19t93.5 20t65 41q-80 55 -283 55q-87 0 -97 -55z" />
<glyph unicode="&#xa5;" horiz-adv-x="1239" d="M33 1164v79q162 -19 274 -23q119 5 265 23v-79h-93q-6 0 -22.5 2t-24.5 2q-32 0 -45 -40q2 -12 8 -24t14.5 -27t10.5 -20l256 -441l208 380q12 22 24 45.5t20 45t8 37.5q0 48 -84 48h-88h-24v75q94 -10 224 -10q128 0 224 10v-67h-43q-38 0 -66.5 -26t-51 -63t-44.5 -75 l-219 -412h288v-88h-327v-129h327v-84h-327v-63q0 -41 12.5 -84.5t30.5 -59.5q30 -22 108 -28q16 4 40 4h80v-76q-175 20 -312 20q-160 0 -332 -24v76h25q123 0 172 24q43 26 43 127v84h-299v84h299v129h-299v88h252l-248 387q-36 59 -56.5 89t-53.5 57t-75 27h-56h-23z" />
<glyph unicode="&#xa6;" horiz-adv-x="200" d="M60 -488v1752h132v-1752h-132z" />
<glyph unicode="&#xa7;" horiz-adv-x="860" d="M43 484q0 73 35.5 130t101.5 113q-76 65 -92 170q0 110 53 196.5t144 134.5t199 48q114 0 228 -52q0 -48 -10 -132t-10 -128l-51 4l-13 144q-94 80 -216 80q-89 0 -150.5 -45t-77.5 -135q0 -144 248 -216q120 -35 189.5 -63.5t126.5 -90.5q57 -60 57 -158 q-2 -64 -30 -104t-99 -108q108 -68 108 -196q-4 -88 -67 -174.5t-159 -143t-194 -61.5q-156 0 -280 80l20 264h48v-92q0 -81 78 -117q78 -37 166 -37q272 -1 272 225q0 48 -36 82t-103 62t-213 80l-64 24q-93 32 -137.5 69t-56.5 69t-15 78zM156 536q2 -50 66 -89t172 -75 t198 -65l36 -14q31 43 42.5 64.5t17.5 58.5v24q0 51 -33 99.5t-110 72.5l-317 100l-23 -32q-49 -52 -49 -144z" />
<glyph unicode="&#xa8;" horiz-adv-x="540" d="M51 1159q0 40 25 71q26 30 64 30q40 0 64 -26t24 -66t-26 -68.5t-62 -28.5q-34 0 -59.5 25.5t-29.5 62.5zM316 1159q0 40 25 70.5t63 30.5q40 0 68 -30t28 -71q-3 -36 -30.5 -62t-65.5 -26q-34 0 -60 26.5t-28 61.5z" />
<glyph unicode="&#xa9;" horiz-adv-x="1339" d="M47 628q2 120 42.5 233t120.5 202t198 141t268 52t268 -52t197.5 -141t119 -201t39.5 -234q0 -121 -39.5 -233.5t-119 -201.5t-197.5 -141t-268 -52t-268 52t-198 141t-121 202t-42 233zM116 628q2 -146 66 -274t190.5 -207t303.5 -79t304.5 79t192 208t64.5 273 q0 143 -64.5 272.5t-192 208.5t-304.5 79t-303.5 -79t-190.5 -207t-66 -274zM309 620q0 154 88 246t203 111q28 4 84 4q58 0 110 -10.5t146 -34.5l-20 -148h-31v64q0 21 -33.5 45t-91.5 35q4 0 -26 4t-58 4q-124 0 -195 -85t-73 -214q4 -16 4 -53q10 -78 50 -139t102 -97 t132 -40q76 0 120 14t112 46l8 -8l-16 -44q-42 -22 -108 -39t-120 -17q-168 10 -267 90t-117 222q-2 16 -3 44z" />
<glyph unicode="&#xaa;" horiz-adv-x="600" d="M68 772q4 102 61.5 213t132.5 186.5t125 75.5q8 0 22.5 -2t22.5 -2l84 9q-24 -238 -28 -265q-6 -107 -13 -191q7 -80 21 -79q10 4 23 5.5t17 2.5l19 6l17 -31q-36 -4 -96 -30t-80 -33q-4 0 -9 6q25 129 25 193v92l-105 -168q-29 -48 -77 -83.5t-90 -35.5q-35 2 -53.5 41 t-18.5 90zM100 465v90h400v-90h-400zM156 828q0 -42 9 -65t44 -23q59 2 118 104.5t93 216.5q12 29 12 67q0 66 -32 76q-41 0 -96.5 -56t-98.5 -144q-43 -86 -49 -176z" />
<glyph unicode="&#xab;" horiz-adv-x="932" d="M51 404v184l365 272v-180l-260 -184l256 -184v-187zM508 408v180l368 272v-176l-260 -188l252 -180v-187z" />
<glyph unicode="&#xac;" horiz-adv-x="1360" d="M47 440v96h1257v-536h-104v440h-1153z" />
<glyph unicode="&#xad;" d="M43 492v132h625v-132h-625z" />
<glyph unicode="&#xae;" horiz-adv-x="1343" d="M47 628q2 120 42.5 233t120.5 202t198 141t268 52t268 -52t197.5 -141t119 -201t39.5 -234q0 -121 -39.5 -233.5t-119 -201.5t-197.5 -141t-268 -52t-268 52t-198 141t-121 202t-42 233zM116 628q2 -146 66 -274t190.5 -207t303.5 -79t304.5 79t192 208t64.5 273 q0 143 -64.5 272.5t-192 208.5t-304.5 79t-303.5 -79t-190.5 -207t-66 -274zM387 280v27q92 -1 92 57v516q1 56 -63 56h-29v32h340q82 0 141.5 -41.5t59.5 -115.5q0 -75 -46 -109t-142 -74l220 -284q3 -5 12.5 -14.5t23.5 -13.5q6 0 10 -2t10 -2v-28q-15 0 -31 2 q-17 3 -29 3q-50 -1 -76 -9l-272 357l4 15l35 -5q70 0 127.5 39.5t57.5 101.5q0 66 -49 105t-115 39q-24 0 -92 -16v-552q0 -58 92 -57v-27h-281z" />
<glyph unicode="&#xb1;" horiz-adv-x="796" d="M43 -4v64h701v-64h-701zM56 516v84h304v308h84v-308h308v-84h-312v-307h-80v307h-304z" />
<glyph unicode="&#xb4;" horiz-adv-x="456" d="M41 1104l243 204l112 -96l-328 -145z" />
<glyph unicode="&#xb5;" horiz-adv-x="1188" d="M56 -312q0 56 32.5 159.5t32.5 152.5v991l163 -8v-684q0 -80 51 -143.5t130 -63.5q51 2 109 31t98 76.5t40 99.5v688h164v-772q0 -60 32 -112t88 -52q62 11 88 93l16 52h32l-12 -61q-13 -71 -88.5 -119.5t-151.5 -48.5q-64 10 -116 64.5t-56 128.5l-48 -52 q-50 -57 -126 -94.5t-130 -37.5q-55 4 -121 31.5t-103 80.5v-68q0 -42 8.5 -72t27 -76t27.5 -83t9 -86q0 -52 -29 -93.5t-75 -41.5q-39 3 -64.5 37.5t-27.5 82.5z" />
<glyph unicode="&#xb6;" horiz-adv-x="1065" d="M41 996q3 56 15 92q22 58 78 98t126 59t136 19l24 -4q12 0 137 -6.5t170 -6.5q51 0 143 4.5t150 4.5v-52q-81 0 -127 -16q-45 -13 -45 -113v-1163q0 -96 125 -96h35v-48q-56 0 -168 4.5t-184 4.5q-71 0 -186.5 -4.5t-176.5 -4.5v48l43 4q67 14 98 31t31 65v725 q-106 0 -202.5 42.5t-157.5 124.5t-64 188zM236 968q0 -94 61 -166t172 -94v480l-29 4q-30 0 -75.5 -19.5t-84.5 -69.5q-38 -51 -44 -135zM604 -160h113v1352h-113v-1352z" />
<glyph unicode="&#xb7;" horiz-adv-x="432" d="M47 555q3 68 57 115t124 47q44 -4 80 -30.5t56.5 -67.5t20.5 -87q-3 -69 -52 -116.5t-118 -47.5q-68 0 -118 55.5t-50 131.5z" />
<glyph unicode="&#xba;" horiz-adv-x="563" d="M68 832q2 118 25 207t87 148.5t180 59.5q66 0 95 -73q29 -72 33 -174q0 -95 -23 -176.5t-79 -135t-150 -55.5q-12 4 -27 4q-74 5 -107.5 44t-33.5 151zM96 469v90h336v-90h-336zM160 889q0 -98 19 -154.5t89 -58.5q69 0 98.5 74.5t29.5 185.5q0 264 -120 264 q-40 0 -66 -54.5t-38 -127.5t-12 -129z" />
<glyph unicode="&#xbb;" horiz-adv-x="919" d="M41 676v176l363 -272v-180l-357 -279v186l252 181zM504 676v180l364 -272v-184l-360 -279v186l252 181z" />
<glyph unicode="&#xbf;" horiz-adv-x="600" d="M47 -240q5 114 61 244l279 680l57 -37l-155 -442q-75 -221 -80 -357q7 -180 151 -180q92 0 176 68l19 -16q-55 -108 -55 -204q-20 -7 -68 -17.5t-108 -10.5q-118 0 -194 76t-83 196zM260 876q0 49 33 86.5t84 37.5q47 0 81 -35t34 -81q0 -54 -33 -91t-82 -37 q-48 0 -81 36t-36 84z" />
<glyph unicode="&#xc0;" horiz-adv-x="1323" d="M24 -8v76q10 0 44 -8q124 6 180 149q282 708 305 995q44 6 68 10t49.5 12t60.5 26q134 -398 178.5 -530t102.5 -282q46 -132 74 -210t53.5 -118t60.5 -40h92v-68q-92 4 -244 4q-84 0 -292 -8v72l108 -4q84 0 84 57q0 5 -2 16t-2 15l-100 300h-408l-104 -272 q-4 -20 -12 -53q0 -59 112 -67q58 8 80 8v-80q-176 16 -244 16q-76 0 -244 -16zM465 532h350l-187 548zM469 1392l119 116l236 -156l-32 -35z" />
<glyph unicode="&#xc1;" horiz-adv-x="1331" d="M24 -8v76q10 0 44 -8q124 6 180 149q282 708 305 995q44 6 68 10t49.5 12t60.5 26q134 -398 178.5 -530t102.5 -282q46 -132 74 -210t53.5 -118t60.5 -40h92v-68q-92 4 -244 4q-84 0 -292 -8v72l108 -4q84 0 84 57q0 5 -2 16t-2 15l-100 300h-408l-104 -272 q-4 -20 -12 -53q0 -59 112 -67q58 8 80 8v-80q-176 16 -244 16q-76 0 -244 -16zM448 1344l244 204l113 -96l-330 -144zM465 532h350l-187 548z" />
<glyph unicode="&#xc2;" horiz-adv-x="1331" d="M24 -8v76q10 0 44 -8q124 6 180 149q282 708 305 995q44 6 68 10t49.5 12t60.5 26q134 -398 178.5 -530t102.5 -282q46 -132 74 -210t53.5 -118t60.5 -40h92v-68q-92 4 -244 4q-84 0 -292 -8v72l108 -4q84 0 84 57q0 5 -2 16t-2 15l-100 300h-408l-104 -272 q-4 -20 -12 -53q0 -59 112 -67q58 8 80 8v-80q-176 16 -244 16q-76 0 -244 -16zM381 1308l260 236l258 -223l-258 90zM465 532h350l-187 548z" />
<glyph unicode="&#xc3;" horiz-adv-x="1331" d="M24 -8v76q10 0 44 -8q124 6 180 149q282 708 305 995q44 6 68 10t49.5 12t60.5 26q134 -398 178.5 -530t102.5 -282q46 -132 74 -210t53.5 -118t60.5 -40h92v-68q-92 4 -244 4q-84 0 -292 -8v72l108 -4q84 0 84 57q0 5 -2 16t-2 15l-100 300h-408l-104 -272 q-4 -20 -12 -53q0 -59 112 -67q58 8 80 8v-80q-176 16 -244 16q-76 0 -244 -16zM404 1380q52 128 180 140q28 0 51 -14t52 -39t44 -35t33 -12q8 4 16 4q30 12 60 48l49 -16q-14 -62 -58.5 -100t-109.5 -48q-26 0 -48.5 13t-51.5 37.5t-50 37.5t-47 13q-34 0 -63 -45z M465 532h350l-187 548z" />
<glyph unicode="&#xc4;" horiz-adv-x="1335" d="M24 -8v76q10 0 44 -8q124 6 180 149q282 708 305 995q44 6 68 10t49.5 12t60.5 26q134 -398 178.5 -530t102.5 -282q46 -132 74 -210t53.5 -118t60.5 -40h92v-68q-92 4 -244 4q-84 0 -292 -8v72l108 -4q84 0 84 57q0 5 -2 16t-2 15l-100 300h-408l-104 -272 q-4 -20 -12 -53q0 -59 112 -67q58 8 80 8v-80q-176 16 -244 16q-76 0 -244 -16zM428 1401q0 39 25 68.5t63 29.5q39 0 63.5 -26t24.5 -64q0 -40 -26.5 -68t-61.5 -28q-36 0 -60.5 25.5t-27.5 62.5zM465 532h350l-187 548zM692 1401q0 39 24 69q24 29 64 29q38 0 67 -29.5 t29 -68.5q-3 -38 -30 -63q-28 -25 -66 -25q-36 0 -60 25t-28 63z" />
<glyph unicode="&#xc5;" horiz-adv-x="1335" d="M24 -8v76q10 0 44 -8q124 6 180 149q282 708 305 995q44 6 68 10t49.5 12t60.5 26q134 -398 178.5 -530t102.5 -282q46 -132 74 -210t53.5 -118t60.5 -40h92v-68q-92 4 -244 4q-84 0 -292 -8v72l108 -4q84 0 84 57q0 5 -2 16t-2 15l-100 300h-408l-104 -272 q-4 -20 -12 -53q0 -59 112 -67q58 8 80 8v-80q-176 16 -244 16q-76 0 -244 -16zM465 532h350l-187 548zM516 1440q0 48 36 84t85 36q52 0 87.5 -33t35.5 -83q0 -53 -36 -90t-87 -37q-49 0 -85 36q-36 37 -36 87zM563 1436q0 -26 22 -47t52 -21q29 0 52 21t23 47 q0 30 -22.5 51t-52.5 21q-31 0 -52.5 -21t-21.5 -51z" />
<glyph unicode="&#xc6;" horiz-adv-x="1829" d="M33 -8l23 76q8 0 40 -8q106 12 184 88l52 57q36 40 141 182.5t214.5 301.5t198 299t101.5 184l-43 20l-8 60l748 4l16 -283h-76l-4 71q0 56 -47 88t-105 32h-280v-480l305 8q24 4 41.5 7t31 10t22 22t8.5 41v60h69q0 -88 -4 -136q2 -38 5 -114t5 -117h-75v71q0 30 -21 51 t-51 21h-21l-311 8v-332q0 -89 26 -136.5t105 -47.5h209q64 0 120 44q37 30 50 93t14 99h72l-37 -328q-240 8 -303 8h-192q-320 0 -492 -12l24 72l80 -4q62 0 109 22t47 78l4 289h-416l-204 -277q-30 -52 -36 -88q3 0 4 -1.5t1 -2.5q4 -20 84 -28q30 3 52 4.5t32 3.5 l-29 -76q-116 16 -232 16q-68 0 -150 -8t-101 -12zM668 528h360v547z" />
<glyph unicode="&#xc7;" horiz-adv-x="1317" d="M47 628q4 172 93.5 320.5t240.5 236t327 87.5q52 0 103 -8t131 -25t123.5 -24t93.5 -7v-288h-63q-1 7 -9.5 50.5t-43 89t-117 80t-222.5 36.5q-140 0 -254 -62.5t-182 -171.5q-68 -110 -76 -242q0 -156 79 -288.5t209 -210.5t276 -80q8 4 20 4q101 3 167.5 18.5 t114.5 52.5q46 37 78 103l72 153l68 -36l-188 -369q-76 -40 -175 -60t-192 -20l-49 -88h63q43 0 72 -30t29 -72q0 -59 -50 -98t-110 -39q-123 10 -123 76q4 40 39 40q45 0 45 -49v-19q10 -20 43 -20q37 7 60.5 31.5t23.5 60.5q0 31 -12 44.5t-42 23.5t-34 12q-24 -5 -48 -20 l-16 12l68 135q-140 10 -256 62.5t-201 142t-131 206.5q-45 116 -45 250z" />
<glyph unicode="&#xc8;" horiz-adv-x="1065" d="M24 -4v80h120q78 0 103 37t25 119v624q0 124 -10 199.5t-47 103.5q-13 17 -94 17h-97v76q188 -11 432 -15q245 5 437 15l15 -284l-72 -4l-8 76q-6 66 -46 90q-40 25 -110 25h-268v-479l304 8q52 4 77.5 18.5t25.5 65.5v56h69q0 -84 -4 -132q7 -136 13 -231h-74v71 q0 72 -94 72l-309 8v-332q0 -62 8 -100t36 -61t84 -23h212q103 0 139.5 69.5t40.5 166.5h76l-40 -332q-292 16 -432 16q-226 0 -512 -20zM312 1392l120 116l236 -156l-31 -35z" />
<glyph unicode="&#xc9;" horiz-adv-x="1065" d="M24 -4v80h120q78 0 103 37t25 119v624q0 124 -10 199.5t-47 103.5q-13 17 -94 17h-97v76q188 -11 432 -15q245 5 437 15l15 -284l-72 -4l-8 76q-6 66 -46 90q-40 25 -110 25h-268v-479l304 8q52 4 77.5 18.5t25.5 65.5v56h69q0 -84 -4 -132q7 -136 13 -231h-74v71 q0 72 -94 72l-309 8v-332q0 -62 8 -100t36 -61t84 -23h212q103 0 139.5 69.5t40.5 166.5h76l-40 -332q-292 16 -432 16q-226 0 -512 -20zM356 1340l244 204l112 -96l-327 -144z" />
<glyph unicode="&#xca;" horiz-adv-x="1061" d="M24 -4v80h120q78 0 103 37t25 119v624q0 124 -10 199.5t-47 103.5q-13 17 -94 17h-97v76q188 -11 432 -15q245 5 437 15l15 -284l-72 -4l-8 76q-6 66 -46 90q-40 25 -110 25h-268v-479l304 8q52 4 77.5 18.5t25.5 65.5v56h69q0 -84 -4 -132q7 -136 13 -231h-74v71 q0 72 -94 72l-309 8v-332q0 -62 8 -100t36 -61t84 -23h212q103 0 139.5 69.5t40.5 166.5h76l-40 -332q-292 16 -432 16q-226 0 -512 -20zM232 1308l260 236l260 -223l-260 90z" />
<glyph unicode="&#xcb;" horiz-adv-x="1061" d="M24 -4v80h120q78 0 103 37t25 119v624q0 124 -10 199.5t-47 103.5q-13 17 -94 17h-97v76q188 -11 432 -15q245 5 437 15l15 -284l-72 -4l-8 76q-6 66 -46 90q-40 25 -110 25h-268v-479l304 8q52 4 77.5 18.5t25.5 65.5v56h69q0 -84 -4 -132q7 -136 13 -231h-74v71 q0 72 -94 72l-309 8v-332q0 -62 8 -100t36 -61t84 -23h212q103 0 139.5 69.5t40.5 166.5h76l-40 -332q-292 16 -432 16q-226 0 -512 -20zM268 1401q0 40 25 69t63 29t63 -25.5t25 -64.5q0 -40 -26 -68t-62 -28t-60 25t-28 63zM532 1401q0 39 25 68.5t63 29.5t67.5 -30 t29.5 -68q-3 -37 -31 -63q-28 -25 -66 -25q-36 0 -60 25.5t-28 62.5z" />
<glyph unicode="&#xcc;" horiz-adv-x="655" d="M43 0v76h92q109 0 109 152v680q0 113 -9 183.5t-43 76.5q-16 4 -71 4h-78v75q45 -4 269 -14q218 9 272 14v-79h-84q-66 0 -91 -40t-28 -116q4 -8 4 -25v-623q0 -130 19.5 -211t95.5 -81h96v-72q-122 16 -276 16q-155 0 -277 -16zM112 1380l120 115l237 -155l-33 -36z" />
<glyph unicode="&#xcd;" horiz-adv-x="655" d="M43 0v76h92q109 0 109 152v680q0 113 -9 183.5t-43 76.5q-16 4 -71 4h-78v75q45 -4 269 -14q218 9 272 14v-79h-84q-66 0 -91 -40t-28 -116q4 -8 4 -25v-623q0 -130 19.5 -211t95.5 -81h96v-72q-122 16 -276 16q-155 0 -277 -16zM160 1344l244 204l112 -96l-328 -144z " />
<glyph unicode="&#xce;" horiz-adv-x="655" d="M43 0v76h92q109 0 109 152v680q0 113 -9 183.5t-43 76.5q-16 4 -71 4h-78v75q45 -4 269 -14q218 9 272 14v-79h-84q-66 0 -91 -40t-28 -116q4 -8 4 -25v-623q0 -130 19.5 -211t95.5 -81h96v-72q-122 16 -276 16q-155 0 -277 -16zM56 1300l260 236l260 -223l-260 92z" />
<glyph unicode="&#xcf;" horiz-adv-x="655" d="M43 0v76h92q109 0 109 152v680q0 113 -9 183.5t-43 76.5q-16 4 -71 4h-78v75q45 -4 269 -14q218 9 272 14v-79h-84q-66 0 -91 -40t-28 -116q4 -8 4 -25v-623q0 -130 19.5 -211t95.5 -81h96v-72q-122 16 -276 16q-155 0 -277 -16zM96 1401q0 40 25 69t63 29t63 -25.5 t25 -64.5q0 -40 -26 -68t-62 -28t-60 25t-28 63zM360 1401q0 39 25 68.5t63 29.5t67.5 -30t29.5 -68q-3 -37 -31 -63q-28 -25 -66 -25q-36 0 -60 25.5t-28 62.5z" />
<glyph unicode="&#xd1;" horiz-adv-x="1556" d="M41 4v76h71q70 0 90 38q21 38 21 114v36v789q0 64 -18.5 91.5t-75.5 27.5h-86v76q42 -10 166 -19q121 9 155 14l888 -995l-40 805q0 67 -18 87t-62 20h-71h-61l4 83q116 -12 243 -18q143 6 261 18v-79h-93q-51 0 -69.5 -22.5t-18.5 -74.5l-4 -1108h-47l-960 1098l4 -768 q0 -108 26.5 -164.5t114.5 -56.5h88v-72q-111 16 -256 16q-128 0 -252 -12zM479 1376q53 128 181 140q28 0 51 -14t54 -41t43 -35.5t32 -10.5q8 5 16 5q28 10 60 48l48 -16q-14 -62 -58 -100t-110 -48q-26 0 -48 13t-50 37t-50.5 37.5t-47.5 13.5q-22 0 -33 -9.5t-31 -35.5z " />
<glyph unicode="&#xd2;" horiz-adv-x="1392" d="M47 647q0 138 50.5 254.5t138.5 200.5t205 130t247 48q178 0 331 -90t243 -243t90 -331q0 -197 -88 -342.5t-236 -221.5q-150 -76 -328 -76q-184 0 -333 90t-233.5 244.5t-86.5 336.5zM200 664q0 -151 62.5 -290.5t176 -225.5t257.5 -88q5 2 8 3l4 1q142 4 252 66.5 t171 185.5q61 122 61 300q0 107 -36 208.5t-102.5 181t-157.5 126.5q-92 48 -196 48q-146 0 -258.5 -67.5t-175 -184t-66.5 -264.5zM484 1388l120 115l236 -155l-31 -35z" />
<glyph unicode="&#xd3;" horiz-adv-x="1392" d="M47 647q0 138 50.5 254.5t138.5 200.5t205 130t247 48q178 0 331 -90t243 -243t90 -331q0 -197 -88 -342.5t-236 -221.5q-150 -76 -328 -76q-184 0 -333 90t-233.5 244.5t-86.5 336.5zM200 664q0 -151 62.5 -290.5t176 -225.5t257.5 -88q5 2 8 3l4 1q142 4 252 66.5 t171 185.5q61 122 61 300q0 107 -36 208.5t-102.5 181t-157.5 126.5q-92 48 -196 48q-146 0 -258.5 -67.5t-175 -184t-66.5 -264.5zM484 1348l243 204l113 -96l-328 -143z" />
<glyph unicode="&#xd4;" horiz-adv-x="1392" d="M47 647q0 138 50.5 254.5t138.5 200.5t205 130t247 48q178 0 331 -90t243 -243t90 -331q0 -197 -88 -342.5t-236 -221.5q-150 -76 -328 -76q-184 0 -333 90t-233.5 244.5t-86.5 336.5zM200 664q0 -151 62.5 -290.5t176 -225.5t257.5 -88q5 2 8 3l4 1q142 4 252 66.5 t171 185.5q61 122 61 300q0 107 -36 208.5t-102.5 181t-157.5 126.5q-92 48 -196 48q-146 0 -258.5 -67.5t-175 -184t-66.5 -264.5zM420 1304l260 236l260 -223l-260 92z" />
<glyph unicode="&#xd5;" horiz-adv-x="1392" d="M47 647q0 138 50.5 254.5t138.5 200.5t205 130t247 48q178 0 331 -90t243 -243t90 -331q0 -197 -88 -342.5t-236 -221.5q-150 -76 -328 -76q-184 0 -333 90t-233.5 244.5t-86.5 336.5zM200 664q0 -151 62.5 -290.5t176 -225.5t257.5 -88q5 2 8 3l4 1q142 4 252 66.5 t171 185.5q61 122 61 300q0 107 -36 208.5t-102.5 181t-157.5 126.5q-92 48 -196 48q-146 0 -258.5 -67.5t-175 -184t-66.5 -264.5zM440 1405q48 127 180 139q27 0 50.5 -13t53.5 -39.5t44 -36t33 -11.5q8 4 14 4q29 10 61 47l48 -15q-14 -62 -59 -100.5t-109 -48.5 q-26 0 -48.5 12.5t-51 37.5t-50 38t-47.5 13q-29 0 -63 -44z" />
<glyph unicode="&#xd6;" horiz-adv-x="1396" d="M47 647q0 138 50.5 254.5t138.5 200.5t205 130t247 48q178 0 331 -90t243 -243t90 -331q0 -197 -88 -342.5t-236 -221.5q-150 -76 -328 -76q-184 0 -333 90t-233.5 244.5t-86.5 336.5zM200 664q0 -151 62.5 -290.5t176 -225.5t257.5 -88q5 2 8 3l4 1q142 4 252 66.5 t171 185.5q61 122 61 300q0 107 -36 208.5t-102.5 181t-157.5 126.5q-92 48 -196 48q-146 0 -258.5 -67.5t-175 -184t-66.5 -264.5zM469 1415q0 41 24.5 71t61.5 30q40 0 64 -26t24 -66t-26 -68.5t-62 -28.5q-34 0 -59.5 26.5t-26.5 61.5zM731 1415q0 40 25 70.5t63 30.5 q40 0 68.5 -30t28.5 -71q-3 -36 -30.5 -62t-66.5 -26q-34 0 -59.5 26.5t-28.5 61.5z" />
<glyph unicode="&#xd8;" horiz-adv-x="1396" d="M51 643q0 139 49.5 256.5t138 203t204 131.5t245.5 46q131 0 248 -47l64 135l71 -24l-63 -144q100 -58 178 -149t122 -204t44 -231q0 -150 -51.5 -270t-143 -202.5t-211.5 -125t-254 -42.5q-99 0 -231 44l-80 -168l-74 27l80 172q-154 86 -245 242.5t-91 349.5zM205 668 q0 -157 63.5 -295t167.5 -221l457 984q-10 10 -62 27t-139 17q-136 0 -246 -60t-174 -176t-67 -276zM500 112q102 -48 208 -48q142 4 252 66.5t171 185.5q61 122 61 300q0 144 -62 273t-170 207z" />
<glyph unicode="&#xd9;" horiz-adv-x="1427" d="M47 1176v76q62 -10 246 -19q191 9 260 19v-80h-92q-51 0 -74.5 -22t-29 -58t-5.5 -105v-499q0 -142 47 -235t130.5 -138t195.5 -47q196 0 293.5 115.5t97.5 365.5v354q0 128 -16 183.5t-45 68.5t-91 13h-88v79q64 -10 216 -18q166 6 288 18v-79h-59q-66 0 -83.5 -41 t-17.5 -140v-475q0 -274 -134 -407t-374 -133q-115 3 -204 27.5t-156.5 80.5t-105 155t-37.5 244v429q0 106 -5.5 158t-29.5 81t-78 29h-49zM536 1380l120 115l237 -155l-33 -36z" />
<glyph unicode="&#xda;" horiz-adv-x="1427" d="M47 1176v76q62 -10 246 -19q191 9 260 19v-80h-92q-51 0 -74.5 -22t-29 -58t-5.5 -105v-499q0 -142 47 -235t130.5 -138t195.5 -47q196 0 293.5 115.5t97.5 365.5v354q0 128 -16 183.5t-45 68.5t-91 13h-88v79q64 -10 216 -18q166 6 288 18v-79h-59q-66 0 -83.5 -41 t-17.5 -140v-475q0 -274 -134 -407t-374 -133q-115 3 -204 27.5t-156.5 80.5t-105 155t-37.5 244v429q0 106 -5.5 158t-29.5 81t-78 29h-49zM576 1344l243 204l113 -96l-328 -144z" />
<glyph unicode="&#xdb;" horiz-adv-x="1427" d="M47 1176v76q62 -10 246 -19q191 9 260 19v-80h-92q-51 0 -74.5 -22t-29 -58t-5.5 -105v-499q0 -142 47 -235t130.5 -138t195.5 -47q196 0 293.5 115.5t97.5 365.5v354q0 128 -16 183.5t-45 68.5t-91 13h-88v79q64 -10 216 -18q166 6 288 18v-79h-59q-66 0 -83.5 -41 t-17.5 -140v-475q0 -274 -134 -407t-374 -133q-115 3 -204 27.5t-156.5 80.5t-105 155t-37.5 244v429q0 106 -5.5 158t-29.5 81t-78 29h-49zM436 1304l260 236l260 -223l-260 92z" />
<glyph unicode="&#xdc;" horiz-adv-x="1431" d="M47 1176v76q62 -10 246 -19q191 9 260 19v-80h-92q-51 0 -74.5 -22t-29 -58t-5.5 -105v-499q0 -142 47 -235t130.5 -138t195.5 -47q196 0 293.5 115.5t97.5 365.5v354q0 128 -16 183.5t-45 68.5t-91 13h-88v79q64 -10 216 -18q166 6 288 18v-79h-59q-66 0 -83.5 -41 t-17.5 -140v-475q0 -274 -134 -407t-374 -133q-115 3 -204 27.5t-156.5 80.5t-105 155t-37.5 244v429q0 106 -5.5 158t-29.5 81t-78 29h-49zM504 1409q0 40 25.5 69.5t62.5 29.5q38 0 63 -26.5t25 -66.5q0 -39 -26 -66.5t-62 -27.5q-34 0 -59.5 25.5t-28.5 62.5zM768 1409 q0 38 25.5 68.5t62.5 30.5q38 0 67 -30.5t29 -68.5q-3 -36 -30.5 -62t-65.5 -26q-34 0 -59.5 25.5t-28.5 62.5z" />
<glyph unicode="&#xdd;" horiz-adv-x="1272" d="M56 1164v79q154 -19 268 -23q98 4 272 23v-79h-92q-68 0 -76 -9q-4 -5 -12 -31q2 -12 28 -67l256 -441l212 380q10 19 23 43t21 44.5t8 36.5q0 52 -108 52h-92v71q134 -19 223 -23q99 5 225 23v-63h-48q-36 0 -65 -26.5t-51 -66.5t-40 -71l-260 -480v-296q0 -44 12 -86 q12 -44 32 -58q32 -20 136 -28q37 4 92 4v-76q-178 20 -312 20q-168 0 -331 -24v76q43 0 63 -4q96 8 132 28q40 27 40 131v313l-292 455q-48 83 -88.5 128t-102.5 45h-73zM608 1356l244 204l112 -96l-327 -143z" />
<glyph unicode="&#xdf;" horiz-adv-x="960" d="M47 16v52q17 0 25 -4q46 6 77 37.5t31 78.5v524l-124 -8v35l128 61q-3 18 -4.5 39t-3.5 33q8 88 28 150t68 110q180 188 336 189q131 0 208 -78.5t77 -206.5q0 -86 -33 -176l-51 -144q-7 2 -34.5 15t-48 19t-42.5 6q-43 0 -71.5 -21t-28.5 -67q0 -34 31 -58t97 -57 l60 -33q152 -74 152 -219q0 -74 -47.5 -143t-121 -111.5t-143.5 -42.5q-34 2 -56 3t-42.5 6t-42.5 19l-23 17v-25h-401zM320 176q0 -50 22 -77t70 -43q12 4 36 4l40 153h52l-4 -82q34 -33 50 -43t57 -16q76 0 119 40t43 88q0 110 -164 204l-33 20q-70 49 -101.5 83t-31.5 89 q0 46 36.5 102t89.5 95t95 39h72l4 44q0 22 4 59t4 61q0 66 -29.5 120t-82 85.5t-119.5 31.5q-118 0 -171.5 -94.5t-53.5 -222.5z" />
<glyph unicode="&#xe0;" horiz-adv-x="923" d="M43 209q6 128 65 268.5t144.5 259.5t175.5 193t152 74q18 0 41 -8.5t39 -8.5l145 17q-11 -129 -33 -354.5t-28.5 -301t-8.5 -143.5q6 -97 29 -97q58 19 104 27l25 -47q-103 -22 -145 -38t-136 -66q-4 -4 -16 -4q-8 0 -8 24q23 142 29.5 207t6.5 153v105l-176 -285 q-52 -86 -130 -141t-158 -55q-116 6 -117 221zM180 264q10 -124 92 -124q68 2 139 88.5t129 209.5q56 122 88 230q18 54 19 141q0 90 -47 111q-8 6 -22 6q-44 0 -108.5 -57t-128 -152t-106.5 -207t-51 -217q0 -16 -4 -29zM408 1208l120 115l236 -155l-33 -36z" />
<glyph unicode="&#xe1;" horiz-adv-x="923" d="M43 209q6 128 65 268.5t144.5 259.5t175.5 193t152 74q18 0 41 -8.5t39 -8.5l145 17q-11 -129 -33 -354.5t-28.5 -301t-8.5 -143.5q6 -97 29 -97q58 19 104 27l25 -47q-103 -22 -145 -38t-136 -66q-4 -4 -16 -4q-8 0 -8 24q23 142 29.5 207t6.5 153v105l-176 -285 q-52 -86 -130 -141t-158 -55q-116 6 -117 221zM180 264q10 -124 92 -124q68 2 139 88.5t129 209.5q56 122 88 230q18 54 19 141q0 90 -47 111q-8 6 -22 6q-44 0 -108.5 -57t-128 -152t-106.5 -207t-51 -217q0 -16 -4 -29zM424 1176l244 204l112 -96l-328 -144z" />
<glyph unicode="&#xe2;" horiz-adv-x="923" d="M43 209q6 128 65 268.5t144.5 259.5t175.5 193t152 74q18 0 41 -8.5t39 -8.5l145 17q-11 -129 -33 -354.5t-28.5 -301t-8.5 -143.5q6 -97 29 -97q58 19 104 27l25 -47q-103 -22 -145 -38t-136 -66q-4 -4 -16 -4q-8 0 -8 24q23 142 29.5 207t6.5 153v105l-176 -285 q-52 -86 -130 -141t-158 -55q-116 6 -117 221zM180 264q10 -124 92 -124q68 2 139 88.5t129 209.5q56 122 88 230q18 54 19 141q0 90 -47 111q-8 6 -22 6q-44 0 -108.5 -57t-128 -152t-106.5 -207t-51 -217q0 -16 -4 -29zM293 1128l260 236l258 -224l-258 93z" />
<glyph unicode="&#xe3;" horiz-adv-x="932" d="M43 209q6 128 65 268.5t144.5 259.5t175.5 193t152 74q18 0 41 -8.5t39 -8.5l145 17q-11 -129 -33 -354.5t-28.5 -301t-8.5 -143.5q6 -97 29 -97q58 19 104 27l25 -47q-103 -22 -145 -38t-136 -66q-4 -4 -16 -4q-8 0 -8 24q23 142 29.5 207t6.5 153v105l-176 -285 q-52 -86 -130 -141t-158 -55q-116 6 -117 221zM180 264q10 -124 92 -124q68 2 139 88.5t129 209.5q56 122 88 230q18 54 19 141q0 90 -47 111q-8 6 -22 6q-44 0 -108.5 -57t-128 -152t-106.5 -207t-51 -217q0 -16 -4 -29zM332 1204q52 128 180 140q28 0 51 -13t53 -40 t44 -37t32 -11q8 4 16 4q29 11 60 49l47 -16q-13 -61 -57.5 -99.5t-110.5 -48.5q-26 0 -47.5 12t-51.5 38t-50 38.5t-46 12.5q-30 0 -65 -45z" />
<glyph unicode="&#xe4;" horiz-adv-x="927" d="M43 209q6 128 65 268.5t144.5 259.5t175.5 193t152 74q18 0 41 -8.5t39 -8.5l145 17q-11 -129 -33 -354.5t-28.5 -301t-8.5 -143.5q6 -97 29 -97q58 19 104 27l25 -47q-103 -22 -145 -38t-136 -66q-4 -4 -16 -4q-8 0 -8 24q23 142 29.5 207t6.5 153v105l-176 -285 q-52 -86 -130 -141t-158 -55q-116 6 -117 221zM180 264q10 -124 92 -124q68 2 139 88.5t129 209.5q56 122 88 230q18 54 19 141q0 90 -47 111q-8 6 -22 6q-44 0 -108.5 -57t-128 -152t-106.5 -207t-51 -217q0 -16 -4 -29zM385 1229q0 39 24.5 68.5t61.5 29.5q40 0 64 -25.5 t24 -64.5q0 -40 -26 -68.5t-62 -28.5q-34 0 -59.5 26t-26.5 63zM647 1229q0 39 25 68.5t63 29.5q40 0 68.5 -29.5t28.5 -68.5q-3 -38 -30.5 -63.5t-66.5 -25.5q-34 0 -59 25.5t-29 63.5z" />
<glyph unicode="&#xe5;" horiz-adv-x="932" d="M43 209q6 128 65 268.5t144.5 259.5t175.5 193t152 74q18 0 41 -8.5t39 -8.5l145 17q-11 -129 -33 -354.5t-28.5 -301t-8.5 -143.5q6 -97 29 -97q58 19 104 27l25 -47q-103 -22 -145 -38t-136 -66q-4 -4 -16 -4q-8 0 -8 24q23 142 29.5 207t6.5 153v105l-176 -285 q-52 -86 -130 -141t-158 -55q-116 6 -117 221zM180 264q10 -124 92 -124q68 2 139 88.5t129 209.5q56 122 88 230q18 54 19 141q0 90 -47 111q-8 6 -22 6q-44 0 -108.5 -57t-128 -152t-106.5 -207t-51 -217q0 -16 -4 -29zM461 1184q0 48 35.5 84t83.5 36q52 0 88 -33t36 -83 q0 -52 -37 -89.5t-87 -37.5q-48 0 -83.5 36.5t-35.5 86.5zM508 1180q0 -26 22 -47t50 -21q30 0 53 20q23 22 23 48q0 30 -22 51t-54 21q-30 0 -51 -21t-21 -51z" />
<glyph unicode="&#xe6;" horiz-adv-x="1327" d="M43 209q6 128 65 268.5t144.5 259.5t175.5 193t152 74q16 0 40 -8.5t40 -8.5l141 17q-11 -84 -17 -84v4q4 0 4 -27q58 54 104 76.5t108 22.5q84 0 136 -35.5t74.5 -95t22.5 -134.5q-1 -63 -25 -172q-220 -68 -424 -90q-2 1 -8 -65q6 -124 51 -225t164 -107q94 0 161.5 72 t67.5 172v28l68 -8q0 -44 -26 -129t-106 -160t-224 -75q-110 0 -192 75q-26 -8 -77.5 -37.5t-66.5 -33.5q-8 0 -12 20q36 270 36 360v113l-172 -285q-50 -86 -128 -141t-160 -55q-116 6 -117 221zM180 264q10 -124 92 -124q66 2 136 88t127 207t93 233q18 54 19 137 q0 94 -47 115q-12 6 -24 6q-45 0 -108.5 -56t-127 -152t-106 -207.5t-50.5 -217.5q0 -16 -4 -29zM792 549q2 -6 3 -11t1 -6l177 27q64 10 99.5 64.5t35.5 128.5q0 79 -20 133.5t-88 54.5q-53 -2 -92 -46.5t-64.5 -111t-37.5 -129.5t-14 -104z" />
<glyph unicode="&#xe7;" horiz-adv-x="727" d="M47 332q0 114 23 229t74 214.5t131.5 160t189.5 60.5q103 0 182 -44v-244h-123v56q0 164 -104 164q-73 -2 -119.5 -78t-67.5 -188t-24 -230q0 -336 176 -336q92 8 146.5 61t75.5 109t21 74h56q0 -19 -14.5 -65.5t-41.5 -97.5t-65 -89q-64 -64 -123.5 -82t-87.5 -18 l-49 -92l78 -4q41 -3 64.5 -31.5t23.5 -73.5q0 -53 -46.5 -92t-106.5 -39h-4q-44 0 -84 21t-40 55q0 16 10.5 26t24.5 10q49 0 49 -48q0 -17 4 -24.5t23 -7.5q38 0 69.5 25t31.5 64q0 22 -9 35.5t-22.5 20.5t-31 11t-34.5 8q-26 -8 -39 -16l-16 8l68 144h-27 q-115 0 -177 100.5t-65 243.5z" />
<glyph unicode="&#xe8;" horiz-adv-x="743" d="M43 391q6 118 26 220.5t61.5 191.5t110.5 143t167 58q84 0 136 -34.5t74.5 -93t22.5 -132.5q-1 -64 -25 -172q-202 -67 -424 -93q-2 1 -8 -71q12 -314 216 -324q62 0 116 35t85.5 94t31.5 123v16l63 -8q0 -42 -25 -124.5t-104 -157t-223 -74.5q-104 0 -172 54 t-98.5 145.5t-30.5 203.5zM192 1220l120 116l237 -156l-33 -35zM196 555q2 -4 3 -6.5t1 -3.5l181 27q64 12 99.5 65t35.5 123q0 80 -20 134t-88 54q-103 -2 -154.5 -141t-57.5 -252z" />
<glyph unicode="&#xe9;" horiz-adv-x="743" d="M43 391q6 118 26 220.5t61.5 191.5t110.5 143t167 58q84 0 136 -34.5t74.5 -93t22.5 -132.5q-1 -64 -25 -172q-202 -67 -424 -93q-2 1 -8 -71q12 -314 216 -324q62 0 116 35t85.5 94t31.5 123v16l63 -8q0 -42 -25 -124.5t-104 -157t-223 -74.5q-104 0 -172 54 t-98.5 145.5t-30.5 203.5zM196 555q2 -4 3 -6.5t1 -3.5l181 27q64 12 99.5 65t35.5 123q0 80 -20 134t-88 54q-103 -2 -154.5 -141t-57.5 -252zM228 1188l243 204l113 -96l-328 -143z" />
<glyph unicode="&#xea;" horiz-adv-x="747" d="M43 391q6 118 26 220.5t61.5 191.5t110.5 143t167 58q84 0 136 -34.5t74.5 -93t22.5 -132.5q-1 -64 -25 -172q-202 -67 -424 -93q-2 1 -8 -71q12 -314 216 -324q62 0 116 35t85.5 94t31.5 123v16l63 -8q0 -42 -25 -124.5t-104 -157t-223 -74.5q-104 0 -172 54 t-98.5 145.5t-30.5 203.5zM100 1140l260 236l260 -223l-260 90zM196 555q2 -4 3 -6.5t1 -3.5l181 27q64 12 99.5 65t35.5 123q0 80 -20 134t-88 54q-103 -2 -154.5 -141t-57.5 -252z" />
<glyph unicode="&#xeb;" horiz-adv-x="747" d="M43 391q6 118 26 220.5t61.5 191.5t110.5 143t167 58q84 0 136 -34.5t74.5 -93t22.5 -132.5q-1 -64 -25 -172q-202 -67 -424 -93q-2 1 -8 -71q12 -314 216 -324q62 0 116 35t85.5 94t31.5 123v16l63 -8q0 -42 -25 -124.5t-104 -157t-223 -74.5q-104 0 -172 54 t-98.5 145.5t-30.5 203.5zM144 1233q0 40 25 69t63 29q40 0 64 -25.5t24 -66.5q0 -39 -26 -66.5t-62 -27.5t-61 25.5t-27 62.5zM196 555q2 -4 3 -6.5t1 -3.5l181 27q64 12 99.5 65t35.5 123q0 80 -20 134t-88 54q-103 -2 -154.5 -141t-57.5 -252zM408 1233q0 39 25 68.5 t63 29.5q40 0 68 -29.5t28 -68.5q-3 -38 -29.5 -63t-66.5 -25q-36 0 -61 25.5t-27 62.5z" />
<glyph unicode="&#xec;" horiz-adv-x="461" d="M37 824v73q117 14 350 90l-71 -991l-156 -33q23 140 35 283.5t16 283.5t4 322zM68 1216l120 115l236 -155l-33 -36z" />
<glyph unicode="&#xed;" horiz-adv-x="469" d="M37 824v73q117 14 350 90l-71 -991l-156 -33q23 140 35 283.5t16 283.5t4 322zM64 1184l243 204l113 -96l-328 -143z" />
<glyph unicode="&#xee;" horiz-adv-x="461" d="M4 1149l260 235l260 -225l-260 93zM37 824v73q117 14 350 90l-71 -991l-156 -33q23 140 35 283.5t16 283.5t4 322z" />
<glyph unicode="&#xef;" horiz-adv-x="461" d="M33 1239q0 42 24.5 71.5t63.5 29.5q38 0 63 -26.5t25 -66.5q0 -38 -26.5 -66t-61.5 -28q-36 0 -60.5 24.5t-27.5 61.5zM37 824v73q117 14 350 90l-71 -991l-156 -33q23 140 35 283.5t16 283.5t4 322zM297 1239q0 41 24.5 71t63.5 30q38 0 66 -30t28 -71q-3 -36 -30 -61 t-64 -25q-36 0 -61.5 25.5t-26.5 60.5z" />
<glyph unicode="&#xf1;" horiz-adv-x="1040" d="M41 828v80q183 0 331 96l-69 -652q64 120 132.5 221t149 198t187.5 210h112l-48 -869l147 19v-71q-153 -6 -299 -93l-32 25q72 260 79 836q-142 -169 -193.5 -234t-108.5 -157.5t-97 -201t-56 -239.5h-124l48 868zM299 1220q52 127 180 140q28 0 51 -13t52 -39t44 -36 q16 -10 34 -12q8 4 16 4q34 13 59 49l49 -17q-15 -62 -59.5 -101t-108.5 -46q-28 0 -49 11.5t-50 36.5t-50 37.5t-47 12.5q-30 0 -64 -43z" />
<glyph unicode="&#xf2;" horiz-adv-x="796" d="M43 307q2 190 40.5 339.5t144.5 247.5t296 102q76 0 125 -62t71 -156q22 -92 24 -194q0 -262 -102 -435t-330 -173h-40q-78 9 -127 37.5t-75.5 97t-26.5 196.5zM200 400q0 -100 10.5 -173t49.5 -126t117 -58q120 0 171.5 132.5t51.5 320.5v28q0 158 -49 279t-160 121 q-98 -5 -141.5 -173.5t-49.5 -350.5zM240 1220l120 116l236 -156l-33 -35z" />
<glyph unicode="&#xf3;" horiz-adv-x="792" d="M43 312q2 190 40.5 339t144.5 247t296 102q76 0 125 -62t71 -156q22 -93 24 -194q0 -168 -42 -305t-138 -220t-252 -83h-40q-78 9 -127 37.5t-75.5 97.5t-26.5 197zM200 404q0 -100 10.5 -173t49.5 -126t117 -58q120 0 171.5 132.5t51.5 320.5v28q0 158 -49 279t-160 121 q-68 -4 -110.5 -95t-60 -210t-20.5 -219zM289 1184l243 204l111 -96l-327 -143z" />
<glyph unicode="&#xf4;" horiz-adv-x="796" d="M43 312q2 190 40.5 339t144.5 247t296 102q76 0 125 -62t71 -156q22 -93 24 -194q0 -168 -42 -305t-138 -220t-252 -83h-40q-78 9 -127 37.5t-75.5 97.5t-26.5 197zM168 1140l260 236l260 -223l-260 90zM200 404q0 -100 10.5 -173t49.5 -126t117 -58q120 0 171.5 132.5 t51.5 320.5v28q0 158 -49 279t-160 121q-68 -4 -110.5 -95t-60 -210t-20.5 -219z" />
<glyph unicode="&#xf5;" horiz-adv-x="788" d="M43 312q2 190 40.5 339t144.5 247t296 102q76 0 125 -62t71 -156q22 -93 24 -194q0 -168 -42 -305t-138 -220t-252 -83h-40q-78 9 -127 37.5t-75.5 97.5t-26.5 197zM200 404q0 -100 10.5 -173t49.5 -126t117 -58q120 0 171.5 132.5t51.5 320.5v28q0 158 -49 279t-160 121 q-68 -4 -110.5 -95t-60 -210t-20.5 -219zM205 1224q48 128 180 140q27 0 49.5 -13t54 -41t43.5 -36t31 -10q9 4 17 4q31 12 61 49l47 -17q-14 -62 -59 -100t-109 -47q-28 0 -49 11.5t-51.5 37t-50.5 38.5q-19 12 -45 12q-30 0 -64 -44z" />
<glyph unicode="&#xf6;" horiz-adv-x="788" d="M43 312q2 190 40.5 339t144.5 247t296 102q76 0 125 -62t71 -156q22 -93 24 -194q0 -168 -42 -305t-138 -220t-252 -83h-40q-78 9 -127 37.5t-75.5 97.5t-26.5 197zM200 404q0 -100 10.5 -173t49.5 -126t117 -58q120 0 171.5 132.5t51.5 320.5v28q0 158 -49 279t-160 121 q-68 -4 -110.5 -95t-60 -210t-20.5 -219zM228 1239q0 42 25 71.5t63 29.5q40 0 64 -26t24 -67q0 -39 -26 -66.5t-62 -27.5q-34 0 -60 25.5t-28 60.5zM492 1239q0 40 25 70.5t63 30.5q40 0 68 -30t28 -71q-3 -36 -30 -61q-26 -25 -66 -25q-34 0 -60 25.5t-28 60.5z" />
<glyph unicode="&#xf8;" horiz-adv-x="815" d="M56 312q2 140 21 257t70 215t147 156t242 60q42 0 72 -13l64 141l59 -20l-75 -164q92 -102 100 -356q0 -168 -42 -305t-138 -220t-252 -83q-54 0 -109 12l-63 -132l-60 28l60 132q-48 30 -72 99t-24 193zM209 404q1 -138 23 -220l313 664q-51 80 -141 80 q-67 -2 -110.5 -94t-62.5 -212q-19 -118 -22 -218zM268 108q49 -56 119 -61q82 0 132.5 67t71.5 170.5t21 215.5q0 164 -36 272z" />
<glyph unicode="&#xf9;" horiz-adv-x="1011" d="M28 844v76q90 6 157 27t155 69l28 -29q-88 -332 -88 -807q98 106 191 240.5t162 279t98 281.5h133l-53 -856l162 35v-84q-201 0 -345 -96q70 378 76 684q-220 -379 -464 -668h-111l51 884zM328 1220l120 116l236 -156l-32 -35z" />
<glyph unicode="&#xfa;" horiz-adv-x="1011" d="M28 844v76q90 6 157 27t155 69l28 -29q-88 -332 -88 -807q98 106 191 240.5t162 279t98 281.5h133l-53 -856l162 35v-84q-201 0 -345 -96q70 378 76 684q-220 -379 -464 -668h-111l51 884zM416 1180l244 204l112 -96l-328 -143z" />
<glyph unicode="&#xfb;" horiz-adv-x="999" d="M28 844v76q90 6 157 27t155 69l28 -29q-88 -332 -88 -807q98 106 191 240.5t162 279t98 281.5h133l-53 -856l162 35v-84q-201 0 -345 -96q70 378 76 684q-220 -379 -464 -668h-111l51 884zM244 1136l260 236l260 -223l-260 90z" />
<glyph unicode="&#xfc;" horiz-adv-x="999" d="M28 844v76q90 6 157 27t155 69l28 -29q-88 -332 -88 -807q98 106 191 240.5t162 279t98 281.5h133l-53 -856l162 35v-84q-201 0 -345 -96q70 378 76 684q-220 -379 -464 -668h-111l51 884zM299 1233q0 39 25 68.5t63 29.5q40 0 64 -25.5t24 -66.5q0 -39 -26 -66.5 t-62 -27.5t-60.5 25.5t-27.5 62.5zM563 1233q0 39 25 69q26 29 64 29q40 0 68 -29.5t28 -68.5q-3 -38 -30 -63q-26 -25 -66 -25q-35 0 -60 25.5t-29 62.5z" />
<glyph unicode="&#xfd;" horiz-adv-x="1052" d="M33 912q160 14 266 92l176 -525q0 42 34.5 172.5t101.5 239.5t165 109h16q98 -8 151 -102t53 -226q-16 -322 -100 -558t-198 -375t-228 -201t-198 -62h-188q-26 60 -33 192q5 12 5 39q16 183 44 273h140q0 7 -28.5 -125.5t-31.5 -214.5q4 -57 21 -81t67 -24 q80 0 178.5 56t191 175.5t151.5 309.5t59 444v72q0 246 -96 256q-42 0 -81 -44.5t-69 -114t-48 -145.5q-18 -74 -22 -132q0 -26 -4 -52q12 -230 56 -336l-115 -48l-277 892l-155 -28zM508 1108l244 205l112 -97l-328 -145z" />
<glyph unicode="&#xff;" horiz-adv-x="1048" d="M33 912q160 14 266 92l176 -525q0 42 34.5 172.5t101.5 239.5t165 109h16q98 -8 151 -102t53 -226q-16 -322 -100 -558t-198 -375t-228 -201t-198 -62h-188q-26 60 -33 192q5 12 5 39q16 183 44 273h140q0 7 -28.5 -125.5t-31.5 -214.5q4 -57 21 -81t67 -24 q80 0 178.5 56t191 175.5t151.5 309.5t59 444v72q0 246 -96 256q-42 0 -81 -44.5t-69 -114t-48 -145.5q-18 -74 -22 -132q0 -26 -4 -52q12 -230 56 -336l-115 -48l-277 892l-155 -28zM312 1233q0 40 25 69t63 29q40 0 64 -25.5t24 -66.5q0 -39 -26 -66.5t-62 -27.5t-61 25.5 t-27 62.5zM576 1233q0 39 25 68.5t63 29.5q40 0 68 -29.5t28 -68.5q-3 -37 -29.5 -62.5t-66.5 -25.5q-36 0 -61 25.5t-27 62.5z" />
<glyph unicode="&#x152;" horiz-adv-x="1851" d="M68 647q0 176 81 321.5t220 229.5t301 84q8 0 22 -1t20 -1q34 0 73 -9t59 -15q240 -12 395 -13q203 1 413 17l13 -287h-73l-9 71q0 56 -48.5 88t-106.5 32h-232v-480l303 4q17 0 25 -4q80 13 80 84v56h67q0 -88 -4 -136q3 -59 6 -107.5t7 -124.5h-72v76q0 34 -29 52 q-13 20 -67 20l-308 8v-332q0 -88 25 -136t102 -48h209q68 0 121 44q40 32 51.5 94.5t11.5 97.5h72l-37 -328q-294 16 -399 16q-174 0 -492 -16q-25 -6 -74.5 -16t-89.5 -12q-178 0 -324 91t-229 246t-83 334zM223 664q0 -142 59.5 -282.5t165.5 -230t236 -91.5q20 4 51 4 q128 18 185 76.5t72.5 163t15.5 312.5q0 128 -9.5 221.5t-39 169t-89.5 121.5t-158 52q-142 0 -250 -62t-170.5 -178t-68.5 -276z" />
<glyph unicode="&#x153;" horiz-adv-x="1292" d="M56 307q2 192 39 341.5t143 248.5t298 103q52 0 100 -36t76 -120q86 156 252 156q122 0 177 -73t55 -192q0 -59 -24 -167q-196 -66 -424 -93q-2 1 -8 -71q4 -122 50 -220q44 -98 166 -104q61 0 113.5 35t83.5 91t31 118v24l68 -8q0 -42 -27 -127t-106 -159t-222 -74 q-170 8 -250 155q-113 -155 -363 -155q-79 6 -127.5 33.5t-74.5 97.5t-26 196zM209 404q0 -160 33 -256t145 -105q68 0 112.5 44.5t67.5 108.5t33 136q12 72 12 196q0 100 -20.5 190t-67 148t-120.5 58q-65 -4 -108.5 -95t-63.5 -210.5t-23 -214.5zM756 536l184 36 q66 10 100.5 70t34.5 146q-3 22 -7 53t-14 54t-30 36t-56 13q-61 0 -110 -62t-75.5 -157t-26.5 -189z" />
<glyph unicode="&#x2c6;" horiz-adv-x="944" d="M381 1149l260 235l258 -225l-258 93z" />
<glyph unicode="&#x2dc;" horiz-adv-x="936" d="M408 932q54 130 180 139q27 0 49.5 -12.5t50.5 -36.5t45 -36t35 -13q8 4 16 4q30 10 60 47l49 -16q-14 -62 -58.5 -100t-109.5 -48q-27 0 -49.5 12.5t-51 37t-49.5 37.5t-47 13q-34 0 -63 -44z" />
<glyph unicode="&#x2000;" horiz-adv-x="966" />
<glyph unicode="&#x2001;" horiz-adv-x="1932" />
<glyph unicode="&#x2002;" horiz-adv-x="966" />
<glyph unicode="&#x2003;" horiz-adv-x="1932" />
<glyph unicode="&#x2004;" horiz-adv-x="644" />
<glyph unicode="&#x2005;" horiz-adv-x="483" />
<glyph unicode="&#x2006;" horiz-adv-x="322" />
<glyph unicode="&#x2007;" horiz-adv-x="322" />
<glyph unicode="&#x2008;" horiz-adv-x="241" />
<glyph unicode="&#x2009;" horiz-adv-x="386" />
<glyph unicode="&#x200a;" horiz-adv-x="107" />
<glyph unicode="&#x2010;" d="M43 492v132h625v-132h-625z" />
<glyph unicode="&#x2011;" d="M43 492v132h625v-132h-625z" />
<glyph unicode="&#x2012;" d="M43 492v132h625v-132h-625z" />
<glyph unicode="&#x2013;" horiz-adv-x="1323" d="M43 492v132h1225v-132h-1225z" />
<glyph unicode="&#x2014;" horiz-adv-x="1755" d="M41 492v132h1663v-132h-1663z" />
<glyph unicode="&#x2018;" horiz-adv-x="403" d="M43 811l213 436h96q-24 -54 -60 -137.5t-61 -155.5t-40 -153t-15 -168h-51z" />
<glyph unicode="&#x2019;" horiz-adv-x="403" d="M47 637q78 174 106.5 243t51.5 166.5t23 205.5h52l76 -181l-212 -434h-97z" />
<glyph unicode="&#x201c;" horiz-adv-x="801" d="M47 811l213 436h96l-32 -73q-31 -72 -64.5 -159t-54.5 -159q-15 -50 -21 -134t-8 -94h-51zM432 811l211 436h97q0 1 -32 -71.5t-64.5 -154t-55.5 -161.5q-20 -91 -29 -227h-51z" />
<glyph unicode="&#x201d;" horiz-adv-x="788" d="M47 637q42 94 73 166.5t55.5 146t38.5 149t14 153.5h52l76 -181l-212 -434h-97zM432 637q77 174 109.5 256t51.5 170.5t19 192.5h52l76 -185l-212 -434h-96z" />
<glyph unicode="&#x2026;" horiz-adv-x="1216" d="M88 108q3 48 37.5 81.5t83.5 33.5q48 -3 77.5 -36t29.5 -83t-32 -87t-79 -37q-50 0 -83.5 38t-33.5 90zM496 108q3 48 37.5 81.5t82.5 33.5q48 -3 78 -37q31 -34 31 -82q0 -49 -33 -86q-34 -38 -80 -38q-49 0 -82.5 38t-33.5 90zM903 108q4 48 38.5 81.5t82.5 33.5 q48 -3 78 -37t30 -82q0 -49 -33 -86.5t-79 -37.5q-49 0 -83 38t-34 90z" />
<glyph unicode="&#x202f;" horiz-adv-x="386" />
<glyph unicode="&#x205f;" horiz-adv-x="483" />
<glyph unicode="&#x2122;" horiz-adv-x="1427" d="M51 1247q20 -4 248 -4q44 0 129.5 2t126.5 2l-2 -143h-29l-8 55q0 41 -32 41l-136 4v-496q0 -16 8 -32q10 -8 28 -11.5t20 -4.5l20 -8v-24h-248v24l24 4q16 4 30 7t22 12t8 29v492l-139 -4q-21 0 -29 -28l-8 -64h-28zM596 637v27h24q56 0 56 48v464v16q0 32 -72 32h-8v28 h12q42 0 60 -9q14 0 46.5 2t49.5 2l232 -491l92 188q32 58 60 109t48 100t28 94h168v-27h-12q-72 0 -72 -48v-464q0 -22 7.5 -29t25 -10t27.5 -9l20 -4v-28h-248v28l24 4q16 4 29 7t20 11q7 6 7 26v432l-243 -516h-17l-235 520v-428q0 -2 10 -32q15 -16 57 -16h13v-27h-209z " />
<glyph unicode="&#xe000;" horiz-adv-x="1012" d="M0 0v1012h1012v-1012h-1012z" />
</font>
</defs>
</svg>
